0
SECTION
2
HEADER
9
$INSUNITS
70
4
9
$ACADVER
1
AC1014
9
$HANDSEED
5
FFFF
0
ENDSEC
0
SECTION
2
TABLES
0
TABLE
2
VPORT
5
8
100
AcDbSymbolTable
0
ENDTAB
0
TABLE
2
LTYPE
5
5
100
AcDbSymbolTable
0
LTYPE
5
14
100
AcDbSymbolTableRecord
100
AcDbLinetypeTableRecord
2
BYBLOCK
70
0
0
LTYPE
5
15
100
AcDbSymbolTableRecord
100
AcDbLinetypeTableRecord
2
BYLAYER
70
0
0
ENDTAB
0
TABLE
2
LAYER
5
2
100
AcDbSymbolTable
70
2
0
LAYER
5
50
100
AcDbSymbolTableRecord
100
AcDbLayerTableRecord
2
0
70
0
6
CONTINUOUS
0
ENDTAB
0
TABLE
2
STYLE
5
3
100
AcDbSymbolTable
70
1
0
STYLE
5
11
100
AcDbSymbolTableRecord
100
AcDbTextStyleTableRecord
2
STANDARD
70
0
0
ENDTAB
0
TABLE
2
VIEW
5
6
100
AcDbSymbolTable
70
0
0
ENDTAB
0
TABLE
2
UCS
5
7
100
AcDbSymbolTable
70
0
0
ENDTAB
0
TABLE
2
APPID
5
9
100
AcDbSymbolTable
70
2
0
APPID
5
12
100
AcDbSymbolTableRecord
100
AcDbRegAppTableRecord
2
ACAD
70
0
0
ENDTAB
0
TABLE
2
DIMSTYLE
5
A
100
AcDbSymbolTable
70
1
0
ENDTAB
0
TABLE
2
BLOCK_RECORD
5
1
100
AcDbSymbolTable
70
1
0
BLOCK_RECORD
5
1F
100
AcDbSymbolTableRecord
100
AcDbBlockTableRecord
2
*MODEL_SPACE
0
BLOCK_RECORD
5
1B
100
AcDbSymbolTableRecord
100
AcDbBlockTableRecord
2
*PAPER_SPACE
0
ENDTAB
0
ENDSEC
0
SECTION
2
BLOCKS
0
BLOCK
5
20
100
AcDbEntity
100
AcDbBlockBegin
2
*MODEL_SPACE
0
ENDBLK
5
21
100
AcDbEntity
100
AcDbBlockEnd
0
BLOCK
5
1C
100
AcDbEntity
100
AcDbBlockBegin
2
*PAPER_SPACE
0
ENDBLK
5
1D
100
AcDbEntity
100
AcDbBlockEnd
0
ENDSEC
0
SECTION
2
ENTITIES
0
SPLINE
5
100
100
AcDbEntity
8
0
100
AcDbSpline
70
4
71
5
72
151
73
145
74
0
42
0.000000001
43
0.0000000001
44
0.0000000001
40
0
40
0
40
0
40
0
40
0
40
0
40
0.0071428571428571426
40
0.014285714285714285
40
0.021428571428571429
40
0.028571428571428571
40
0.035714285714285712
40
0.042857142857142858
40
0.050000000000000003
40
0.057142857142857148
40
0.064285714285714293
40
0.071428571428571438
40
0.078571428571428584
40
0.085714285714285729
40
0.092857142857142874
40
0.10000000000000002
40
0.10714285714285716
40
0.11428571428571431
40
0.12142857142857146
40
0.12857142857142859
40
0.13571428571428573
40
0.14285714285714288
40
0.15000000000000002
40
0.15714285714285717
40
0.16428571428571431
40
0.17142857142857146
40
0.1785714285714286
40
0.18571428571428575
40
0.19285714285714289
40
0.20000000000000004
40
0.20714285714285718
40
0.21428571428571433
40
0.22142857142857147
40
0.22857142857142862
40
0.23571428571428577
40
0.24285714285714291
40
0.25000000000000006
40
0.25714285714285717
40
0.26428571428571429
40
0.27142857142857141
40
0.27857142857142853
40
0.28571428571428564
40
0.29285714285714276
40
0.29999999999999988
40
0.307142857142857
40
0.31428571428571411
40
0.32142857142857123
40
0.32857142857142835
40
0.33571428571428547
40
0.34285714285714258
40
0.3499999999999997
40
0.35714285714285682
40
0.36428571428571394
40
0.37142857142857105
40
0.37857142857142817
40
0.38571428571428529
40
0.39285714285714241
40
0.39999999999999952
40
0.40714285714285664
40
0.41428571428571376
40
0.42142857142857088
40
0.42857142857142799
40
0.43571428571428511
40
0.44285714285714223
40
0.44999999999999934
40
0.45714285714285646
40
0.46428571428571358
40
0.4714285714285707
40
0.47857142857142781
40
0.48571428571428493
40
0.49285714285714205
40
0.49999999999999917
40
0.50714285714285634
40
0.51428571428571346
40
0.52142857142857058
40
0.52857142857142769
40
0.53571428571428481
40
0.54285714285714193
40
0.54999999999999905
40
0.55714285714285616
40
0.56428571428571328
40
0.5714285714285704
40
0.57857142857142752
40
0.58571428571428463
40
0.59285714285714175
40
0.59999999999999887
40
0.60714285714285599
40
0.6142857142857131
40
0.62142857142857022
40
0.62857142857142734
40
0.63571428571428445
40
0.64285714285714157
40
0.64999999999999869
40
0.65714285714285581
40
0.66428571428571292
40
0.67142857142857004
40
0.67857142857142716
40
0.68571428571428428
40
0.69285714285714139
40
0.69999999999999851
40
0.70714285714285563
40
0.71428571428571275
40
0.72142857142856986
40
0.72857142857142698
40
0.7357142857142841
40
0.74285714285714122
40
0.74999999999999833
40
0.75714285714285545
40
0.76428571428571257
40
0.77142857142856969
40
0.7785714285714268
40
0.78571428571428392
40
0.79285714285714104
40
0.79999999999999816
40
0.80714285714285527
40
0.81428571428571239
40
0.82142857142856951
40
0.82857142857142663
40
0.83571428571428374
40
0.84285714285714086
40
0.84999999999999798
40
0.8571428571428551
40
0.86428571428571221
40
0.87142857142856933
40
0.87857142857142645
40
0.88571428571428357
40
0.89285714285714068
40
0.8999999999999978
40
0.90714285714285492
40
0.91428571428571204
40
0.92142857142856915
40
0.92857142857142627
40
0.93571428571428339
40
0.94285714285714051
40
0.94999999999999762
40
0.95714285714285474
40
0.96428571428571186
40
0.97142857142856898
40
0.97857142857142609
40
0.98571428571428321
40
0.99285714285714033
40
1
40
1
40
1
40
1
40
1
40
1
41
1
41
1
41
1
41
1
41
1
41
1
41
1
41
1
41
1
41
1
41
1
41
1
41
1
41
1
41
1
41
1
41
1
41
1
41
1
41
1
41
1
41
1
41
1
41
1
41
1
41
1
41
1
41
1
41
1
41
1
41
1
41
1
41
1
41
1
41
1
41
1
41
1
41
1
41
1
41
1
41
1
41
1
41
1
41
1
41
1
41
1
41
1
41
1
41
1
41
1
41
1
41
1
41
1
41
1
41
1
41
1
41
1
41
1
41
1
41
1
41
1
41
1
41
1
41
1
41
1
41
1
41
1
41
1
41
1
41
1
41
1
41
1
41
1
41
1
41
1
41
1
41
1
41
1
41
1
41
1
41
1
41
1
41
1
41
1
41
1
41
1
41
1
41
1
41
1
41
1
41
1
41
1
41
1
41
1
41
1
41
1
41
1
41
1
41
1
41
1
41
1
41
1
41
1
41
1
41
1
41
1
41
1
41
1
41
1
41
1
41
1
41
1
41
1
41
1
41
1
41
1
41
1
41
1
41
1
41
1
41
1
41
1
41
1
41
1
41
1
41
1
41
1
41
1
41
1
41
1
41
1
41
1
41
1
41
1
41
1
41
1
41
1
41
1
41
1
41
1
41
1
41
1
41
1
41
1
41
1
10
-19.037914334177341
20
22.410327164140888
30
0
10
-19.153759493505383
20
22.325667421068673
30
0
10
-19.386760278895181
20
22.159193658554635
30
0
10
-19.740193012639594
20
21.918019928003115
30
0
10
-20.219299074103979
20
21.613532431995175
30
0
10
-20.831182130187354
20
21.261975257952855
30
0
10
-21.455723347012036
20
20.941267058350519
30
0
10
-22.092277342023298
20
20.654917838953601
30
0
10
-22.739666073053165
20
20.408931543790274
30
0
10
-23.396431991814488
20
20.211780599256379
30
0
10
-24.062507093219175
20
20.071905568080822
30
0
10
-24.74077783102954
20
19.995506481124291
30
0
10
-25.438411738875285
20
19.984479821638462
30
0
10
-26.16898235971853
20
20.033644360680928
30
0
10
-26.950857649961083
20
20.131429887224989
30
0
10
-27.803431941134509
20
20.262567218739861
30
0
10
-28.744069145658688
20
20.410134344336885
30
0
10
-29.784647834361465
20
20.557924924561235
30
0
10
-30.928516090871732
20
20.692546865624788
30
0
10
-32.166634559460753
20
20.805983987030757
30
0
10
-33.47969861368199
20
20.894878088714265
30
0
10
-34.84141335947605
20
20.959184068944676
30
0
10
-36.221358642593458
20
21.001046879519155
30
0
10
-37.588043643444429
20
21.023577180317087
30
0
10
-38.9118350802366
20
21.029691861957556
30
0
10
-40.168042909479531
20
21.020878235149482
30
0
10
-41.339700140950285
20
20.996103726082033
30
0
10
-42.421054497633214
20
20.950389608822015
30
0
10
-43.41890816638616
20
20.87440034210784
30
0
10
-44.348145430541067
20
20.756771697425179
30
0
10
-45.228323700351602
20
20.5859414898067
30
0
10
-46.079874065381013
20
20.352156983745505
30
0
10
-46.920404049897499
20
20.049453103269499
30
0
10
-47.761109391413697
20
19.677536560434913
30
0
10
-48.602723539531354
20
19.244002826084355
30
0
10
-49.437990759604922
20
18.761944476878135
30
0
10
-50.254804655820095
20
18.247079521070798
30
0
10
-51.039045203176407
20
17.715118043457188
30
0
10
-51.777678299128652
20
17.178882661200937
30
0
10
-52.461424396541894
20
16.64587469761722
30
0
10
-53.088420393434497
20
16.114783294404035
30
0
10
-53.663280352917837
20
15.57691506060695
30
0
10
-54.193961402813919
20
15.019967788515999
30
0
10
-54.689232296549555
20
14.431169925898127
30
0
10
-55.156089053401189
20
13.800451622660042
30
0
10
-55.596719544686181
20
13.124159395351329
30
0
10
-56.007232815043231
20
12.406691333102808
30
0
10
-56.380323005704689
20
11.657517746933436
30
0
10
-56.70708995262946
20
10.88918314527282
30
0
10
-56.979245156519049
20
10.114875758877682
30
0
10
-57.191038841437496
20
9.3462793044478598
30
0
10
-57.341609526937233
20
8.5910468444213492
30
0
10
-57.434145131917454
20
7.8529911117860447
30
0
10
-57.474534691861912
20
7.1327052368668529
30
0
10
-57.470194798916168
20
6.4280332242509166
30
0
10
-57.428831738148915
20
5.7346014073717679
30
0
10
-57.357209765332129
20
5.0463260589212595
30
0
10
-57.260113830049654
20
4.3558856409077311
30
0
10
-57.139317825696388
20
3.6551721314767569
30
0
10
-56.992606982115092
20
2.9357659020159015
30
0
10
-56.812644139779103
20
2.1893634991562569
30
0
10
-56.586281906671012
20
1.4083327992144514
30
0
10
-56.298499775375504
20
0.5876014159100249
30
0
10
-55.935949430053981
20
-0.27358000514198738
30
0
10
-55.490711044707595
20
-1.1697812149010403
30
0
10
-54.963821662531103
20
-2.0876741833529526
30
0
10
-54.369236264148562
20
-3.0040136074835377
30
0
10
-53.736651149751388
20
-3.8844324297215498
30
0
10
-53.102734064438614
20
-4.6905861984854376
30
0
10
-52.503218304170936
20
-5.3866779300150451
30
0
10
-51.964720912785438
20
-5.94617501336473
30
0
10
-51.496556458367749
20
-6.3585472570166912
30
0
10
-51.082823761004683
20
-6.6357689059661631
30
0
10
-50.673723536557091
20
-6.8194697073153465
30
0
10
-50.215199701752056
20
-6.9565060768644962
30
0
10
-49.674372245974197
20
-7.0780668966129623
30
0
10
-49.075478709139574
20
-7.1699579535650724
30
0
10
-48.489636735883238
20
-7.1816103717950774
30
0
10
-47.99607488924827
20
-7.0588754711066892
30
0
10
-47.653583857242808
20
-6.7685178610248
30
0
10
-47.463905491077718
20
-6.3288346688962704
30
0
10
-47.397503109147266
20
-5.7926634869643925
30
0
10
-47.420293476496724
20
-5.2278434680220895
30
0
10
-47.526990957129968
20
-4.6971485371155222
30
0
10
-47.735145897724756
20
-4.2465453495167518
30
0
10
-48.063174618294219
20
-3.8986816785997567
30
0
10
-48.511002758295952
20
-3.6424923259734627
30
0
10
-49.047289508461624
20
-3.4310169407166335
30
0
10
-49.626804104312797
20
-3.2050776058339618
30
0
10
-50.201486854907415
20
-2.910871775667863
30
0
10
-50.73599433539944
20
-2.5237301086568515
30
0
10
-51.214773049130415
20
-2.0567789142755561
30
0
10
-51.63459619453802
20
-1.541582912667985
30
0
10
-52.000102800827548
20
-1.0146088148499748
30
0
10
-52.318207571017183
20
-0.50162148824132191
30
0
10
-52.592823112691548
20
-0.0022780690437003851
30
0
10
-52.826048344476433
20
0.49934698778537517
30
0
10
-53.019640225369962
20
1.0233650357928126
30
0
10
-53.176431625503028
20
1.5826811810709733
30
0
10
-53.301617478032874
20
2.1725049226165898
30
0
10
-53.400850854533061
20
2.7785096790910773
30
0
10
-53.478500173094254
20
3.3840555988207015
30
0
10
-53.535856969532873
20
3.9777250170388081
30
0
10
-53.569331005678947
20
4.560836776806636
30
0
10
-53.572711381978706
20
5.1412145804214493
30
0
10
-53.539478014874923
20
5.7267697531272965
30
0
10
-53.465083725867338
20
6.3191951612622566
30
0
10
-53.349276531300802
20
6.9075026485684976
30
0
10
-53.194760172274812
20
7.4759937616834113
30
0
10
-53.005826548853037
20
8.0123411927597736
30
0
10
-52.786994290547497
20
8.5156540547926518
30
0
10
-52.541656707910171
20
9.004479565740283
30
0
10
-52.271475400624603
20
9.5058878106978
30
0
10
-51.975813012820623
20
10.044988490219254
30
0
10
-51.651058864170167
20
10.633708314487214
30
0
10
-51.290255334490944
20
11.261502605835343
30
0
10
-50.885478553215563
20
11.904077339949328
30
0
10
-50.430056538740203
20
12.530781580861838
30
0
10
-49.920724218726924
20
13.112227012428985
30
0
10
-49.36009923571082
20
13.628457931136778
30
0
10
-48.758149251876858
20
14.074955302073741
30
0
10
-48.128556261528239
20
14.457190522126158
30
0
10
-47.485655075649177
20
14.786565407733466
30
0
10
-46.841321774243447
20
15.076020210686902
30
0
10
-46.201476949372577
20
15.335303205731368
30
0
10
-45.564017705330954
20
15.567883610018438
30
0
10
-44.921482994659527
20
15.773499407497372
30
0
10
-44.262976931117805
20
15.949811911993152
30
0
10
-43.576253243879108
20
16.094267825277086
30
0
10
-42.850051748825351
20
16.206228787795563
30
0
10
-42.074790043542023
20
16.287283995060399
30
0
10
-41.242225665539102
20
16.340422026756066
30
0
10
-40.345435926348372
20
16.369551581869104
30
0
10
-39.378666600866772
20
16.37888544766065
30
0
10
-38.33723728514515
20
16.372365699969631
30
0
10
-37.217422903901799
20
16.353121768390327
30
0
10
-36.016347435863224
20
16.3235965687659
30
0
10
-34.731873265367959
20
16.285619439677031
30
0
10
-33.362492724094906
20
16.240499348247525
30
0
10
-31.907218964591454
20
16.189109280754408
30
0
10
-30.365477358180755
20
16.131974264673239
30
0
10
-29.062692963848988
20
16.081881008275356
30
0
10
-28.046538010624104
20
16.041884292065681
30
0
10
-27.351739857954822
20
16.014141335992427
30
0
10
-27.000000402331352
20
16.000000238418579
30
0
0
LINE
5
101
100
AcDbEntity
8
0
100
AcDbLine
10
-27.000000402331352
20
16.000000238418579
30
0
11
-36.000000536441803
21
3.0000000447034836
31
0
0
SPLINE
5
102
100
AcDbEntity
8
0
100
AcDbSpline
70
4
71
5
72
176
73
170
74
0
42
0.000000001
43
0.0000000001
44
0.0000000001
40
0
40
0
40
0
40
0
40
0
40
0
40
0.0060606060606060606
40
0.012121212121212121
40
0.018181818181818181
40
0.024242424242424242
40
0.030303030303030304
40
0.036363636363636362
40
0.04242424242424242
40
0.048484848484848478
40
0.054545454545454536
40
0.060606060606060594
40
0.066666666666666652
40
0.07272727272727271
40
0.078787878787878768
40
0.084848484848484826
40
0.090909090909090884
40
0.096969696969696942
40
0.103030303030303
40
0.10909090909090906
40
0.11515151515151512
40
0.12121212121212117
40
0.12727272727272723
40
0.1333333333333333
40
0.13939393939393938
40
0.14545454545454545
40
0.15151515151515152
40
0.15757575757575759
40
0.16363636363636366
40
0.16969696969696973
40
0.17575757575757581
40
0.18181818181818188
40
0.18787878787878795
40
0.19393939393939402
40
0.20000000000000009
40
0.20606060606060617
40
0.21212121212121224
40
0.21818181818181831
40
0.22424242424242438
40
0.23030303030303045
40
0.23636363636363653
40
0.2424242424242426
40
0.24848484848484867
40
0.25454545454545474
40
0.26060606060606079
40
0.26666666666666683
40
0.27272727272727287
40
0.27878787878787892
40
0.28484848484848496
40
0.29090909090909101
40
0.29696969696969705
40
0.30303030303030309
40
0.30909090909090914
40
0.31515151515151518
40
0.32121212121212123
40
0.32727272727272727
40
0.33333333333333331
40
0.33939393939393936
40
0.3454545454545454
40
0.35151515151515145
40
0.35757575757575749
40
0.36363636363636354
40
0.36969696969696958
40
0.37575757575757562
40
0.38181818181818167
40
0.38787878787878771
40
0.39393939393939376
40
0.3999999999999998
40
0.40606060606060584
40
0.41212121212121189
40
0.41818181818181793
40
0.42424242424242398
40
0.43030303030303002
40
0.43636363636363606
40
0.44242424242424211
40
0.44848484848484815
40
0.4545454545454542
40
0.46060606060606024
40
0.46666666666666629
40
0.47272727272727233
40
0.47878787878787837
40
0.48484848484848442
40
0.49090909090909046
40
0.49696969696969651
40
0.50303030303030261
40
0.50909090909090871
40
0.5151515151515148
40
0.5212121212121209
40
0.527272727272727
40
0.5333333333333331
40
0.5393939393939392
40
0.5454545454545453
40
0.5515151515151514
40
0.5575757575757575
40
0.5636363636363636
40
0.5696969696969697
40
0.5757575757575758
40
0.5818181818181819
40
0.587878787878788
40
0.5939393939393941
40
0.6000000000000002
40
0.6060606060606063
40
0.6121212121212124
40
0.6181818181818185
40
0.6242424242424246
40
0.6303030303030307
40
0.6363636363636368
40
0.6424242424242429
40
0.648484848484849
40
0.6545454545454551
40
0.6606060606060612
40
0.6666666666666673
40
0.6727272727272734
40
0.6787878787878795
40
0.68484848484848559
40
0.69090909090909169
40
0.69696969696969779
40
0.70303030303030389
40
0.70909090909090999
40
0.71515151515151609
40
0.72121212121212219
40
0.72727272727272829
40
0.73333333333333439
40
0.73939393939394049
40
0.74545454545454659
40
0.75151515151515269
40
0.75757575757575879
40
0.76363636363636489
40
0.76969696969697099
40
0.77575757575757709
40
0.78181818181818319
40
0.78787878787878929
40
0.79393939393939539
40
0.80000000000000149
40
0.80606060606060759
40
0.81212121212121369
40
0.81818181818181979
40
0.82424242424242589
40
0.83030303030303199
40
0.83636363636363809
40
0.84242424242424419
40
0.84848484848485028
40
0.85454545454545638
40
0.86060606060606248
40
0.86666666666666858
40
0.87272727272727468
40
0.87878787878788078
40
0.88484848484848688
40
0.89090909090909298
40
0.89696969696969908
40
0.90303030303030518
40
0.90909090909091128
40
0.91515151515151738
40
0.92121212121212348
40
0.92727272727272958
40
0.93333333333333568
40
0.93939393939394178
40
0.94545454545454788
40
0.95151515151515398
40
0.95757575757576008
40
0.96363636363636618
40
0.96969696969697228
40
0.97575757575757838
40
0.98181818181818448
40
0.98787878787879058
40
0.99393939393939668
40
1
40
1
40
1
40
1
40
1
40
1
41
1
41
1
41
1
41
1
41
1
41
1
41
1
41
1
41
1
41
1
41
1
41
1
41
1
41
1
41
1
41
1
41
1
41
1
41
1
41
1
41
1
41
1
41
1
41
1
41
1
41
1
41
1
41
1
41
1
41
1
41
1
41
1
41
1
41
1
41
1
41
1
41
1
41
1
41
1
41
1
41
1
41
1
41
1
41
1
41
1
41
1
41
1
41
1
41
1
41
1
41
1
41
1
41
1
41
1
41
1
41
1
41
1
41
1
41
1
41
1
41
1
41
1
41
1
41
1
41
1
41
1
41
1
41
1
41
1
41
1
41
1
41
1
41
1
41
1
41
1
41
1
41
1
41
1
41
1
41
1
41
1
41
1
41
1
41
1
41
1
41
1
41
1
41
1
41
1
41
1
41
1
41
1
41
1
41
1
41
1
41
1
41
1
41
1
41
1
41
1
41
1
41
1
41
1
41
1
41
1
41
1
41
1
41
1
41
1
41
1
41
1
41
1
41
1
41
1
41
1
41
1
41
1
41
1
41
1
41
1
41
1
41
1
41
1
41
1
41
1
41
1
41
1
41
1
41
1
41
1
41
1
41
1
41
1
41
1
41
1
41
1
41
1
41
1
41
1
41
1
41
1
41
1
41
1
41
1
41
1
41
1
41
1
41
1
41
1
41
1
41
1
41
1
41
1
41
1
41
1
41
1
41
1
41
1
41
1
41
1
41
1
41
1
41
1
41
1
41
1
41
1
41
1
41
1
41
1
41
1
10
-36.000000536441803
20
3.0000000447034836
30
0
10
-36.207961292118725
20
3.0126415995153248
30
0
10
-36.616864320724815
20
3.0358766984817742
30
0
10
-37.209163410560024
20
3.0645853101282023
30
0
10
-37.956782148331385
20
3.0905746927061601
30
0
10
-38.821289308577342
20
3.1024350969828944
30
0
10
-39.616324333339826
20
3.0932421420180378
30
0
10
-40.342993109630285
20
3.0621458277844189
30
0
10
-41.003158738344673
20
3.0077371327650542
30
0
10
-41.599625480609689
20
2.9279002927377418
30
0
10
-42.136353362921454
20
2.8196936185823414
30
0
10
-42.617215000644649
20
2.6784251037034252
30
0
10
-43.044750240750901
20
2.496793889597039
30
0
10
-43.418872778057853
20
2.2638437279375929
30
0
10
-43.735701779115423
20
1.9644922092839661
30
0
10
-43.98566657693852
20
1.5900230384722227
30
0
10
-44.152491437676545
20
1.1466659371209946
30
0
10
-44.210001691480016
20
0.66761973679415143
30
0
10
-44.133452182822317
20
0.20160874714898752
30
0
10
-43.911429816625954
20
-0.20199403412552597
30
0
10
-43.562076203161844
20
-0.50920755435443732
30
0
10
-43.130961146866021
20
-0.70827600061130069
30
0
10
-42.668944637478873
20
-0.80499910311815848
30
0
10
-42.213981097090503
20
-0.82154428391995515
30
0
10
-41.775031109476942
20
-0.79265360602316282
30
0
10
-41.343523175497118
20
-0.75087217864278633
30
0
10
-40.901587991634585
20
-0.71467128668411073
30
0
10
-40.431180781979428
20
-0.67128574373685257
30
0
10
-39.92471776537937
20
-0.5966321584648
30
0
10
-39.394865064332024
20
-0.48000160870882869
30
0
10
-38.887403470775354
20
-0.3512536224861646
30
0
10
-38.484822546729383
20
-0.29506456289204275
30
0
10
-38.27292748040928
20
-0.40822852130420112
30
0
10
-38.308839371823126
20
-0.76055448389139046
30
0
10
-38.598973165977327
20
-1.3668149733112724
30
0
10
-39.11494657811204
20
-2.2039349049743313
30
0
10
-39.802673162402861
20
-3.2199701566410899
30
0
10
-40.594147484745669
20
-4.3463349145454409
30
0
10
-41.41808065768852
20
-5.5086406466730686
30
0
10
-42.211019493091904
20
-6.6381211246383751
30
0
10
-42.928280504795346
20
-7.6828267044163017
30
0
10
-43.554907059886503
20
-8.6188632753659533
30
0
10
-44.098904700255829
20
-9.4444985435421032
30
0
10
-44.584554604798711
20
-10.17435029796674
30
0
10
-45.045725318748921
20
-10.833565802452522
30
0
10
-45.519134405405765
20
-11.451966698906482
30
0
10
-46.037757812306623
20
-12.058306627237588
30
0
10
-46.623877905525042
20
-12.674251516024464
30
0
10
-47.283143309392727
20
-13.309139311554114
30
0
10
-48.008644983140499
20
-13.962466701157263
30
0
10
-48.784200845883205
20
-14.625760866639247
30
0
10
-49.587926546154577
20
-15.284682263143647
30
0
10
-50.395712371623887
20
-15.921030442168309
30
0
10
-51.184671185917601
20
-16.514783719569564
30
0
10
-51.936761969366437
20
-17.046139394069606
30
0
10
-52.641865391319207
20
-17.497512889679847
30
0
10
-53.296471515869193
20
-17.855396177203168
30
0
10
-53.902725868863854
20
-18.112103086101929
30
0
10
-54.467446902966621
20
-18.26781843194204
30
0
10
-55.000910313025585
20
-18.331923973888017
30
0
10
-55.516373070093181
20
-18.326178717518754
30
0
10
-56.025003942884901
20
-18.276845303952079
30
0
10
-56.529110643004358
20
-18.202851401344226
30
0
10
-57.016331895280523
20
-18.106032895836364
30
0
10
-57.452414933581466
20
-17.958607440738103
30
0
10
-57.795051511569319
20
-17.726026430114697
30
0
10
-58.007503160263042
20
-17.387875757882298
30
0
10
-58.075058436028698
20
-16.967355801731504
30
0
10
-58.005590280884348
20
-16.516915112731855
30
0
10
-57.82266735083595
20
-16.087952624848405
30
0
10
-57.561547915950243
20
-15.698911672482904
30
0
10
-57.261883647719181
20
-15.333883613859898
30
0
10
-56.959758457569322
20
-14.96239071313634
30
0
10
-56.679276697957832
20
-14.553292409222141
30
0
10
-56.42599167364309
20
-14.089285685893319
30
0
10
-56.195927622070563
20
-13.563103483495656
30
0
10
-55.983007490591667
20
-12.975848897167817
30
0
10
-55.787321149800704
20
-12.334459615775085
30
0
10
-55.622397906295433
20
-11.649627242649901
30
0
10
-55.509919943921389
20
-10.935188784235891
30
0
10
-55.475055023606792
20
-10.207500610616545
30
0
10
-55.541538811099983
20
-9.4848171309772908
30
0
10
-55.726909993610228
20
-8.7866660136684338
30
0
10
-56.037550597429167
20
-8.1332310644418921
30
0
10
-56.470046179376261
20
-7.5444806557548834
30
0
10
-57.012708239081825
20
-7.0392938683313613
30
0
10
-57.647021308882778
20
-6.6345789163344691
30
0
10
-58.349152154225465
20
-6.3444134614737768
30
0
10
-59.091347064319812
20
-6.1791239730500873
30
0
10
-59.844157270916227
20
-6.1449306866632476
30
0
10
-60.578745026351157
20
-6.243713566733252
30
0
10
-61.269258818722662
20
-6.4726823278066883
30
0
10
-61.894960380514689
20
-6.8242042391733477
30
0
10
-62.443012853873427
20
-7.2852644112975815
30
0
10
-62.908205257044273
20
-7.8385739294043315
30
0
10
-63.29107473582512
20
-8.4645087135432124
30
0
10
-63.596508963338955
20
-9.142844134705717
30
0
10
-63.832194872196233
20
-9.8544526823388026
30
0
10
-64.007025608087559
20
-10.583314973211097
30
0
10
-64.129950262863773
20
-11.317238322361007
30
0
10
-64.209355638869354
20
-12.047185554986569
30
0
10
-64.252289224212134
20
-12.766978550384007
30
0
10
-64.263776853955264
20
-13.472846997110571
30
0
10
-64.246028319764122
20
-14.163050077149848
30
0
10
-64.197904438983244
20
-14.837449212343099
30
0
10
-64.115603983853319
20
-15.496987492644418
30
0
10
-63.993184630633671
20
-16.143179989633008
30
0
10
-63.823158644071412
20
-16.777596342505991
30
0
10
-63.597030496930998
20
-17.401355823284771
30
0
10
-63.305941800604884
20
-18.014589604756562
30
0
10
-62.941537591719559
20
-18.615856171308081
30
0
10
-62.496804224597639
20
-19.201531449516654
30
0
10
-61.966891276112392
20
-19.765279989994479
30
0
10
-61.350005716593692
20
-20.297322021686067
30
0
10
-60.648076312202988
20
-20.784304632658621
30
0
10
-59.866507429894121
20
-21.211497325400185
30
0
10
-59.014078410569027
20
-21.564647571792154
30
0
10
-58.102774727202153
20
-21.83194000373949
30
0
10
-57.147676734425083
20
-22.005979017619822
30
0
10
-56.166759409773668
20
-22.085604555083993
30
0
10
-55.180903979669992
20
-22.078199501508085
30
0
10
-54.212014700338713
20
-21.997459263192539
30
0
10
-53.280810745215248
20
-21.860413437148217
30
0
10
-52.404778305932844
20
-21.684757897981591
30
0
10
-51.595950525285403
20
-21.485951650219558
30
0
10
-50.859001692991669
20
-21.274658050613514
30
0
10
-50.188621780903226
20
-21.053449010275926
30
0
10
-49.569073454718435
20
-20.81571684329198
30
0
10
-48.979135150837166
20
-20.550028892320089
30
0
10
-48.396146931131128
20
-20.243566173244961
30
0
10
-47.800130201871568
20
-19.885661502625091
30
0
10
-47.178548505893474
20
-19.471924411188809
30
0
10
-46.528539110139079
20
-19.006004112089204
30
0
10
-45.853882098456893
20
-18.496412116612966
30
0
10
-45.163119195056979
20
-17.954437984064072
30
0
10
-44.467170045599659
20
-17.391558629399015
30
0
10
-43.777264307213819
20
-16.817224467905266
30
0
10
-43.102495702032122
20
-16.236095885569423
30
0
10
-42.448339254056307
20
-15.646794034938903
30
0
10
-41.817197514245365
20
-15.043895900067355
30
0
10
-41.208533223587793
20
-14.419272294462901
30
0
10
-40.619170553035445
20
-13.763680913954184
30
0
10
-40.043512946822695
20
-13.068263632517855
30
0
10
-39.473821418826709
20
-12.326052982148777
30
0
10
-38.900398196524591
20
-11.533561492701958
30
0
10
-38.31303341874608
20
-10.690775976055516
30
0
10
-37.702545510926804
20
-9.8010228714734318
30
0
10
-37.062291869933915
20
-8.8708821494840571
30
0
10
-36.389684111163021
20
-7.9100794250479787
30
0
10
-35.687721960047242
20
-6.9313931693922823
30
0
10
-34.966474669096634
20
-5.9505448007900679
30
0
10
-34.244695224179637
20
-4.9861239747627604
30
0
10
-33.551076658059664
20
-4.0594241232356927
30
0
10
-32.917921995996544
20
-3.1924174685951452
30
0
10
-32.375010616369714
20
-2.4057718185016235
30
0
10
-31.943600252719875
20
-1.7169151967177398
30
0
10
-31.629894635346297
20
-1.1379350866438436
30
0
10
-31.419842005874653
20
-0.67388326191754155
30
0
10
-31.270687953674319
20
-0.32009329133806103
30
0
10
-31.112616421397515
20
-0.062567633504288442
30
0
10
-30.868466261146587
20
0.11609970590206228
30
0
10
-30.472876727420605
20
0.23102542791132546
30
0
10
-29.87822832626177
20
0.29315666745194713
30
0
10
-29.050029397012977
20
0.31047068927478039
30
0
10
-27.965546873898898
20
0.2882268628110794
30
0
10
-26.611095149172812
20
0.22961093421607476
30
0
10
-25.306142261199188
20
0.15489033322524484
30
0
10
-24.201888534329914
20
0.083438354219144278
30
0
10
-23.409928283532622
20
0.028954337518569365
30
0
10
-23.000000342726707
20
0
30
0
0
SPLINE
5
103
100
AcDbEntity
8
0
100
AcDbSpline
70
4
71
5
72
161
73
155
74
0
42
0.000000001
43
0.0000000001
44
0.0000000001
40
0
40
0
40
0
40
0
40
0
40
0
40
0.0066666666666666671
40
0.013333333333333334
40
0.02
40
0.026666666666666668
40
0.033333333333333333
40
0.040000000000000001
40
0.046666666666666669
40
0.053333333333333337
40
0.060000000000000005
40
0.066666666666666666
40
0.073333333333333334
40
0.080000000000000002
40
0.08666666666666667
40
0.093333333333333338
40
0.10000000000000001
40
0.10666666666666667
40
0.11333333333333334
40
0.12000000000000001
40
0.12666666666666668
40
0.13333333333333333
40
0.13999999999999999
40
0.14666666666666664
40
0.15333333333333329
40
0.15999999999999995
40
0.1666666666666666
40
0.17333333333333326
40
0.17999999999999991
40
0.18666666666666656
40
0.19333333333333322
40
0.19999999999999987
40
0.20666666666666653
40
0.21333333333333318
40
0.21999999999999983
40
0.22666666666666649
40
0.23333333333333314
40
0.2399999999999998
40
0.24666666666666645
40
0.25333333333333313
40
0.25999999999999979
40
0.26666666666666644
40
0.2733333333333331
40
0.27999999999999975
40
0.2866666666666664
40
0.29333333333333306
40
0.29999999999999971
40
0.30666666666666637
40
0.31333333333333302
40
0.31999999999999967
40
0.32666666666666633
40
0.33333333333333298
40
0.33999999999999964
40
0.34666666666666629
40
0.35333333333333294
40
0.3599999999999996
40
0.36666666666666625
40
0.37333333333333291
40
0.37999999999999956
40
0.38666666666666621
40
0.39333333333333287
40
0.39999999999999952
40
0.40666666666666618
40
0.41333333333333283
40
0.41999999999999948
40
0.42666666666666614
40
0.43333333333333279
40
0.43999999999999945
40
0.4466666666666661
40
0.45333333333333276
40
0.45999999999999941
40
0.46666666666666606
40
0.47333333333333272
40
0.47999999999999937
40
0.48666666666666603
40
0.49333333333333268
40
0.49999999999999933
40
0.50666666666666604
40
0.51333333333333275
40
0.51999999999999946
40
0.52666666666666617
40
0.53333333333333288
40
0.53999999999999959
40
0.5466666666666663
40
0.55333333333333301
40
0.55999999999999972
40
0.56666666666666643
40
0.57333333333333314
40
0.57999999999999985
40
0.58666666666666656
40
0.59333333333333327
40
0.59999999999999998
40
0.60666666666666669
40
0.6133333333333334
40
0.62000000000000011
40
0.62666666666666682
40
0.63333333333333353
40
0.64000000000000024
40
0.64666666666666694
40
0.65333333333333365
40
0.66000000000000036
40
0.66666666666666707
40
0.67333333333333378
40
0.68000000000000049
40
0.6866666666666672
40
0.69333333333333391
40
0.70000000000000062
40
0.70666666666666733
40
0.71333333333333404
40
0.72000000000000075
40
0.72666666666666746
40
0.73333333333333417
40
0.74000000000000088
40
0.74666666666666759
40
0.7533333333333343
40
0.76000000000000101
40
0.76666666666666772
40
0.77333333333333443
40
0.78000000000000114
40
0.78666666666666785
40
0.79333333333333456
40
0.80000000000000127
40
0.80666666666666798
40
0.81333333333333468
40
0.82000000000000139
40
0.8266666666666681
40
0.83333333333333481
40
0.84000000000000152
40
0.84666666666666823
40
0.85333333333333494
40
0.86000000000000165
40
0.86666666666666836
40
0.87333333333333507
40
0.88000000000000178
40
0.88666666666666849
40
0.8933333333333352
40
0.90000000000000191
40
0.90666666666666862
40
0.91333333333333533
40
0.92000000000000204
40
0.92666666666666875
40
0.93333333333333546
40
0.94000000000000217
40
0.94666666666666888
40
0.95333333333333559
40
0.9600000000000023
40
0.96666666666666901
40
0.97333333333333572
40
0.98000000000000242
40
0.98666666666666913
40
0.99333333333333584
40
1
40
1
40
1
40
1
40
1
40
1
41
1
41
1
41
1
41
1
41
1
41
1
41
1
41
1
41
1
41
1
41
1
41
1
41
1
41
1
41
1
41
1
41
1
41
1
41
1
41
1
41
1
41
1
41
1
41
1
41
1
41
1
41
1
41
1
41
1
41
1
41
1
41
1
41
1
41
1
41
1
41
1
41
1
41
1
41
1
41
1
41
1
41
1
41
1
41
1
41
1
41
1
41
1
41
1
41
1
41
1
41
1
41
1
41
1
41
1
41
1
41
1
41
1
41
1
41
1
41
1
41
1
41
1
41
1
41
1
41
1
41
1
41
1
41
1
41
1
41
1
41
1
41
1
41
1
41
1
41
1
41
1
41
1
41
1
41
1
41
1
41
1
41
1
41
1
41
1
41
1
41
1
41
1
41
1
41
1
41
1
41
1
41
1
41
1
41
1
41
1
41
1
41
1
41
1
41
1
41
1
41
1
41
1
41
1
41
1
41
1
41
1
41
1
41
1
41
1
41
1
41
1
41
1
41
1
41
1
41
1
41
1
41
1
41
1
41
1
41
1
41
1
41
1
41
1
41
1
41
1
41
1
41
1
41
1
41
1
41
1
41
1
41
1
41
1
41
1
41
1
41
1
41
1
41
1
41
1
41
1
41
1
41
1
41
1
41
1
41
1
41
1
41
1
41
1
41
1
41
1
41
1
41
1
41
1
41
1
41
1
10
-23.000000342726707
20
0
30
0
10
-23.093004336222126
20
-0.13269699913602351
30
0
10
-23.277646048358818
20
-0.39885970389673847
30
0
10
-23.550509788195239
20
-0.80040987999370528
30
0
10
-23.906129891251595
20
-1.3404226908113759
30
0
10
-24.336930614768988
20
-2.0230850711399331
30
0
10
-24.753831336729757
20
-2.7132667730660174
30
0
10
-25.15648420218044
20
-3.4107110278815211
30
0
10
-25.544315620346101
20
-4.1149879003804095
30
0
10
-25.91646368852334
20
-4.8254495966588467
30
0
10
-26.27173674695775
20
-5.5411885554642204
30
0
10
-26.608518055925003
20
-6.2609882678855353
30
0
10
-26.924990685147286
20
-6.9833177751513889
30
0
10
-27.219456603141342
20
-7.7063403193368494
30
0
10
-27.490629944163956
20
-8.4279155694110983
30
0
10
-27.737928660297658
20
-9.1456080136985474
30
0
10
-27.961796021735239
20
-9.8566843520546819
30
0
10
-28.163941497207297
20
-10.558134954270315
30
0
10
-28.347794758634976
20
-11.246634010022252
30
0
10
-28.517489249188511
20
-11.918922634842101
30
0
10
-28.676456084031262
20
-12.572307574150736
30
0
10
-28.826201787600922
20
-13.205099499137766
30
0
10
-28.964894262568933
20
-13.817124146825627
30
0
10
-29.086296590198568
20
-14.410092422099471
30
0
10
-29.177872367404017
20
-14.988312067189977
30
0
10
-29.222921851382651
20
-15.557729929110451
30
0
10
-29.204371654739436
20
-16.124283364904073
30
0
10
-29.10821882162201
20
-16.692406081322861
30
0
10
-28.926711420896275
20
-17.263617492413786
30
0
10
-28.662640945699227
20
-17.834713606507432
30
0
10
-28.329385752062613
20
-18.39749439487364
30
0
10
-27.945833677737113
20
-18.940325101412753
30
0
10
-27.532718096149864
20
-19.449219936020274
30
0
10
-27.10819863048836
20
-19.909121292808045
30
0
10
-26.684185502793962
20
-20.305090290009794
30
0
10
-26.261256618676523
20
-20.623546249331902
30
0
10
-25.831214292717306
20
-20.853447552182573
30
0
10
-25.382213940841272
20
-20.987523913920455
30
0
10
-24.902842883952676
20
-21.023389612596688
30
0
10
-24.387090376930406
20
-20.964942948962353
30
0
10
-23.837552579209188
20
-20.822925692752211
30
0
10
-23.262406658389967
20
-20.612194458743094
30
0
10
-22.673339344955288
20
-20.349520400947348
30
0
10
-22.083057440663762
20
-20.051127140216952
30
0
10
-21.503085685673366
20
-19.730469582731672
30
0
10
-20.941153833606538
20
-19.3955671232819
30
0
10
-20.401684657099942
20
-19.050006245960383
30
0
10
-19.88675063925545
20
-18.694508761896294
30
0
10
-19.396884091403599
20
-18.328321653032301
30
0
10
-18.931908842169594
20
-17.950635541245642
30
0
10
-18.491856116578106
20
-17.562099552180822
30
0
10
-18.077569413465365
20
-17.165975450168045
30
0
10
-17.689125103394179
20
-16.766724774424219
30
0
10
-17.324463226456292
20
-16.368859173657128
30
0
10
-16.977978190093104
20
-15.975706404422986
30
0
10
-16.639029302657924
20
-15.588172637486043
30
0
10
-16.290757161354193
20
-15.203617072317384
30
0
10
-15.914626700800893
20
-14.817058612696387
30
0
10
-15.494675281749481
20
-14.422262906512994
30
0
10
-15.021891810895582
20
-14.012876267423135
30
0
10
-14.498497604136096
20
-13.583534842948268
30
0
10
-13.942395456225761
20
-13.130997493048248
30
0
10
-13.382439053232385
20
-12.654375696481504
30
0
10
-12.853515669957565
20
-12.155352194000301
30
0
10
-12.39176474647115
20
-11.638399942963019
30
0
10
-12.02959258267529
20
-11.111011952350019
30
0
10
-11.791118881809062
20
-10.583903739142027
30
0
10
-11.68653580400276
20
-10.071286043996331
30
0
10
-11.713710271117868
20
-9.590849256209923
30
0
10
-11.861665784220971
20
-9.1639193996816442
30
0
10
-12.113325281617492
20
-8.8151178116751066
30
0
10
-12.448792196420563
20
-8.5732745014518859
30
0
10
-12.847502806279516
20
-8.4676337520333114
30
0
10
-13.289441257746262
20
-8.5188343204760102
30
0
10
-13.756536066799981
20
-8.7319492284783902
30
0
10
-14.234140669828854
20
-9.0870802932368466
30
0
10
-14.710985774448716
20
-9.5460932590313803
30
0
10
-15.178837567014572
20
-10.061954687101567
30
0
10
-15.632262083784243
20
-10.587311670293522
30
0
10
-16.068343336896767
20
-11.083061416880822
30
0
10
-16.48642783901234
20
-11.527704445767723
30
0
10
-16.887841545562473
20
-11.924067632713333
30
0
10
-17.275487122435905
20
-12.289505921039513
30
0
10
-17.653454737645788
20
-12.647920393019625
30
0
10
-18.026626660229116
20
-13.021211800593726
30
0
10
-18.40028813025987
20
-13.420662469988436
30
0
10
-18.779726017919874
20
-13.8392346635216
30
0
10
-19.169654002410269
20
-14.258821659108968
30
0
10
-19.573651466955699
20
-14.656595825627139
30
0
10
-19.993589513917819
20
-15.011685672594343
30
0
10
-20.429078741132013
20
-15.311740111645772
30
0
10
-20.876868362225117
20
-15.559491599486666
30
0
10
-21.330081901756706
20
-15.764609659511631
30
0
10
-21.777186347882388
20
-15.934698796433786
30
0
10
-22.201577099171288
20
-16.068158757153537
30
0
10
-22.579666269801002
20
-16.142566953531915
30
0
10
-22.884113885573584
20
-16.118564167689687
30
0
10
-23.091947095816771
20
-15.9594316239513
30
0
10
-23.192978960700028
20
-15.649931012115557
30
0
10
-23.193044394347314
20
-15.204683448524474
30
0
10
-23.106918113974654
20
-14.65446944636528
30
0
10
-22.953935522882688
20
-14.038235078477966
30
0
10
-22.751856140574379
20
-13.391642795286035
30
0
10
-22.513714115745593
20
-12.74095325342037
30
0
10
-22.249466841526797
20
-12.105065850675896
30
0
10
-21.966620201110125
20
-11.495874934712887
30
0
10
-21.671305419621952
20
-10.919287554563809
30
0
10
-21.369059403178063
20
-10.375970368044685
30
0
10
-21.065982126591464
20
-9.8621784460417654
30
0
10
-20.768893945292813
20
-9.3706580044885932
30
0
10
-20.483644256732553
20
-8.8918195774597883
30
0
10
-20.213768340816841
20
-8.4148506922995807
30
0
10
-19.959100945320628
20
-7.9288459067190864
30
0
10
-19.714179841122473
20
-7.4239448976455442
30
0
10
-19.467417405838546
20
-6.8924232468550972
30
0
10
-19.205213974153168
20
-6.3295523234679596
30
0
10
-18.915373121246635
20
-5.7344372014868412
30
0
10
-18.591034196918251
20
-5.1109661706164715
30
0
10
-18.233820379098368
20
-4.4684807585862032
30
0
10
-17.858704384690014
20
-3.8231363172853765
30
0
10
-17.493265621403218
20
-3.1969530034139826
30
0
10
-17.167748883375637
20
-2.6130327628887748
30
0
10
-16.907667764302449
20
-2.0918722489015469
30
0
10
-16.724533071225192
20
-1.6468060071379529
30
0
10
-16.609342876032478
20
-1.2808087193839011
30
0
10
-16.519921980290842
20
-0.98021591566401955
30
0
10
-16.396705429250986
20
-0.72265792139298002
30
0
10
-16.187627189922456
20
-0.48930445244186044
30
0
10
-15.876231038037867
20
-0.27924074374280755
30
0
10
-15.480828164219055
20
-0.10713276699443726
30
0
10
-15.034123159381153
20
0.010314532033099547
30
0
10
-14.569216317006006
20
0.064140475509882861
30
0
10
-14.102027801282253
20
0.065293993785681598
30
0
10
-13.636174959392466
20
0.036694351631871236
30
0
10
-13.169035518420401
20
0.0038161144681745484
30
0
10
-12.696849696369805
20
-0.01323625185728498
30
0
10
-12.221601952365324
20
-0.010667376533111745
30
0
10
-11.750198754376697
20
0.0013302674506389485
30
0
10
-11.289206532221188
20
0.0083988748619747856
30
0
10
-10.841523332604734
20
-0.0011717259375764743
30
0
10
-10.400957508356424
20
-0.026802911513203617
30
0
10
-9.9520533424829178
20
-0.052518273158678214
30
0
10
-9.4794877919032423
20
-0.055415937456173361
30
0
10
-8.9752651282512481
20
-0.011571964731076613
30
0
10
-8.4470999437301657
20
0.096847516176727183
30
0
10
-7.9254523798590508
20
0.27549625545299439
30
0
10
-7.4546345992988252
20
0.52154640116012052
30
0
10
-7.0843091287165567
20
0.82708829030869513
30
0
10
-6.8615417118942457
20
1.182392883155176
30
0
10
-6.8209309869730719
20
1.5798230184670425
30
0
10
-6.9824896828156957
20
2.0150389892836289
30
0
10
-7.2816539050838314
20
2.3916279482449569
30
0
10
-7.6030818263044511
20
2.6897270148789354
30
0
10
-7.8605046337665403
20
2.8954162161333263
30
0
10
-8.0000001192092896
20
3.0000000447034836
30
0
0
SPLINE
5
104
100
AcDbEntity
8
0
100
AcDbSpline
70
4
71
5
72
136
73
130
74
0
42
0.000000001
43
0.0000000001
44
0.0000000001
40
0
40
0
40
0
40
0
40
0
40
0
40
0.0080000000000000002
40
0.016
40
0.024
40
0.032000000000000001
40
0.040000000000000001
40
0.048000000000000001
40
0.056000000000000001
40
0.064000000000000001
40
0.072000000000000008
40
0.080000000000000016
40
0.088000000000000023
40
0.09600000000000003
40
0.10400000000000004
40
0.11200000000000004
40
0.12000000000000005
40
0.12800000000000006
40
0.13600000000000007
40
0.14400000000000007
40
0.15200000000000008
40
0.16000000000000009
40
0.16800000000000009
40
0.1760000000000001
40
0.18400000000000011
40
0.19200000000000012
40
0.20000000000000012
40
0.20800000000000013
40
0.21600000000000014
40
0.22400000000000014
40
0.23200000000000015
40
0.24000000000000016
40
0.24800000000000016
40
0.25600000000000017
40
0.26400000000000018
40
0.27200000000000019
40
0.28000000000000019
40
0.2880000000000002
40
0.29600000000000021
40
0.30400000000000021
40
0.31200000000000022
40
0.32000000000000023
40
0.32800000000000024
40
0.33600000000000024
40
0.34400000000000025
40
0.35200000000000026
40
0.36000000000000026
40
0.36800000000000027
40
0.37600000000000028
40
0.38400000000000029
40
0.39200000000000029
40
0.4000000000000003
40
0.40800000000000031
40
0.41600000000000031
40
0.42400000000000032
40
0.43200000000000033
40
0.44000000000000034
40
0.44800000000000034
40
0.45600000000000035
40
0.46400000000000036
40
0.47200000000000036
40
0.48000000000000037
40
0.48800000000000038
40
0.49600000000000039
40
0.50400000000000034
40
0.51200000000000034
40
0.52000000000000035
40
0.52800000000000036
40
0.53600000000000037
40
0.54400000000000037
40
0.55200000000000038
40
0.56000000000000039
40
0.56800000000000039
40
0.5760000000000004
40
0.58400000000000041
40
0.59200000000000041
40
0.60000000000000042
40
0.60800000000000043
40
0.61600000000000044
40
0.62400000000000044
40
0.63200000000000045
40
0.64000000000000046
40
0.64800000000000046
40
0.65600000000000047
40
0.66400000000000048
40
0.67200000000000049
40
0.68000000000000049
40
0.6880000000000005
40
0.69600000000000051
40
0.70400000000000051
40
0.71200000000000052
40
0.72000000000000053
40
0.72800000000000054
40
0.73600000000000054
40
0.74400000000000055
40
0.75200000000000056
40
0.76000000000000056
40
0.76800000000000057
40
0.77600000000000058
40
0.78400000000000059
40
0.79200000000000059
40
0.8000000000000006
40
0.80800000000000061
40
0.81600000000000061
40
0.82400000000000062
40
0.83200000000000063
40
0.84000000000000064
40
0.84800000000000064
40
0.85600000000000065
40
0.86400000000000066
40
0.87200000000000066
40
0.88000000000000067
40
0.88800000000000068
40
0.89600000000000068
40
0.90400000000000069
40
0.9120000000000007
40
0.92000000000000071
40
0.92800000000000071
40
0.93600000000000072
40
0.94400000000000073
40
0.95200000000000073
40
0.96000000000000074
40
0.96800000000000075
40
0.97600000000000076
40
0.98400000000000076
40
0.99200000000000077
40
1
40
1
40
1
40
1
40
1
40
1
41
1
41
1
41
1
41
1
41
1
41
1
41
1
41
1
41
1
41
1
41
1
41
1
41
1
41
1
41
1
41
1
41
1
41
1
41
1
41
1
41
1
41
1
41
1
41
1
41
1
41
1
41
1
41
1
41
1
41
1
41
1
41
1
41
1
41
1
41
1
41
1
41
1
41
1
41
1
41
1
41
1
41
1
41
1
41
1
41
1
41
1
41
1
41
1
41
1
41
1
41
1
41
1
41
1
41
1
41
1
41
1
41
1
41
1
41
1
41
1
41
1
41
1
41
1
41
1
41
1
41
1
41
1
41
1
41
1
41
1
41
1
41
1
41
1
41
1
41
1
41
1
41
1
41
1
41
1
41
1
41
1
41
1
41
1
41
1
41
1
41
1
41
1
41
1
41
1
41
1
41
1
41
1
41
1
41
1
41
1
41
1
41
1
41
1
41
1
41
1
41
1
41
1
41
1
41
1
41
1
41
1
41
1
41
1
41
1
41
1
41
1
41
1
41
1
41
1
41
1
41
1
41
1
41
1
41
1
41
1
41
1
41
1
41
1
41
1
41
1
41
1
41
1
41
1
41
1
41
1
10
-8.0000001192092896
20
3.0000000447034836
30
0
10
-8.1186809375761353
20
2.9883057202907146
30
0
10
-8.3536400658824412
20
2.9684460936510937
30
0
10
-8.6988761880057766
20
2.9492375860489739
30
0
10
-9.144741398421468
20
2.9448435184953512
30
0
10
-9.6807679381899696
20
2.9708085531508939
30
0
10
-10.203033466714132
20
3.0174910812506739
30
0
10
-10.728149959600842
20
3.0615216829337473
30
0
10
-11.278260056976974
20
3.0707957818622083
30
0
10
-11.862984512205442
20
3.026177504717217
30
0
10
-12.467211757675678
20
2.9361728665798186
30
0
10
-13.030665471300802
20
2.8613058509178
30
0
10
-13.47009945538767
20
2.8886348405380597
30
0
10
-13.709275230664906
20
3.0973229607558346
30
0
10
-13.712937208526423
20
3.5192215384802377
30
0
10
-13.490715590660452
20
4.1358845301423255
30
0
10
-13.078168440035011
20
4.9032835342964418
30
0
10
-12.52495873284194
20
5.7677511226418652
30
0
10
-11.879375968631791
20
6.6867443072556867
30
0
10
-11.185883473382152
20
7.6283139343658535
30
0
10
-10.483209626418688
20
8.5694322670906971
30
0
10
-9.8022633072374781
20
9.4946894422790411
30
0
10
-9.164152418426383
20
10.394841698838825
30
0
10
-8.5780753409710577
20
11.265422467192669
30
0
10
-8.0394479128236274
20
12.105337430567939
30
0
10
-7.5274193922013577
20
12.915445120966991
30
0
10
-7.0115893719342033
20
13.697511887404996
30
0
10
-6.4595604386728436
20
14.453184865843937
30
0
10
-5.8440197936627767
20
15.182987708663745
30
0
10
-5.1504001061997577
20
15.885240338226529
30
0
10
-4.383407979713648
20
16.555165239859207
30
0
10
-3.5763739383980035
20
17.183507287332898
30
0
10
-2.7796975466173537
20
17.75877687317416
30
0
10
-2.0452717935601421
20
18.270175362753779
30
0
10
-1.4118090090004394
20
18.710398803109896
30
0
10
-0.89088018945646985
20
19.078238653348031
30
0
10
-0.45001908537184748
20
19.38188273861951
30
0
10
-0.0051525911430409122
20
19.64002148937745
30
0
10
0.53575523609226006
20
19.870574728861961
30
0
10
1.2400226504581855
20
20.082302280256869
30
0
10
2.1044448430964833
20
20.26264392850241
30
0
10
3.0448681064603833
20
20.376068309732073
30
0
10
3.9434983840198354
20
20.379710254611627
30
0
10
4.6849698086452447
20
20.235630459436742
30
0
10
5.1932832668667057
20
19.923357824636135
30
0
10
5.4770898340894743
20
19.454883873939412
30
0
10
5.6423673855347189
20
18.880119954549176
30
0
10
5.8243760947538856
20
18.269658815952962
30
0
10
6.1419141957865762
20
17.702859818033222
30
0
10
6.6296082537148706
20
17.252287075360677
30
0
10
7.2313362846765008
20
16.975658861401591
30
0
10
7.851366923429536
20
16.913668640063563
30
0
10
8.3868217646491559
20
17.086735790970774
30
0
10
8.7751049904303038
20
17.491020975028412
30
0
10
8.9939800600871376
20
18.101210712652932
30
0
10
9.0437812814825929
20
18.876398402653233
30
0
10
8.9357265439305387
20
19.764910363822302
30
0
10
8.6765175832459267
20
20.709662958431373
30
0
10
8.2696083349940928
20
21.65211687335529
30
0
10
7.7179406830223982
20
22.536198304191192
30
0
10
7.0261432540458557
20
23.312160389519935
30
0
10
6.2030601538278436
20
23.940621504425231
30
0
10
5.2638944120516227
20
24.396182632882883
30
0
10
4.233161379995277
20
24.67214469064654
30
0
10
3.1421597398355927
20
24.777452996052325
30
0
10
2.0251890957904553
20
24.731856526629219
30
0
10
0.91622244574793288
20
24.561708241003583
30
0
10
-0.15466609392758129
20
24.295446050095503
30
0
10
-1.1646440630750619
20
23.959337584348219
30
0
10
-2.1018649501094817
20
23.572812696612949
30
0
10
-2.9681557474014348
20
23.144854798712071
30
0
10
-3.7753258308002668
20
22.676733424832129
30
0
10
-4.5422074738242317
20
22.164012895961505
30
0
10
-5.2914063877262727
20
21.598845103895229
30
0
10
-6.0462034830012259
20
20.972122077334554
30
0
10
-6.8273314541546535
20
20.275729570961936
30
0
10
-7.6499781678025522
20
19.504638934652576
30
0
10
-8.5238483744337614
20
18.656919781620125
30
0
10
-9.4530478824248299
20
17.733870840238648
30
0
10
-10.436042222289617
20
16.740103402232155
30
0
10
-11.465558475469376
20
15.683656278210465
30
0
10
-12.528561462424781
20
14.57607591162423
30
0
10
-13.606073281763422
20
13.432566227136441
30
0
10
-14.67334349272075
20
12.271985649041286
30
0
10
-15.699144808031269
20
11.117225474755081
30
0
10
-16.648926854088838
20
9.9939082562424257
30
0
10
-17.49018287231733
20
8.9281214144286203
30
0
10
-18.197154107269128
20
7.9444424498587205
30
0
10
-18.755777463854891
20
7.0638524643535847
30
0
10
-19.168610503370669
20
6.3016743112904479
30
0
10
-19.45959378852131
20
5.6655487836681351
30
0
10
-19.67932147836294
20
5.153269027765476
30
0
10
-19.908808937854616
20
4.7510438815046632
30
0
10
-20.232101674558432
20
4.4410147505447686
30
0
10
-20.71273595138836
20
4.207555559858978
30
0
10
-21.363919182717691
20
4.0456232006874053
30
0
10
-22.157686843290669
20
3.9562900819163875
30
0
10
-23.043159156370177
20
3.9393303983708661
30
0
10
-23.96184320832554
20
3.9866618464471424
30
0
10
-24.863822273111744
20
4.0757599804829905
30
0
10
-25.72450037681196
20
4.1621806214232011
30
0
10
-26.534100608057262
20
4.1977648833649059
30
0
10
-27.286010691064764
20
4.1496989729809473
30
0
10
-27.965240593437279
20
4.019880668005519
30
0
10
-28.537562654915135
20
3.8627496313954435
30
0
10
-28.936305809573177
20
3.8077792894205849
30
0
10
-29.086363157032654
20
4.0083572181787543
30
0
10
-28.936075343006387
20
4.5745497946628753
30
0
10
-28.475739896771259
20
5.5339822214071308
30
0
10
-27.726594313092225
20
6.85531633217657
30
0
10
-26.735325724819717
20
8.459991017835339
30
0
10
-25.566400569387568
20
10.238602543377366
30
0
10
-24.295351109802596
20
12.065238909789727
30
0
10
-23.001615853970215
20
13.812800307756156
30
0
10
-21.761668799780583
20
15.367624406975409
30
0
10
-20.641805663325474
20
16.645037549191326
30
0
10
-19.691582869560506
20
17.603067689675932
30
0
10
-18.935747946424947
20
18.260446452166931
30
0
10
-18.370571960985338
20
18.702093682712619
30
0
10
-17.975410137339736
20
19.041940373165449
30
0
10
-17.72219301118804
20
19.390970759348946
30
0
10
-17.584951460920443
20
19.826585019275903
30
0
10
-17.55128421110653
20
20.352885596331362
30
0
10
-17.620354547610692
20
20.919190091669503
30
0
10
-17.79693525331491
20
21.45443668716096
30
0
10
-18.086060319139868
20
21.901195917654313
30
0
10
-18.40907887304812
20
22.166907508518161
30
0
10
-18.703299395442219
20
22.310307789136793
30
0
10
-18.922528699083948
20
22.38112043354981
30
0
10
-19.037914334177341
20
22.410327164140888
30
0
0
SPLINE
5
105
100
AcDbEntity
8
0
100
AcDbSpline
70
6
71
5
72
606
73
600
74
0
42
0.000000001
43
0.0000000001
44
0.0000000001
40
0
40
0
40
0
40
0
40
0
40
0
40
0.0016806722689075631
40
0.0033613445378151263
40
0.0050420168067226894
40
0.0067226890756302525
40
0.0084033613445378165
40
0.01008403361344538
40
0.011764705882352944
40
0.013445378151260508
40
0.015126050420168072
40
0.016806722689075636
40
0.0184873949579832
40
0.020168067226890764
40
0.021848739495798328
40
0.023529411764705892
40
0.025210084033613456
40
0.02689075630252102
40
0.028571428571428584
40
0.030252100840336148
40
0.031932773109243709
40
0.033613445378151273
40
0.035294117647058837
40
0.036974789915966401
40
0.038655462184873965
40
0.040336134453781529
40
0.042016806722689093
40
0.043697478991596657
40
0.045378151260504221
40
0.047058823529411785
40
0.048739495798319349
40
0.050420168067226913
40
0.052100840336134477
40
0.053781512605042041
40
0.055462184873949605
40
0.057142857142857169
40
0.058823529411764733
40
0.060504201680672297
40
0.062184873949579861
40
0.063865546218487418
40
0.065546218487394975
40
0.067226890756302532
40
0.068907563025210089
40
0.070588235294117646
40
0.072268907563025203
40
0.07394957983193276
40
0.075630252100840317
40
0.077310924369747874
40
0.078991596638655431
40
0.080672268907562988
40
0.082352941176470545
40
0.084033613445378103
40
0.08571428571428566
40
0.087394957983193217
40
0.089075630252100774
40
0.090756302521008331
40
0.092436974789915888
40
0.094117647058823445
40
0.095798319327731002
40
0.097478991596638559
40
0.099159663865546116
40
0.10084033613445367
40
0.10252100840336123
40
0.10420168067226879
40
0.10588235294117634
40
0.1075630252100839
40
0.10924369747899146
40
0.11092436974789902
40
0.11260504201680657
40
0.11428571428571413
40
0.11596638655462169
40
0.11764705882352924
40
0.1193277310924368
40
0.12100840336134436
40
0.12268907563025191
40
0.12436974789915947
40
0.12605042016806703
40
0.12773109243697459
40
0.12941176470588214
40
0.1310924369747897
40
0.13277310924369726
40
0.13445378151260481
40
0.13613445378151237
40
0.13781512605041993
40
0.13949579831932749
40
0.14117647058823504
40
0.1428571428571426
40
0.14453781512605016
40
0.14621848739495771
40
0.14789915966386527
40
0.14957983193277283
40
0.15126050420168038
40
0.15294117647058794
40
0.1546218487394955
40
0.15630252100840306
40
0.15798319327731061
40
0.15966386554621817
40
0.16134453781512573
40
0.16302521008403328
40
0.16470588235294084
40
0.1663865546218484
40
0.16806722689075596
40
0.16974789915966351
40
0.17142857142857107
40
0.17310924369747863
40
0.17478991596638618
40
0.17647058823529374
40
0.1781512605042013
40
0.17983193277310885
40
0.18151260504201641
40
0.18319327731092397
40
0.18487394957983153
40
0.18655462184873908
40
0.18823529411764664
40
0.1899159663865542
40
0.19159663865546175
40
0.19327731092436931
40
0.19495798319327687
40
0.19663865546218443
40
0.19831932773109198
40
0.19999999999999954
40
0.2016806722689071
40
0.20336134453781465
40
0.20504201680672221
40
0.20672268907562977
40
0.20840336134453732
40
0.21008403361344488
40
0.21176470588235244
40
0.21344537815126
40
0.21512605042016755
40
0.21680672268907511
40
0.21848739495798267
40
0.22016806722689022
40
0.22184873949579778
40
0.22352941176470534
40
0.2252100840336129
40
0.22689075630252045
40
0.22857142857142801
40
0.23025210084033557
40
0.23193277310924312
40
0.23361344537815068
40
0.23529411764705824
40
0.23697478991596579
40
0.23865546218487335
40
0.24033613445378091
40
0.24201680672268847
40
0.24369747899159602
40
0.24537815126050358
40
0.24705882352941114
40
0.24873949579831869
40
0.25042016806722628
40
0.25210084033613384
40
0.25378151260504139
40
0.25546218487394895
40
0.25714285714285651
40
0.25882352941176406
40
0.26050420168067162
40
0.26218487394957918
40
0.26386554621848674
40
0.26554621848739429
40
0.26722689075630185
40
0.26890756302520941
40
0.27058823529411696
40
0.27226890756302452
40
0.27394957983193208
40
0.27563025210083963
40
0.27731092436974719
40
0.27899159663865475
40
0.28067226890756231
40
0.28235294117646986
40
0.28403361344537742
40
0.28571428571428498
40
0.28739495798319253
40
0.28907563025210009
40
0.29075630252100765
40
0.2924369747899152
40
0.29411764705882276
40
0.29579831932773032
40
0.29747899159663788
40
0.29915966386554543
40
0.30084033613445299
40
0.30252100840336055
40
0.3042016806722681
40
0.30588235294117566
40
0.30756302521008322
40
0.30924369747899078
40
0.31092436974789833
40
0.31260504201680589
40
0.31428571428571345
40
0.315966386554621
40
0.31764705882352856
40
0.31932773109243612
40
0.32100840336134367
40
0.32268907563025123
40
0.32436974789915879
40
0.32605042016806635
40
0.3277310924369739
40
0.32941176470588146
40
0.33109243697478902
40
0.33277310924369657
40
0.33445378151260413
40
0.33613445378151169
40
0.33781512605041925
40
0.3394957983193268
40
0.34117647058823436
40
0.34285714285714192
40
0.34453781512604947
40
0.34621848739495703
40
0.34789915966386459
40
0.34957983193277214
40
0.3512605042016797
40
0.35294117647058726
40
0.35462184873949482
40
0.35630252100840237
40
0.35798319327730993
40
0.35966386554621749
40
0.36134453781512504
40
0.3630252100840326
40
0.36470588235294016
40
0.36638655462184772
40
0.36806722689075527
40
0.36974789915966283
40
0.37142857142857039
40
0.37310924369747794
40
0.3747899159663855
40
0.37647058823529306
40
0.37815126050420061
40
0.37983193277310817
40
0.38151260504201573
40
0.38319327731092329
40
0.38487394957983084
40
0.3865546218487384
40
0.38823529411764596
40
0.38991596638655351
40
0.39159663865546107
40
0.39327731092436863
40
0.39495798319327619
40
0.39663865546218374
40
0.3983193277310913
40
0.39999999999999886
40
0.40168067226890641
40
0.40336134453781397
40
0.40504201680672153
40
0.40672268907562908
40
0.40840336134453664
40
0.4100840336134442
40
0.41176470588235176
40
0.41344537815125931
40
0.41512605042016687
40
0.41680672268907443
40
0.41848739495798198
40
0.42016806722688954
40
0.4218487394957971
40
0.42352941176470466
40
0.42521008403361221
40
0.42689075630251977
40
0.42857142857142733
40
0.43025210084033488
40
0.43193277310924244
40
0.43361344537815
40
0.43529411764705755
40
0.43697478991596511
40
0.43865546218487267
40
0.44033613445378023
40
0.44201680672268778
40
0.44369747899159534
40
0.4453781512605029
40
0.44705882352941045
40
0.44873949579831801
40
0.45042016806722557
40
0.45210084033613313
40
0.45378151260504068
40
0.45546218487394824
40
0.4571428571428558
40
0.45882352941176335
40
0.46050420168067091
40
0.46218487394957847
40
0.46386554621848602
40
0.46554621848739358
40
0.46722689075630114
40
0.4689075630252087
40
0.47058823529411625
40
0.47226890756302381
40
0.47394957983193137
40
0.47563025210083892
40
0.47731092436974648
40
0.47899159663865404
40
0.4806722689075616
40
0.48235294117646915
40
0.48403361344537671
40
0.48571428571428427
40
0.48739495798319182
40
0.48907563025209938
40
0.49075630252100694
40
0.49243697478991449
40
0.49411764705882205
40
0.49579831932772961
40
0.49747899159663717
40
0.49915966386554472
40
0.50084033613445234
40
0.50252100840335989
40
0.50420168067226745
40
0.50588235294117501
40
0.50756302521008256
40
0.50924369747899012
40
0.51092436974789768
40
0.51260504201680523
40
0.51428571428571279
40
0.51596638655462035
40
0.51764705882352791
40
0.51932773109243546
40
0.52100840336134302
40
0.52268907563025058
40
0.52436974789915813
40
0.52605042016806569
40
0.52773109243697325
40
0.52941176470588081
40
0.53109243697478836
40
0.53277310924369592
40
0.53445378151260348
40
0.53613445378151103
40
0.53781512605041859
40
0.53949579831932615
40
0.5411764705882337
40
0.54285714285714126
40
0.54453781512604882
40
0.54621848739495638
40
0.54789915966386393
40
0.54957983193277149
40
0.55126050420167905
40
0.5529411764705866
40
0.55462184873949416
40
0.55630252100840172
40
0.55798319327730928
40
0.55966386554621683
40
0.56134453781512439
40
0.56302521008403195
40
0.5647058823529395
40
0.56638655462184706
40
0.56806722689075462
40
0.56974789915966217
40
0.57142857142856973
40
0.57310924369747729
40
0.57478991596638485
40
0.5764705882352924
40
0.57815126050419996
40
0.57983193277310752
40
0.58151260504201507
40
0.58319327731092263
40
0.58487394957983019
40
0.58655462184873775
40
0.5882352941176453
40
0.58991596638655286
40
0.59159663865546042
40
0.59327731092436797
40
0.59495798319327553
40
0.59663865546218309
40
0.59831932773109064
40
0.5999999999999982
40
0.60168067226890576
40
0.60336134453781332
40
0.60504201680672087
40
0.60672268907562843
40
0.60840336134453599
40
0.61008403361344354
40
0.6117647058823511
40
0.61344537815125866
40
0.61512605042016621
40
0.61680672268907377
40
0.61848739495798133
40
0.62016806722688889
40
0.62184873949579644
40
0.623529411764704
40
0.62521008403361156
40
0.62689075630251911
40
0.62857142857142667
40
0.63025210084033423
40
0.63193277310924179
40
0.63361344537814934
40
0.6352941176470569
40
0.63697478991596446
40
0.63865546218487201
40
0.64033613445377957
40
0.64201680672268713
40
0.64369747899159468
40
0.64537815126050224
40
0.6470588235294098
40
0.64873949579831736
40
0.65042016806722491
40
0.65210084033613247
40
0.65378151260504003
40
0.65546218487394758
40
0.65714285714285514
40
0.6588235294117627
40
0.66050420168067026
40
0.66218487394957781
40
0.66386554621848537
40
0.66554621848739293
40
0.66722689075630048
40
0.66890756302520804
40
0.6705882352941156
40
0.67226890756302315
40
0.67394957983193071
40
0.67563025210083827
40
0.67731092436974583
40
0.67899159663865338
40
0.68067226890756094
40
0.6823529411764685
40
0.68403361344537605
40
0.68571428571428361
40
0.68739495798319117
40
0.68907563025209873
40
0.69075630252100628
40
0.69243697478991384
40
0.6941176470588214
40
0.69579831932772895
40
0.69747899159663651
40
0.69915966386554407
40
0.70084033613445162
40
0.70252100840335918
40
0.70420168067226674
40
0.7058823529411743
40
0.70756302521008185
40
0.70924369747898941
40
0.71092436974789697
40
0.71260504201680452
40
0.71428571428571208
40
0.71596638655461964
40
0.7176470588235272
40
0.71932773109243475
40
0.72100840336134231
40
0.72268907563024987
40
0.72436974789915742
40
0.72605042016806498
40
0.72773109243697254
40
0.72941176470588009
40
0.73109243697478765
40
0.73277310924369521
40
0.73445378151260277
40
0.73613445378151032
40
0.73781512605041788
40
0.73949579831932544
40
0.74117647058823299
40
0.74285714285714055
40
0.74453781512604811
40
0.74621848739495567
40
0.74789915966386322
40
0.74957983193277078
40
0.75126050420167834
40
0.75294117647058589
40
0.75462184873949345
40
0.75630252100840101
40
0.75798319327730856
40
0.75966386554621612
40
0.76134453781512368
40
0.76302521008403124
40
0.76470588235293879
40
0.76638655462184635
40
0.76806722689075391
40
0.76974789915966146
40
0.77142857142856902
40
0.77310924369747658
40
0.77478991596638414
40
0.77647058823529169
40
0.77815126050419925
40
0.77983193277310681
40
0.78151260504201436
40
0.78319327731092192
40
0.78487394957982948
40
0.78655462184873703
40
0.78823529411764459
40
0.78991596638655215
40
0.79159663865545971
40
0.79327731092436726
40
0.79495798319327482
40
0.79663865546218238
40
0.79831932773108993
40
0.79999999999999749
40
0.80168067226890505
40
0.80336134453781261
40
0.80504201680672016
40
0.80672268907562772
40
0.80840336134453528
40
0.81008403361344283
40
0.81176470588235039
40
0.81344537815125795
40
0.8151260504201655
40
0.81680672268907306
40
0.81848739495798062
40
0.82016806722688818
40
0.82184873949579573
40
0.82352941176470329
40
0.82521008403361085
40
0.8268907563025184
40
0.82857142857142596
40
0.83025210084033352
40
0.83193277310924107
40
0.83361344537814863
40
0.83529411764705619
40
0.83697478991596375
40
0.8386554621848713
40
0.84033613445377886
40
0.84201680672268642
40
0.84369747899159397
40
0.84537815126050153
40
0.84705882352940909
40
0.84873949579831665
40
0.8504201680672242
40
0.85210084033613176
40
0.85378151260503932
40
0.85546218487394687
40
0.85714285714285443
40
0.85882352941176199
40
0.86050420168066954
40
0.8621848739495771
40
0.86386554621848466
40
0.86554621848739222
40
0.86722689075629977
40
0.86890756302520733
40
0.87058823529411489
40
0.87226890756302244
40
0.87394957983193
40
0.87563025210083756
40
0.87731092436974512
40
0.87899159663865267
40
0.88067226890756023
40
0.88235294117646779
40
0.88403361344537534
40
0.8857142857142829
40
0.88739495798319046
40
0.88907563025209801
40
0.89075630252100557
40
0.89243697478991313
40
0.89411764705882069
40
0.89579831932772824
40
0.8974789915966358
40
0.89915966386554336
40
0.90084033613445091
40
0.90252100840335847
40
0.90420168067226603
40
0.90588235294117359
40
0.90756302521008114
40
0.9092436974789887
40
0.91092436974789626
40
0.91260504201680381
40
0.91428571428571137
40
0.91596638655461893
40
0.91764705882352648
40
0.91932773109243404
40
0.9210084033613416
40
0.92268907563024916
40
0.92436974789915671
40
0.92605042016806427
40
0.92773109243697183
40
0.92941176470587938
40
0.93109243697478694
40
0.9327731092436945
40
0.93445378151260206
40
0.93613445378150961
40
0.93781512605041717
40
0.93949579831932473
40
0.94117647058823228
40
0.94285714285713984
40
0.9445378151260474
40
0.94621848739495495
40
0.94789915966386251
40
0.94957983193277007
40
0.95126050420167763
40
0.95294117647058518
40
0.95462184873949274
40
0.9563025210084003
40
0.95798319327730785
40
0.95966386554621541
40
0.96134453781512297
40
0.96302521008403053
40
0.96470588235293808
40
0.96638655462184564
40
0.9680672268907532
40
0.96974789915966075
40
0.97142857142856831
40
0.97310924369747587
40
0.97478991596638342
40
0.97647058823529098
40
0.97815126050419854
40
0.9798319327731061
40
0.98151260504201365
40
0.98319327731092121
40
0.98487394957982877
40
0.98655462184873632
40
0.98823529411764388
40
0.98991596638655144
40
0.991596638655459
40
0.99327731092436655
40
0.99495798319327411
40
0.99663865546218167
40
0.99831932773108922
40
1
40
1
40
1
40
1
40
1
40
1
41
1
41
1
41
1
41
1
41
1
41
1
41
1
41
1
41
1
41
1
41
1
41
1
41
1
41
1
41
1
41
1
41
1
41
1
41
1
41
1
41
1
41
1
41
1
41
1
41
1
41
1
41
1
41
1
41
1
41
1
41
1
41
1
41
1
41
1
41
1
41
1
41
1
41
1
41
1
41
1
41
1
41
1
41
1
41
1
41
1
41
1
41
1
41
1
41
1
41
1
41
1
41
1
41
1
41
1
41
1
41
1
41
1
41
1
41
1
41
1
41
1
41
1
41
1
41
1
41
1
41
1
41
1
41
1
41
1
41
1
41
1
41
1
41
1
41
1
41
1
41
1
41
1
41
1
41
1
41
1
41
1
41
1
41
1
41
1
41
1
41
1
41
1
41
1
41
1
41
1
41
1
41
1
41
1
41
1
41
1
41
1
41
1
41
1
41
1
41
1
41
1
41
1
41
1
41
1
41
1
41
1
41
1
41
1
41
1
41
1
41
1
41
1
41
1
41
1
41
1
41
1
41
1
41
1
41
1
41
1
41
1
41
1
41
1
41
1
41
1
41
1
41
1
41
1
41
1
41
1
41
1
41
1
41
1
41
1
41
1
41
1
41
1
41
1
41
1
41
1
41
1
41
1
41
1
41
1
41
1
41
1
41
1
41
1
41
1
41
1
41
1
41
1
41
1
41
1
41
1
41
1
41
1
41
1
41
1
41
1
41
1
41
1
41
1
41
1
41
1
41
1
41
1
41
1
41
1
41
1
41
1
41
1
41
1
41
1
41
1
41
1
41
1
41
1
41
1
41
1
41
1
41
1
41
1
41
1
41
1
41
1
41
1
41
1
41
1
41
1
41
1
41
1
41
1
41
1
41
1
41
1
41
1
41
1
41
1
41
1
41
1
41
1
41
1
41
1
41
1
41
1
41
1
41
1
41
1
41
1
41
1
41
1
41
1
41
1
41
1
41
1
41
1
41
1
41
1
41
1
41
1
41
1
41
1
41
1
41
1
41
1
41
1
41
1
41
1
41
1
41
1
41
1
41
1
41
1
41
1
41
1
41
1
41
1
41
1
41
1
41
1
41
1
41
1
41
1
41
1
41
1
41
1
41
1
41
1
41
1
41
1
41
1
41
1
41
1
41
1
41
1
41
1
41
1
41
1
41
1
41
1
41
1
41
1
41
1
41
1
41
1
41
1
41
1
41
1
41
1
41
1
41
1
41
1
41
1
41
1
41
1
41
1
41
1
41
1
41
1
41
1
41
1
41
1
41
1
41
1
41
1
41
1
41
1
41
1
41
1
41
1
41
1
41
1
41
1
41
1
41
1
41
1
41
1
41
1
41
1
41
1
41
1
41
1
41
1
41
1
41
1
41
1
41
1
41
1
41
1
41
1
41
1
41
1
41
1
41
1
41
1
41
1
41
1
41
1
41
1
41
1
41
1
41
1
41
1
41
1
41
1
41
1
41
1
41
1
41
1
41
1
41
1
41
1
41
1
41
1
41
1
41
1
41
1
41
1
41
1
41
1
41
1
41
1
41
1
41
1
41
1
41
1
41
1
41
1
41
1
41
1
41
1
41
1
41
1
41
1
41
1
41
1
41
1
41
1
41
1
41
1
41
1
41
1
41
1
41
1
41
1
41
1
41
1
41
1
41
1
41
1
41
1
41
1
41
1
41
1
41
1
41
1
41
1
41
1
41
1
41
1
41
1
41
1
41
1
41
1
41
1
41
1
41
1
41
1
41
1
41
1
41
1
41
1
41
1
41
1
41
1
41
1
41
1
41
1
41
1
41
1
41
1
41
1
41
1
41
1
41
1
41
1
41
1
41
1
41
1
41
1
41
1
41
1
41
1
41
1
41
1
41
1
41
1
41
1
41
1
41
1
41
1
41
1
41
1
41
1
41
1
41
1
41
1
41
1
41
1
41
1
41
1
41
1
41
1
41
1
41
1
41
1
41
1
41
1
41
1
41
1
41
1
41
1
41
1
41
1
41
1
41
1
41
1
41
1
41
1
41
1
41
1
41
1
41
1
41
1
41
1
41
1
41
1
41
1
41
1
41
1
41
1
41
1
41
1
41
1
41
1
41
1
41
1
41
1
41
1
41
1
41
1
41
1
41
1
41
1
41
1
41
1
41
1
41
1
41
1
41
1
41
1
41
1
41
1
41
1
41
1
41
1
41
1
41
1
41
1
41
1
41
1
41
1
41
1
41
1
41
1
41
1
41
1
41
1
41
1
41
1
41
1
41
1
41
1
41
1
41
1
41
1
41
1
41
1
41
1
41
1
41
1
41
1
41
1
41
1
41
1
41
1
41
1
41
1
41
1
41
1
41
1
41
1
41
1
41
1
41
1
41
1
41
1
41
1
41
1
41
1
41
1
41
1
41
1
41
1
41
1
41
1
41
1
41
1
41
1
41
1
41
1
41
1
41
1
41
1
41
1
41
1
41
1
41
1
41
1
41
1
41
1
41
1
41
1
41
1
41
1
41
1
41
1
41
1
41
1
41
1
41
1
41
1
41
1
41
1
41
1
41
1
41
1
41
1
41
1
41
1
41
1
41
1
41
1
41
1
41
1
41
1
41
1
41
1
41
1
41
1
41
1
41
1
41
1
41
1
41
1
41
1
41
1
41
1
41
1
41
1
41
1
41
1
41
1
41
1
41
1
41
1
41
1
41
1
41
1
10
81.456493471382018
20
22.734715959723481
30
0
10
81.331532647787483
20
22.658604535299528
30
0
10
81.081553162253357
20
22.523813539716706
30
0
10
80.705909558710005
20
22.378752632056752
30
0
10
80.200593054297627
20
22.307833426915376
30
0
10
79.550539927144371
20
22.402766048535206
30
0
10
78.870190484100974
20
22.633474310755936
30
0
10
78.149115240464354
20
22.939265008732978
30
0
10
77.380529206834595
20
23.260068708245875
30
0
10
76.563954762535616
20
23.552054169483814
30
0
10
75.704322756186627
20
23.78759430056634
30
0
10
74.810325947229117
20
23.951945625948767
30
0
10
73.893028654996854
20
24.041059495556176
30
0
10
72.964372516236637
20
24.058921536859831
30
0
10
72.035718470418772
20
24.015086396861243
30
0
10
71.11639303915365
20
23.922146249941502
30
0
10
70.212178365409642
20
23.793179578772911
30
0
10
69.325633032813855
20
23.640802310682506
30
0
10
68.456485584451201
20
23.476286116333199
30
0
10
67.602002198715198
20
23.308657521477322
30
0
10
66.757363224840944
20
23.143791932441118
30
0
10
65.91604056419763
20
22.983540378582905
30
0
10
65.070163466014534
20
22.824769288989074
30
0
10
64.210921769236649
20
22.658648311292811
30
0
10
63.329350253463168
20
22.472363151425924
30
0
10
62.417078157002379
20
22.25062687639312
30
0
10
61.467099924692697
20
21.97727945035497
30
0
10
60.474518947007496
20
21.636823792850581
30
0
10
59.437344696967919
20
21.216049298068711
30
0
10
58.357169211549802
20
20.705476912826946
30
0
10
57.240140872089363
20
20.101234585075662
30
0
10
56.09668393882793
20
19.405124397162162
30
0
10
54.940398794202039
20
18.623509492189815
30
0
10
53.78720756794776
20
17.766554276254116
30
0
10
52.654398101585016
20
16.847318602526123
30
0
10
51.559712399873931
20
15.880915103892562
30
0
10
50.520413934097007
20
14.883638272555299
30
0
10
49.552368728108746
20
13.872108333948541
30
0
10
48.669109612869157
20
12.862402719373877
30
0
10
47.880933011633644
20
11.869206944516108
30
0
10
47.193921278902771
20
10.904923558764796
30
0
10
46.609173647809222
20
9.9788972432704064
30
0
10
46.123593826188824
20
9.0975041285883247
30
0
10
45.730525926023702
20
8.2641572254715481
30
0
10
45.420446204350327
20
7.4793421148279187
30
0
10
45.181636252928101
20
6.740643955460679
30
0
10
45.000851946385097
20
6.0427683178599336
30
0
10
44.864022856157469
20
5.3775878616744137
30
0
10
44.75686237143443
20
4.7341152282940762
30
0
10
44.666814710823843
20
4.0996643576153318
30
0
10
44.58504386672702
20
3.4610896190377201
30
0
10
44.508516706368759
20
2.8060164300661365
30
0
10
44.441797209481244
20
2.1240307337661033
30
0
10
44.399618529479277
20
1.4080032228573194
30
0
10
44.403333286251524
20
0.654334435206811
30
0
10
44.476099927823931
20
-0.13700747862990589
30
0
10
44.638596713692806
20
-0.96239162127468958
30
0
10
44.904312714134747
20
-1.8144206578217488
30
0
10
45.275491277664287
20
-2.6819069678853058
30
0
10
45.737566716233502
20
-3.5496159393253137
30
0
10
46.263401430308342
20
-4.3995895096349393
30
0
10
46.819943873795609
20
-5.2128612604040434
30
0
10
47.37414446492788
20
-5.9710549064270761
30
0
10
47.899003395231716
20
-6.6579946618728512
30
0
10
48.379976044221365
20
-7.2613961263369955
30
0
10
48.820252440884175
20
-7.7743216598173426
30
0
10
49.249032376669504
20
-8.1972562127791999
30
0
10
49.712054551433894
20
-8.5365092724986908
30
0
10
50.256680778415046
20
-8.8014809264440963
30
0
10
50.918587831009987
20
-9.0022795604903916
30
0
10
51.708254624933339
20
-9.1472533320996376
30
0
10
52.596270477438026
20
-9.2403955242700349
30
0
10
53.525844003320493
20
-9.2820837029412058
30
0
10
54.427465355099102
20
-9.270031078913032
30
0
10
55.232289904813371
20
-9.2002095175704959
30
0
10
55.887175911459295
20
-9.0676732075484114
30
0
10
56.36641076056128
20
-8.8676846645169753
30
0
10
56.691462193715445
20
-8.5960585778393046
30
0
10
56.910828355030617
20
-8.2532078027214411
30
0
10
57.069137095191394
20
-7.8486437855502054
30
0
10
57.171318215675228
20
-7.4070934759943752
30
0
10
57.176692083734238
20
-6.9680660586530454
30
0
10
57.042578083590676
20
-6.5747164841983476
30
0
10
56.75961976898283
20
-6.2649685998136961
30
0
10
56.381358455327572
20
-6.0623886505357074
30
0
10
55.977160594232842
20
-5.9733792852006227
30
0
10
55.592583228372867
20
-5.983398641982248
30
0
10
55.209353116644976
20
-6.0540532909805203
30
0
10
54.78224297539402
20
-6.1350667944379307
30
0
10
54.270024325501815
20
-6.1751985966870571
30
0
10
53.673834927294415
20
-6.1346860246654513
30
0
10
53.028754966685156
20
-5.9875143738426706
30
0
10
52.386194944106151
20
-5.7217241332168207
30
0
10
51.799590684516431
20
-5.3403137302148931
30
0
10
51.308363192619922
20
-4.8620749875281541
30
0
10
50.923592368869564
20
-4.3219611013235815
30
0
10
50.636809700097828
20
-3.7610067378868299
30
0
10
50.428158608761407
20
-3.216215845747401
30
0
10
50.274310774361908
20
-2.7114347430169632
30
0
10
50.157609799666062
20
-2.2455042826944225
30
0
10
50.07099312150666
20
-1.7892000743886352
30
0
10
50.012597023463258
20
-1.30405851410729
30
0
10
49.982790660563182
20
-0.75537088847860867
30
0
10
49.979422170774619
20
-0.13077462134708762
30
0
10
49.996872045925883
20
0.55571769690223982
30
0
10
50.028935989951826
20
1.2754651377019164
30
0
10
50.070860474874976
20
1.993138746163984
30
0
10
50.121466134438535
20
2.6757261562036301
30
0
10
50.185841155671696
20
3.3022253970703934
30
0
10
50.275883564062951
20
3.8694336827519842
30
0
10
50.404391610922247
20
4.3851435439640998
30
0
10
50.580085443046052
20
4.863482733346058
30
0
10
50.802707720318423
20
5.3196256275088789
30
0
10
51.056915128011724
20
5.7641979544037101
30
0
10
51.320498567508402
20
6.2044737578367393
30
0
10
51.574882894532038
20
6.6466544131844421
30
0
10
51.814310497385236
20
7.0976491395782482
30
0
10
52.056905043953208
20
7.5673552529415486
30
0
10
52.33511815748416
20
8.0663367936973724
30
0
10
52.683685945087745
20
8.6029350547303665
30
0
10
53.129321069051024
20
9.180830857455236
30
0
10
53.677684754632637
20
9.7958292133799709
30
0
10
54.308070970400877
20
10.434909849763354
30
0
10
54.984469945523891
20
11.080111585062324
30
0
10
55.66338899308181
20
11.711465912263419
30
0
10
56.302749767223375
20
12.310230525159014
30
0
10
56.870819942360384
20
12.862175703483558
30
0
10
57.353972458088947
20
13.360424076821879
30
0
10
57.76791396770971
20
13.809568181405421
30
0
10
58.150259100016648
20
14.222954507780571
30
0
10
58.545648955166371
20
14.617239740977642
30
0
10
58.99335341724796
20
15.007854324036005
30
0
10
59.513692844894933
20
15.404037650177614
30
0
10
60.095378378580747
20
15.804198369828368
30
0
10
60.707817164087245
20
16.199542728084971
30
0
10
61.312708788620121
20
16.577500259446886
30
0
10
61.876445277881359
20
16.925345432939125
30
0
10
62.380926589854973
20
17.233457068144194
30
0
10
62.838262862286399
20
17.499451311332599
30
0
10
63.283261858888693
20
17.727396106562658
30
0
10
63.757676903240665
20
17.925310680648508
30
0
10
64.298447464481853
20
18.103323185185253
30
0
10
64.921235940652025
20
18.271334412039817
30
0
10
65.619152848086287
20
18.437842124918827
30
0
10
66.372332993953606
20
18.609511453481204
30
0
10
67.154332590737241
20
18.790541520795777
30
0
10
67.939938736991422
20
18.982099297061637
30
0
10
68.712127234382962
20
19.181762692279257
30
0
10
69.470052257081505
20
19.382856645383001
30
0
10
70.224900914210295
20
19.575654926218462
30
0
10
70.99477392470105
20
19.748747870937027
30
0
10
71.799991509245373
20
19.890329379242328
30
0
10
72.658046126778601
20
19.989564595901641
30
0
10
73.579112714193144
20
20.037814170577551
30
0
10
74.560293846413515
20
20.030194960484998
30
0
10
75.585465375114339
20
19.965642693832027
30
0
10
76.628224417603775
20
19.846148877572137
30
0
10
77.653847630650063
20
19.676252850328659
30
0
10
78.62173154632525
20
19.462427339711343
30
0
10
79.487459710969418
20
19.212511630805576
30
0
10
80.205417857550415
20
18.935119858892865
30
0
10
80.730237441498616
20
18.639070698488268
30
0
10
81.021758667444757
20
18.332773269958174
30
0
10
81.063039743898429
20
18.023461126194597
30
0
10
80.874638053281899
20
17.716472623181943
30
0
10
80.533949103279312
20
17.414461152423325
30
0
10
80.139810026179305
20
17.117610650000977
30
0
10
79.778014501429723
20
16.823948811763
30
0
10
79.47630434732794
20
16.529580320736773
30
0
10
79.208451693114398
20
16.229158563033316
30
0
10
78.929115439369539
20
15.916523207339672
30
0
10
78.602947749960649
20
15.585253000041954
30
0
10
78.225560930469015
20
15.229366728799821
30
0
10
77.808995079209978
20
14.844458813809361
30
0
10
77.37441622277224
20
14.428674551314952
30
0
10
76.941292601483838
20
13.983926593418932
30
0
10
76.519958090699419
20
13.516484226498111
30
0
10
76.114192228665814
20
13.034714561564172
30
0
10
75.722642463734942
20
12.54713742084679
30
0
10
75.340627016453638
20
12.060492638525051
30
0
10
74.961918928567016
20
11.577482362729963
30
0
10
74.580054138415889
20
11.095734474574448
30
0
10
74.188534487223762
20
10.609155002183879
30
0
10
73.781287237626941
20
10.108753619217033
30
0
10
73.353003143029056
20
9.5836903232005142
30
0
10
72.899570661736973
20
9.0222033957539747
30
0
10
72.418302547692946
20
8.4126772192355919
30
0
10
71.907940749315841
20
7.7448024202246568
30
0
10
71.368720687916721
20
7.0107323534855919
30
0
10
70.802403469395017
20
6.2062039193591652
30
0
10
70.212340320842017
20
5.3317588211531035
30
0
10
69.603479944361609
20
4.3937224611180712
30
0
10
68.982510074680349
20
3.4057921587959705
30
0
10
68.357381537944178
20
2.3877849441986077
30
0
10
67.736517198966212
20
1.3629332945522143
30
0
10
67.12812058508915
20
0.35563873075645619
30
0
10
66.539440527624407
20
-0.61097294846015437
30
0
10
65.976060687050861
20
-1.5173920458878134
30
0
10
65.441164338079759
20
-2.3501551505667266
30
0
10
64.934842363895783
20
-3.1041324067984917
30
0
10
64.453304898246401
20
-3.7851251453237333
30
0
10
63.98836076958542
20
-4.4116057778490134
30
0
10
63.529030238169426
20
-5.0096486066098755
30
0
10
63.062962378176209
20
-5.6084758284955711
30
0
10
62.577919908275071
20
-6.2358080056876117
30
0
10
62.063252037332575
20
-6.9132066635571041
30
0
10
61.511333175798285
20
-7.6516343427752602
30
0
10
60.919122020162568
20
-8.446346630679356
30
0
10
60.288141910296815
20
-9.2802780890074192
30
0
10
59.624288621410251
20
-10.128299690040043
30
0
10
58.937715703161082
20
-10.961181561953923
30
0
10
58.242651976595525
20
-11.749640869431328
30
0
10
57.557329724602738
20
-12.468443475226902
30
0
10
56.90367578299621
20
-13.100272153977318
30
0
10
56.307554580135282
20
-13.640196012291137
30
0
10
55.797505066164334
20
-14.098438830363722
30
0
10
55.394926578027366
20
-14.492047542721679
30
0
10
55.103910472364618
20
-14.837068349049893
30
0
10
54.903693382790081
20
-15.141784915043267
30
0
10
54.73402413182238
20
-15.39648502840401
30
0
10
54.50563510769561
20
-15.575880698555061
30
0
10
54.141899995075804
20
-15.657367461343025
30
0
10
53.613252896908854
20
-15.6355398717455
30
0
10
52.926926369057142
20
-15.518531222755445
30
0
10
52.114705822680207
20
-15.323397917750484
30
0
10
51.221221898213265
20
-15.07179309160756
30
0
10
50.292649014285175
20
-14.785758993102629
30
0
10
49.363581348556281
20
-14.482839857633197
30
0
10
48.456091018370969
20
-14.175833270549692
30
0
10
47.582338169461096
20
-13.873897708368654
30
0
10
46.745987083776299
20
-13.583205848807893
30
0
10
45.944117130819933
20
-13.307781873941851
30
0
10
45.168932466029105
20
-13.050273944931872
30
0
10
44.409531602408052
20
-12.812721157225814
30
0
10
43.653720046842317
20
-12.59740950900718
30
0
10
42.889326821857246
20
-12.407076905199547
30
0
10
42.105390834561774
20
-12.244938742490238
30
0
10
41.293358934617601
20
-12.114766423081187
30
0
10
40.448352439776336
20
-12.020961219723358
30
0
10
39.570233817920972
20
-11.968589425353329
30
0
10
38.66518036778055
20
-11.963534686806074
30
0
10
37.745390351675496
20
-12.012206430657464
30
0
10
36.826882992242119
20
-12.120795127358212
30
0
10
35.927791298724188
20
-12.294641458073007
30
0
10
35.066497197105036
20
-12.537576563961323
30
0
10
34.25973413299613
20
-12.851234131483162
30
0
10
33.520937867822326
20
-13.234469396084748
30
0
10
32.857898715839717
20
-13.682492527828014
30
0
10
32.273623142838041
20
-14.187301585446315
30
0
10
31.769011243471805
20
-14.73884656470544
30
0
10
31.344943312112239
20
-15.325960419897131
30
0
10
31.004679672018042
20
-15.937403496314314
30
0
10
30.755965917479941
20
-16.562819770263218
30
0
10
30.613696514847135
20
-17.193837424890347
30
0
10
30.595754765877867
20
-17.823492601409502
30
0
10
30.71814697733145
20
-18.445485617513672
30
0
10
30.99048800781809
20
-19.053513080690699
30
0
10
31.411110647641713
20
-19.64053102042238
30
0
10
31.962985498581386
20
-20.198152913921529
30
0
10
32.619086167535421
20
-20.71757288523667
30
0
10
33.34716503870051
20
-21.190396212502417
30
0
10
34.114695623053933
20
-21.609491929612304
30
0
10
34.893872467200474
20
-21.969865539595613
30
0
10
35.66628480459125
20
-22.269453852970091
30
0
10
36.428531949253397
20
-22.510137545512421
30
0
10
37.188784868897564
20
-22.696663996216131
30
0
10
37.961937002258459
20
-22.835238034899913
30
0
10
38.765342385373607
20
-22.932263089833874
30
0
10
39.614103750306413
20
-22.992943987233829
30
0
10
40.51702657052158
20
-23.020124017974659
30
0
10
41.471104455162589
20
-23.012583894752595
30
0
10
42.461881238051532
20
-22.965512306346877
30
0
10
43.467967395177062
20
-22.872513381122378
30
0
10
44.46435509999511
20
-22.727170799203865
30
0
10
45.426186027936282
20
-22.524776327812969
30
0
10
46.332422423311897
20
-22.264030024346098
30
0
10
47.169333248781633
20
-21.948654644928038
30
0
10
47.934602966308304
20
-21.589281811747071
30
0
10
48.639522892249502
20
-21.204511772661633
30
0
10
49.301996421482315
20
-20.818123124080103
30
0
10
49.940979348012313
20
-20.456809993075183
30
0
10
50.5699954025743
20
-20.147712437964262
30
0
10
51.191884161788323
20
-19.916038572989375
30
0
10
51.790989385187828
20
-19.782640413593839
30
0
10
52.333221086535161
20
-19.761587715477361
30
0
10
52.786948545233081
20
-19.857062856066737
30
0
10
53.137498585835999
20
-20.061053517673407
30
0
10
53.40925323220246
20
-20.349269977179265
30
0
10
53.667545676580701
20
-20.682707065582314
30
0
10
53.985400013017511
20
-21.019393760539277
30
0
10
54.417503129171656
20
-21.324054959544871
30
0
10
54.972484828316368
20
-21.578199323614278
30
0
10
55.62750840383454
20
-21.775772277967253
30
0
10
56.341106223155279
20
-21.919393013133831
30
0
10
57.066519187103843
20
-22.016404944799039
30
0
10
57.765250018214559
20
-22.074909775390786
30
0
10
58.419297070466349
20
-22.100084618078967
30
0
10
59.026203781334814
20
-22.094452544156514
30
0
10
59.595298873709758
20
-22.057844897200788
30
0
10
60.143510027731381
20
-21.987539842419999
30
0
10
60.69129586884462
20
-21.878187741988562
30
0
10
61.258736621085021
20
-21.722260661748592
30
0
10
61.862568376951486
20
-21.51193191558496
30
0
10
62.512866813558709
20
-21.240766137668722
30
0
10
63.210236508373576
20
-20.905357671751695
30
0
10
63.941911731331153
20
-20.507291570010278
30
0
10
64.681181180617116
20
-20.0539833609966
30
0
10
65.394550194234554
20
-19.556860144073184
30
0
10
66.047314582887665
20
-19.030075618203476
30
0
10
66.609868857534124
20
-18.489007101070968
30
0
10
67.063466022387303
20
-17.94885827130496
30
0
10
67.406770781944687
20
-17.423186434225265
30
0
10
67.660482912749146
20
-16.922550842503085
30
0
10
67.852039027627171
20
-16.454474155181853
30
0
10
68.001376702502199
20
-16.023248382480165
30
0
10
68.107055620127539
20
-15.629929154420177
30
0
10
68.130179916671352
20
-15.271884698995283
30
0
10
68.019468133253241
20
-14.951291341384591
30
0
10
67.741375341862096
20
-14.685365975213374
30
0
10
67.304249883488254
20
-14.513415815143452
30
0
10
66.744612805120511
20
-14.475369267877143
30
0
10
66.116863179835107
20
-14.595507032486097
30
0
10
65.481506497283561
20
-14.858541945821015
30
0
10
64.894937138592866
20
-15.215226149485318
30
0
10
64.399955551590125
20
-15.604702909392163
30
0
10
64.015509652465127
20
-15.972513143734924
30
0
10
63.728048181775463
20
-16.288774109738416
30
0
10
63.478823735790073
20
-16.570502043969089
30
0
10
63.190134277000929
20
-16.855591322580555
30
0
10
62.793268773082644
20
-17.174598483161937
30
0
10
62.262068738572047
20
-17.515313228849717
30
0
10
61.618311586460379
20
-17.823348403730296
30
0
10
60.914284138558074
20
-18.030846546998525
30
0
10
60.221937539157281
20
-18.078682837817066
30
0
10
59.619413030719485
20
-17.937705162675048
30
0
10
59.178480605776407
20
-17.639423967430716
30
0
10
58.953025642317499
20
-17.261520728948813
30
0
10
58.970355540338275
20
-16.887179443879926
30
0
10
59.218951171784838
20
-16.567182687325584
30
0
10
59.645929893613605
20
-16.296595555754983
30
0
10
60.181252871074136
20
-16.042382850727904
30
0
10
60.75516186084964
20
-15.759595666359452
30
0
10
61.322265352868655
20
-15.415480731497443
30
0
10
61.867337502917223
20
-14.997083397241804
30
0
10
62.393952505628363
20
-14.504699765473712
30
0
10
62.917742570755422
20
-13.949055915612817
30
0
10
63.457704587360368
20
-13.346952859067315
30
0
10
64.028495863907764
20
-12.717611127056237
30
0
10
64.631885921209772
20
-12.078598537373868
30
0
10
65.259872934688616
20
-11.444974934007814
30
0
10
65.898336827609938
20
-10.828521608478276
30
0
10
66.530444898091304
20
-10.236976466281183
30
0
10
67.140288165273745
20
-9.6731916124146462
30
0
10
67.716124833491605
20
-9.1344982663244814
30
0
10
68.25450429158748
20
-8.6115606770799662
30
0
10
68.761652502852129
20
-8.0888505617789406
30
0
10
69.248803870537316
20
-7.5487419347186693
30
0
10
69.728868653098829
20
-6.9747790132837189
30
0
10
70.212365286176976
20
-6.3554535936345875
30
0
10
70.704133012836465
20
-5.6873512756209088
30
0
10
71.198563791750004
20
-4.9795840660903643
30
0
10
71.679774655227064
20
-4.2538740317257631
30
0
10
72.12790091473687
20
-3.5393605982011649
30
0
10
72.523615477353843
20
-2.8687657335887771
30
0
10
72.853825749601924
20
-2.2739843583470485
30
0
10
73.11581235041487
20
-1.7819747212302393
30
0
10
73.324597114972335
20
-1.41038067724093
30
0
10
73.510135460381179
20
-1.1639386989423215
30
0
10
73.703258662571287
20
-1.0333967946882552
30
0
10
73.919628018891459
20
-0.9918386031178843
30
0
10
74.164898416558344
20
-0.99940256986109965
30
0
10
74.479812184389033
20
-1.0157637134216406
30
0
10
74.913927596676729
20
-1.0103199666755824
30
0
10
75.478826814917653
20
-0.97232774154858193
30
0
10
76.100920750371287
20
-0.92262162289312954
30
0
10
76.660959542017849
20
-0.90294842559462174
30
0
10
77.045177434057763
20
-0.9625272333972823
30
0
10
77.19142447362357
20
-1.1460082536968099
30
0
10
77.139727922442788
20
-1.4799192559391352
30
0
10
76.979992410449952
20
-1.9638845901440822
30
0
10
76.782961740895516
20
-2.5559132575933941
30
0
10
76.583746541173156
20
-3.1836241099798324
30
0
10
76.395611040218895
20
-3.7716124341853821
30
0
10
76.214634814524857
20
-4.2634505375223108
30
0
10
76.028252229977483
20
-4.6469755960855998
30
0
10
75.821834351898602
20
-4.9750128526600506
30
0
10
75.582608810114763
20
-5.3255165802823594
30
0
10
75.303020807562234
20
-5.7689489495027075
30
0
10
74.985344889815323
20
-6.3249754882940419
30
0
10
74.640374497212548
20
-6.9655937434708317
30
0
10
74.283531300220531
20
-7.6382180559899338
30
0
10
73.931679919924122
20
-8.2832044972002752
30
0
10
73.599906717106606
20
-8.8519712038483291
30
0
10
73.29768869960742
20
-9.3290349427165591
30
0
10
73.02757304843928
20
-9.7372714307390584
30
0
10
72.787599331807485
20
-10.11726754576366
30
0
10
72.572780202718491
20
-10.51419445434259
30
0
10
72.377028870250385
20
-10.95892254767266
30
0
10
72.194669679603606
20
-11.461313572057318
30
0
10
72.02173047021023
20
-12.018756819852079
30
0
10
71.857175057388943
20
-12.620859101059146
30
0
10
71.704383374393998
20
-13.256143596171571
30
0
10
71.571853090429315
20
-13.916506183033558
30
0
10
71.470688295454849
20
-14.595347296129136
30
0
10
71.412568636074866
20
-15.286565969744119
30
0
10
71.407520661965549
20
-15.983213341034537
30
0
10
71.461796892045072
20
-16.676310619618441
30
0
10
71.575644424661419
20
-17.353543227098132
30
0
10
71.745332457178137
20
-18.001352968393892
30
0
10
71.965238020799546
20
-18.607055173683797
30
0
10
72.229936151938162
20
-19.160996993041948
30
0
10
72.536229608198241
20
-19.65858406502344
30
0
10
72.885361536976987
20
-20.102678282766714
30
0
10
73.282365053466521
20
-20.49944926888411
30
0
10
73.735219560531462
20
-20.853428518030071
30
0
10
74.254021283243375
20
-21.163406303931804
30
0
10
74.85028136768041
20
-21.416641768704533
30
0
10
75.535634454284462
20
-21.589096625367933
30
0
10
76.319932305858458
20
-21.651516840233249
30
0
10
77.209537889558803
20
-21.573856944480259
30
0
10
78.205468894344705
20
-21.330517682242704
30
0
10
79.301763676576485
20
-20.904922149990238
30
0
10
80.483370315852042
20
-20.295131986724932
30
0
10
81.725468368859879
20
-19.516582970876243
30
0
10
82.996487111337416
20
-18.597510476070639
30
0
10
84.26042715746172
20
-17.575749386482507
30
0
10
85.479454978651518
20
-16.494993566246297
30
0
10
86.616388085749847
20
-15.401277132540535
30
0
10
87.637210542113095
20
-14.339381281629873
30
0
10
88.513614253669061
20
-13.34922461979264
30
0
10
89.225439164526975
20
-12.462373275727487
30
0
10
89.763366621204042
20
-11.69823711342536
30
0
10
90.131011478235749
20
-11.06101706722956
30
0
10
90.348554071933904
20
-10.534728900257281
30
0
10
90.446849396361159
20
-10.090020736584083
30
0
10
90.458260579299775
20
-9.694878790491515
30
0
10
90.409312995259199
20
-9.3234350571027882
30
0
10
90.310787359134807
20
-8.9670560033395308
30
0
10
90.161354129979614
20
-8.6340145296609201
30
0
10
89.95470676562536
20
-8.346005642281261
30
0
10
89.685874352412881
20
-8.1359851261992961
30
0
10
89.354013371252762
20
-8.0361558268433768
30
0
10
88.96547528531903
20
-8.0628234337028086
30
0
10
88.534553367446179
20
-8.2089605744722576
30
0
10
88.077587811937292
20
-8.4556770154201129
30
0
10
87.60857395593284
20
-8.7798024169838289
30
0
10
87.133671750873305
20
-9.1636948868421282
30
0
10
86.653180321164754
20
-9.5945075589535289
30
0
10
86.164152700342328
20
-10.062692300110882
30
0
10
85.662824495599409
20
-10.560741287036448
30
0
10
85.147038332277646
20
-11.081865601144145
30
0
10
84.618891038552434
20
-11.6186035256161
30
0
10
84.083471294697972
20
-12.163130203224346
30
0
10
83.547282923571672
20
-12.707705938303162
30
0
10
83.016757247477443
20
-13.245092989942574
30
0
10
82.496783677156373
20
-13.768942753677836
30
0
10
81.989099897824488
20
-14.274297726017702
30
0
10
81.491127787977547
20
-14.757744827753287
30
0
10
80.99872830573149
20
-15.214393020966648
30
0
10
80.508600881178467
20
-15.635203795186358
30
0
10
80.020832424564247
20
-16.004043728830059
30
0
10
79.541350919712727
20
-16.295183214576667
30
0
10
79.084516814123987
20
-16.469759920947318
30
0
10
78.671331924308248
20
-16.489535124310287
30
0
10
78.327065084447824
20
-16.329506349849662
30
0
10
78.079880557752062
20
-15.994860057903598
30
0
10
77.956135328046358
20
-15.521440528645993
30
0
10
77.972434843616441
20
-14.958400488659764
30
0
10
78.128064156697221
20
-14.355165498536582
30
0
10
78.39854618792188
20
-13.747737605011586
30
0
10
78.745687388751719
20
-13.160157464425701
30
0
10
79.126474407536648
20
-12.604530004222891
30
0
10
79.502198465692715
20
-12.081688875823255
30
0
10
79.847976759705318
20
-11.581414842541777
30
0
10
80.160687593389866
20
-11.083337703292885
30
0
10
80.450769935582144
20
-10.563053936442513
30
0
10
80.735131792374816
20
-9.9980570854605837
30
0
10
81.030012636758073
20
-9.3733106938316091
30
0
10
81.342976126520696
20
-8.6879822453496445
30
0
10
81.668111341408164
20
-7.9584520477605949
30
0
10
81.990275538712169
20
-7.2109032433011722
30
0
10
82.287693272873952
20
-6.4759611008007028
30
0
10
82.535145541883509
20
-5.7822493061936209
30
0
10
82.707047020360733
20
-5.1510333208999191
30
0
10
82.780224535082979
20
-4.5888690152125369
30
0
10
82.738189312511025
20
-4.0866232690926987
30
0
10
82.578763416667314
20
-3.6281462273652041
30
0
10
82.319520484043323
20
-3.1960534039538011
30
0
10
82.007214587675193
20
-2.779965902418764
30
0
10
81.714314103569279
20
-2.3791037329090265
30
0
10
81.516187395107224
20
-1.9975345789931991
30
0
10
81.474581584117061
20
-1.6412254566968676
30
0
10
81.614733376239897
20
-1.3142468134386349
30
0
10
81.931421355066078
20
-1.0162674839663028
30
0
10
82.402399307068649
20
-0.74035810049033746
30
0
10
82.999912906435128
20
-0.47037821879346381
30
0
10
83.693413352563297
20
-0.18433764396295113
30
0
10
84.451075550620487
20
0.14181188323845137
30
0
10
85.241785286893787
20
0.53052470635042615
30
0
10
86.036913524597182
20
0.99898464600814174
30
0
10
86.812213527240246
20
1.5553576677725074
30
0
10
87.549577174586091
20
2.1953041230737518
30
0
10
88.236100642909904
20
2.9056186452858062
30
0
10
88.863239441935576
20
3.6676010574134326
30
0
10
89.425927862036048
20
4.4605622049649742
30
0
10
89.921719284890585
20
5.2651955221360431
30
0
10
90.349904344129584
20
6.0671847387291766
30
0
10
90.710669746739185
20
6.8602911163717888
30
0
10
91.004159289742063
20
7.6507460130861453
30
0
10
91.230100430879475
20
8.454083076895639
30
0
10
91.387617348460026
20
9.2895579933095274
30
0
10
91.474973144798042
20
10.175341481949069
30
0
10
91.48936146809605
20
11.123451737203993
30
0
10
91.426631080628283
20
12.134653729690786
30
0
10
91.281147237876127
20
13.193714188912505
30
0
10
91.045305718081977
20
14.263587067343584
30
0
10
90.713381067309967
20
15.293641933543773
30
0
10
90.285724830454996
20
16.229197062859434
30
0
10
89.7729758962939
20
17.020721715618507
30
0
10
89.199957123349265
20
17.632869865122718
30
0
10
88.610422109309127
20
18.054300277961808
30
0
10
88.06975570253249
20
18.305480766058807
30
0
10
87.672936121995633
20
18.4517416159043
30
0
10
87.514505898703703
20
18.577954670934343
30
0
10
87.652300479413469
20
18.756429546388116
30
0
10
88.069753819723758
20
19.014544970076333
30
0
10
88.697524849382432
20
19.344841896409697
30
0
10
89.441540498725303
20
19.719690534574458
30
0
10
90.207315581090853
20
20.103656715291265
30
0
10
90.929065005065041
20
20.468287196861873
30
0
10
91.586580190465014
20
20.801284790119791
30
0
10
92.187450109005496
20
21.100191555331232
30
0
10
92.755578835590228
20
21.368851373273863
30
0
10
93.316857972006119
20
21.612662941921016
30
0
10
93.886892219790894
20
21.834613806055412
30
0
10
94.455599128150936
20
22.030265672108314
30
0
10
94.99780782756963
20
22.19129204843421
30
0
10
95.488894519157526
20
22.310878917122494
30
0
10
95.916604838217609
20
22.387392104694165
30
0
10
96.299400423569224
20
22.431361907321552
30
0
10
96.681290101746299
20
22.460353226092977
30
0
10
97.110623755632233
20
22.486453231522766
30
0
10
97.620638033025941
20
22.502915378983918
30
0
10
98.218650450900071
20
22.480800159759475
30
0
10
98.894054235441175
20
22.383946532978854
30
0
10
99.621795139776509
20
22.180334337590129
30
0
10
100.36774812836509
20
21.853446564593956
30
0
10
101.09310589939534
20
21.417185362380515
30
0
10
101.75988985676059
20
20.915333938948596
30
0
10
102.33720055812078
20
20.404519668885666
30
0
10
102.80719325416862
20
19.941761607333969
30
0
10
103.17138061141574
20
19.569866015982832
30
0
10
103.45628709870381
20
19.304399511031512
30
0
10
103.72084045082828
20
19.118109360478392
30
0
10
104.02489064702742
20
18.974725728261181
30
0
10
104.39164404471539
20
18.870193290580186
30
0
10
104.78029726745504
20
18.861646689386667
30
0
10
105.12231188576922
20
19.022456972401546
30
0
10
105.3562426762778
20
19.3975941156129
30
0
10
105.45041855174367
20
19.977484411241459
30
0
10
105.3926914681211
20
20.719610223611504
30
0
10
105.18700045270349
20
21.560558603891806
30
0
10
104.84743745861364
20
22.430991217374164
30
0
10
104.39281804555114
20
23.271558279927483
30
0
10
103.84324580019631
20
24.039799205189155
30
0
10
103.21945845941335
20
24.706766536074753
30
0
10
102.54138209162433
20
25.256476982826364
30
0
10
101.82702612435455
20
25.6841899945344
30
0
10
101.09119701653293
20
25.99522351201308
30
0
10
100.3443729825029
20
26.203456958749449
30
0
10
99.591287527894195
20
26.330187911303074
30
0
10
98.832374540452491
20
26.400105868985335
30
0
10
98.065571914662385
20
26.436899276542984
30
0
10
97.287985913896108
20
26.459043567202883
30
0
10
96.497641865558421
20
26.475395707361869
30
0
10
95.695132672159602
20
26.481147354471961
30
0
10
94.88548714736234
20
26.452876416716791
30
0
10
94.076928258370401
20
26.357039047361752
30
0
10
93.279359345932392
20
26.159755427106838
30
0
10
92.502973921762901
20
25.835808469240536
30
0
10
91.756755388400691
20
25.378698288000862
30
0
10
91.047159241698367
20
24.808555089597309
30
0
10
90.376375279748359
20
24.185237708873348
30
0
10
89.742451045095152
20
23.598208871942145
30
0
10
89.140442092445682
20
23.143554454657668
30
0
10
88.563245719372617
20
22.904997181801651
30
0
10
88.002565563533807
20
22.933190811494061
30
0
10
87.449820590027514
20
23.225901286870013
30
0
10
86.897077178858922
20
23.707408923633796
30
0
10
86.337527082613988
20
24.257480637709502
30
0
10
85.765942666194164
20
24.740019153841061
30
0
10
85.179186920011261
20
25.033069271203669
30
0
10
84.576593951041076
20
25.055432133838522
30
0
10
83.96067654963943
20
24.801924464831764
30
0
10
83.336130135273265
20
24.333530479899256
30
0
10
82.708157172919528
20
23.749561476870696
30
0
10
82.206441159453036
20
23.282429672521818
30
0
10
81.831318103821189
20
22.980482086260743
30
0
10
81.581454294976808
20
22.810827384147579
30
0
10
81.456493471382018
20
22.734715959723481
30
0
0
SPLINE
5
106
100
AcDbEntity
8
0
100
AcDbSpline
70
6
71
5
72
71
73
65
74
0
42
0.000000001
43
0.0000000001
44
0.0000000001
40
0
40
0
40
0
40
0
40
0
40
0
40
0.016666666666666666
40
0.033333333333333333
40
0.050000000000000003
40
0.066666666666666666
40
0.083333333333333329
40
0.099999999999999992
40
0.11666666666666665
40
0.13333333333333333
40
0.14999999999999999
40
0.16666666666666666
40
0.18333333333333332
40
0.19999999999999998
40
0.21666666666666665
40
0.23333333333333331
40
0.24999999999999997
40
0.26666666666666666
40
0.28333333333333333
40
0.29999999999999999
40
0.31666666666666665
40
0.33333333333333331
40
0.34999999999999998
40
0.36666666666666664
40
0.3833333333333333
40
0.39999999999999997
40
0.41666666666666663
40
0.43333333333333329
40
0.44999999999999996
40
0.46666666666666662
40
0.48333333333333328
40
0.49999999999999994
40
0.51666666666666661
40
0.53333333333333333
40
0.55000000000000004
40
0.56666666666666676
40
0.58333333333333348
40
0.6000000000000002
40
0.61666666666666692
40
0.63333333333333364
40
0.65000000000000036
40
0.66666666666666707
40
0.68333333333333379
40
0.70000000000000051
40
0.71666666666666723
40
0.73333333333333395
40
0.75000000000000067
40
0.76666666666666738
40
0.7833333333333341
40
0.80000000000000082
40
0.81666666666666754
40
0.83333333333333426
40
0.85000000000000098
40
0.8666666666666677
40
0.88333333333333441
40
0.90000000000000113
40
0.91666666666666785
40
0.93333333333333457
40
0.95000000000000129
40
0.96666666666666801
40
0.98333333333333472
40
1
40
1
40
1
40
1
40
1
40
1
41
1
41
1
41
1
41
1
41
1
41
1
41
1
41
1
41
1
41
1
41
1
41
1
41
1
41
1
41
1
41
1
41
1
41
1
41
1
41
1
41
1
41
1
41
1
41
1
41
1
41
1
41
1
41
1
41
1
41
1
41
1
41
1
41
1
41
1
41
1
41
1
41
1
41
1
41
1
41
1
41
1
41
1
41
1
41
1
41
1
41
1
41
1
41
1
41
1
41
1
41
1
41
1
41
1
41
1
41
1
41
1
41
1
41
1
41
1
41
1
41
1
41
1
41
1
41
1
41
1
10
84.00000125169754
20
14.000000208616257
30
0
10
83.943378011045212
20
13.95771496517562
30
0
10
83.835823704461504
20
13.873959362058219
30
0
10
83.690585195967657
20
13.751363189914876
30
0
10
83.515658995832894
20
13.58473739630243
30
0
10
83.272750932548206
20
13.319866421238849
30
0
10
82.952578720887374
20
12.946826510906856
30
0
10
82.532109768570791
20
12.445467291567699
30
0
10
82.036426689521676
20
11.848131651804065
30
0
10
81.515077313193999
20
11.213478494287639
30
0
10
81.025834231384238
20
10.608744729667603
30
0
10
80.612765277518037
20
10.085413081028978
30
0
10
80.293151873323552
20
9.6652629351057389
30
0
10
80.025606085978595
20
9.3042772785865839
30
0
10
79.721621502514608
20
8.9077978602900494
30
0
10
79.356906287184287
20
8.4584798305770388
30
0
10
78.928040440143363
20
7.9627903745676853
30
0
10
78.455472307371764
20
7.4518871140231822
30
0
10
77.967555639581292
20
6.9602841467600731
30
0
10
77.492489638036105
20
6.5136621396890142
30
0
10
77.047577587376026
20
6.1138667879576456
30
0
10
76.6448606477407
20
5.7489125853730219
30
0
10
76.295160223213458
20
5.4008333866619971
30
0
10
76.01308687817351
20
5.0547207258851232
30
0
10
75.820870366543758
20
4.7064531606765403
30
0
10
75.754703875198757
20
4.3730963501461044
30
0
10
75.852593644801303
20
4.0832823709808093
30
0
10
76.140798021733943
20
3.8654018097782257
30
0
10
76.617244635746246
20
3.7341217295663438
30
0
10
77.250975331936672
20
3.6879162003273374
30
0
10
77.994006383752122
20
3.7153139471699701
30
0
10
78.789341843177553
20
3.7984818151304882
30
0
10
79.580896593704736
20
3.9180426228573739
30
0
10
80.321792299151952
20
4.0570085813129566
30
0
10
80.985331856084656
20
4.2059498427492024
30
0
10
81.567732914557851
20
4.3645535842005936
30
0
10
82.079611137346632
20
4.5383198582692081
30
0
10
82.540277686983217
20
4.7364640209125186
30
0
10
82.970836985946832
20
4.9693166771256871
30
0
10
83.387997035253122
20
5.245994609121488
30
0
10
83.797054328706139
20
5.5718111710760185
30
0
10
84.194555545146116
20
5.9484514186195696
30
0
10
84.571592197568236
20
6.3743506228558324
30
0
10
84.916952264309558
20
6.8449617203831101
30
0
10
85.220111653745761
20
7.3531356208335241
30
0
10
85.4748410419176
20
7.8892627127055466
30
0
10
85.679415123103553
20
8.4425494969529282
30
0
10
85.835442303090701
20
9.0026984711886193
30
0
10
85.947157076816609
20
9.5615381722039992
30
0
10
86.020507605606596
20
10.114498067365236
30
0
10
86.062378806063165
20
10.662582663410983
30
0
10
86.079624695203307
20
11.212830562008435
30
0
10
86.077378761174472
20
11.772281263190846
30
0
10
86.057534260617842
20
12.343056339175265
30
0
10
86.017008541841733
20
12.916672257188658
30
0
10
85.946426481916404
20
13.469418649568308
30
0
10
85.827713676376035
20
13.955237442949503
30
0
10
85.641513031292732
20
14.320114676496292
30
0
10
85.377121913129088
20
14.52150057791409
30
0
10
85.040095495151448
20
14.543652628523455
30
0
10
84.6645166875294
20
14.420565910923393
30
0
10
84.372031229233713
20
14.257600948699505
30
0
10
84.175563148375559
20
14.127670822702038
30
0
10
84.056624492349883
20
14.042285452056893
30
0
10
84.00000125169754
20
14.000000208616257
30
0
0
CIRCLE
5
107
100
AcDbEntity
8
0
100
AcDbCircle
10
84.807567164170706
20
21.545625294540429
30
0
40
1.8027756645954451
210
0
220
0
230
1
0
CIRCLE
5
108
100
AcDbEntity
8
0
100
AcDbCircle
10
7.3584043808012956
20
19.276666381142519
30
0
40
1.1849993829678798
210
0
220
0
230
1
0
ENDSEC
0
SECTION
2
OBJECTS
0
DICTIONARY
5
C
100
AcDbDictionary
3
ACAD_GROUP
350
D
3
ACAD_MLINESTYLE
350
17
0
DICTIONARY
5
D
100
AcDbDictionary
0
DICTIONARY
5
1A
330
C
100
AcDbDictionary
0
DICTIONARY
5
17
100
AcDbDictionary
0
ENDSEC
0
EOF
