0
SECTION
2
HEADER
9
$INSUNITS
70
4
9
$ACADVER
1
AC1014
9
$HANDSEED
5
FFFF
0
ENDSEC
0
SECTION
2
TABLES
0
TABLE
2
VPORT
5
8
100
AcDbSymbolTable
0
ENDTAB
0
TABLE
2
LTYPE
5
5
100
AcDbSymbolTable
0
LTYPE
5
14
100
AcDbSymbolTableRecord
100
AcDbLinetypeTableRecord
2
BYBLOCK
70
0
0
LTYPE
5
15
100
AcDbSymbolTableRecord
100
AcDbLinetypeTableRecord
2
BYLAYER
70
0
0
ENDTAB
0
TABLE
2
LAYER
5
2
100
AcDbSymbolTable
70
2
0
LAYER
5
50
100
AcDbSymbolTableRecord
100
AcDbLayerTableRecord
2
0
70
0
6
CONTINUOUS
0
ENDTAB
0
TABLE
2
STYLE
5
3
100
AcDbSymbolTable
70
1
0
STYLE
5
11
100
AcDbSymbolTableRecord
100
AcDbTextStyleTableRecord
2
STANDARD
70
0
0
ENDTAB
0
TABLE
2
VIEW
5
6
100
AcDbSymbolTable
70
0
0
ENDTAB
0
TABLE
2
UCS
5
7
100
AcDbSymbolTable
70
0
0
ENDTAB
0
TABLE
2
APPID
5
9
100
AcDbSymbolTable
70
2
0
APPID
5
12
100
AcDbSymbolTableRecord
100
AcDbRegAppTableRecord
2
ACAD
70
0
0
ENDTAB
0
TABLE
2
DIMSTYLE
5
A
100
AcDbSymbolTable
70
1
0
ENDTAB
0
TABLE
2
BLOCK_RECORD
5
1
100
AcDbSymbolTable
70
1
0
BLOCK_RECORD
5
1F
100
AcDbSymbolTableRecord
100
AcDbBlockTableRecord
2
*MODEL_SPACE
0
BLOCK_RECORD
5
1B
100
AcDbSymbolTableRecord
100
AcDbBlockTableRecord
2
*PAPER_SPACE
0
ENDTAB
0
ENDSEC
0
SECTION
2
BLOCKS
0
BLOCK
5
20
100
AcDbEntity
100
AcDbBlockBegin
2
*MODEL_SPACE
0
ENDBLK
5
21
100
AcDbEntity
100
AcDbBlockEnd
0
BLOCK
5
1C
100
AcDbEntity
100
AcDbBlockBegin
2
*PAPER_SPACE
0
ENDBLK
5
1D
100
AcDbEntity
100
AcDbBlockEnd
0
ENDSEC
0
SECTION
2
ENTITIES
0
CIRCLE
5
100
100
AcDbEntity
8
0
100
AcDbCircle
10
0.019699264462580336
20
-15.020402153526632
30
0
40
20.615528128088304
210
0
220
0
230
1
0
LINE
5
101
100
AcDbEntity
8
0
100
AcDbLine
10
10.548782193030545
20
2.7035481026476056
30
0
11
26.766162676260393
21
24.999409423245453
31
0
0
LINE
5
102
100
AcDbEntity
8
0
100
AcDbLine
10
18.683576180543653
20
-23.775954589631173
30
0
11
50.000166374851041
21
-34.999535588068113
31
0
0
SPLINE
5
103
100
AcDbEntity
8
0
100
AcDbSpline
70
4
71
5
72
36
73
30
74
0
42
0.000000001
43
0.0000000001
44
0.0000000001
40
0
40
0
40
0
40
0
40
0
40
0
40
0.040000000000000001
40
0.080000000000000002
40
0.12
40
0.16
40
0.20000000000000001
40
0.24000000000000002
40
0.28000000000000003
40
0.32000000000000001
40
0.35999999999999999
40
0.39999999999999997
40
0.43999999999999995
40
0.47999999999999993
40
0.51999999999999991
40
0.55999999999999994
40
0.59999999999999998
40
0.64000000000000001
40
0.68000000000000005
40
0.72000000000000008
40
0.76000000000000012
40
0.80000000000000016
40
0.84000000000000019
40
0.88000000000000023
40
0.92000000000000026
40
0.9600000000000003
40
1
40
1
40
1
40
1
40
1
40
1
41
1
41
1
41
1
41
1
41
1
41
1
41
1
41
1
41
1
41
1
41
1
41
1
41
1
41
1
41
1
41
1
41
1
41
1
41
1
41
1
41
1
41
1
41
1
41
1
41
1
41
1
41
1
41
1
41
1
41
1
10
26.766162676260393
20
24.999409423245453
30
0
10
27.932737092018264
20
25.076642674562958
30
0
10
30.223876566969061
20
25.194313668991029
30
0
10
33.534557781956991
20
25.260433940858583
30
0
10
37.696085243715103
20
25.127243297659263
30
0
10
42.47260592248189
20
24.587954013235116
30
0
10
46.817843891561012
20
23.670044608096976
30
0
10
50.725177932085693
20
22.366465894612748
30
0
10
54.188389110432873
20
20.669532176554057
30
0
10
57.202866471215508
20
18.572153449717877
30
0
10
59.767137685109944
20
16.067897277090502
30
0
10
61.883641633930836
20
13.157749203164478
30
0
10
63.559236651860509
20
9.8591156541532854
30
0
10
64.806156060380516
20
6.2153218015054144
30
0
10
65.642749798239777
20
2.3033135421473987
30
0
10
66.095301937407925
20
-1.7522354859254816
30
0
10
66.195631626614755
20
-5.7954786513609591
30
0
10
65.97712410306768
20
-9.6678011098058487
30
0
10
65.471299503049295
20
-13.233698855267921
30
0
10
64.704622650052798
20
-16.404806232473778
30
0
10
63.694507363961449
20
-19.172908797120062
30
0
10
62.448607179040479
20
-21.612079941810215
30
0
10
60.968840562144607
20
-23.835981337927265
30
0
10
59.254022335523722
20
-25.969416526477755
30
0
10
57.303698834942232
20
-28.108614398801134
30
0
10
55.119444188239683
20
-30.307701499094307
30
0
10
53.186582751363893
20
-32.136741583154119
30
0
10
51.633497655409172
20
-33.551465479391737
30
0
10
50.552252571237268
20
-34.513670356328731
30
0
10
50.000166374851041
20
-34.999535588068113
30
0
0
SPLINE
5
104
100
AcDbEntity
8
0
100
AcDbSpline
70
4
71
5
72
46
73
40
74
0
42
0.000000001
43
0.0000000001
44
0.0000000001
40
0
40
0
40
0
40
0
40
0
40
0
40
0.028571428571428571
40
0.057142857142857141
40
0.085714285714285715
40
0.11428571428571428
40
0.14285714285714285
40
0.17142857142857143
40
0.20000000000000001
40
0.22857142857142859
40
0.25714285714285717
40
0.28571428571428575
40
0.31428571428571433
40
0.34285714285714292
40
0.3714285714285715
40
0.40000000000000008
40
0.42857142857142866
40
0.45714285714285724
40
0.48571428571428582
40
0.51428571428571435
40
0.54285714285714293
40
0.57142857142857151
40
0.60000000000000009
40
0.62857142857142867
40
0.65714285714285725
40
0.68571428571428583
40
0.71428571428571441
40
0.74285714285714299
40
0.77142857142857157
40
0.80000000000000016
40
0.82857142857142874
40
0.85714285714285732
40
0.8857142857142859
40
0.91428571428571448
40
0.94285714285714306
40
0.97142857142857164
40
1
40
1
40
1
40
1
40
1
40
1
41
1
41
1
41
1
41
1
41
1
41
1
41
1
41
1
41
1
41
1
41
1
41
1
41
1
41
1
41
1
41
1
41
1
41
1
41
1
41
1
41
1
41
1
41
1
41
1
41
1
41
1
41
1
41
1
41
1
41
1
41
1
41
1
41
1
41
1
41
1
41
1
41
1
41
1
41
1
41
1
10
50.000166374851041
20
-34.999535588068113
30
0
10
50.361901546988733
20
-35.452285143385097
30
0
10
51.05410223834167
20
-36.356098119264246
30
0
10
51.998591557224131
20
-37.706757231511993
30
0
10
53.070061588830356
20
-39.497518740702589
30
0
10
54.098183646664111
20
-41.721487407973406
30
0
10
54.823670555683819
20
-43.93857034078286
30
0
10
55.264848548545459
20
-46.163538845976781
30
0
10
55.455941183946955
20
-48.422463503154574
30
0
10
55.441610242533429
20
-50.748720328302866
30
0
10
55.259980652508176
20
-53.171105341149357
30
0
10
54.93039129879817
20
-55.704944437764169
30
0
10
54.435731492731577
20
-58.340062933226335
30
0
10
53.717749444555949
20
-61.035812594454377
30
0
10
52.704165714998268
20
-63.733475526725407
30
0
10
51.330712537666244
20
-66.365573585159183
30
0
10
49.563320261223829
20
-68.865854154892958
30
0
10
47.424930716248461
20
-71.180127286058749
30
0
10
45.006188833938474
20
-73.273140052552918
30
0
10
42.430402165541722
20
-75.123897953586379
30
0
10
39.827535339838491
20
-76.723254861073983
30
0
10
37.304057945085731
20
-78.070671163519606
30
0
10
34.916036659075253
20
-79.171478416328043
30
0
10
32.636419278624757
20
-80.033813168706445
30
0
10
30.381669657570299
20
-80.668178914662164
30
0
10
28.046243633334296
20
-81.08732379736
30
0
10
25.531432552782654
20
-81.305993867318321
30
0
10
22.782969587858851
20
-81.340901741877744
30
0
10
19.799873475268114
20
-81.210144225069712
30
0
10
16.615321154793474
20
-80.932092949557287
30
0
10
13.285262090581895
20
-80.524444153006712
30
0
10
9.8741171563835959
20
-80.003226225230947
30
0
10
6.441638640345376
20
-79.381817018856026
30
0
10
3.0297822795663909
20
-78.670004345964259
30
0
10
-0.33374605751306585
20
-77.874573063704887
30
0
10
-3.6326549512586395
20
-76.999835090061524
30
0
10
-6.2137551634254748
20
-76.238508191575946
30
0
10
-8.1158477121738759
20
-75.633347666153824
30
0
10
-9.368936774346885
20
-75.214742916344235
30
0
10
-9.9917381628577591
20
-75.001649439383641
30
0
0
SPLINE
5
105
100
AcDbEntity
8
0
100
AcDbSpline
70
4
71
5
72
46
73
40
74
0
42
0.000000001
43
0.0000000001
44
0.0000000001
40
0
40
0
40
0
40
0
40
0
40
0
40
0.028571428571428571
40
0.057142857142857141
40
0.085714285714285715
40
0.11428571428571428
40
0.14285714285714285
40
0.17142857142857143
40
0.20000000000000001
40
0.22857142857142859
40
0.25714285714285717
40
0.28571428571428575
40
0.31428571428571433
40
0.34285714285714292
40
0.3714285714285715
40
0.40000000000000008
40
0.42857142857142866
40
0.45714285714285724
40
0.48571428571428582
40
0.51428571428571435
40
0.54285714285714293
40
0.57142857142857151
40
0.60000000000000009
40
0.62857142857142867
40
0.65714285714285725
40
0.68571428571428583
40
0.71428571428571441
40
0.74285714285714299
40
0.77142857142857157
40
0.80000000000000016
40
0.82857142857142874
40
0.85714285714285732
40
0.8857142857142859
40
0.91428571428571448
40
0.94285714285714306
40
0.97142857142857164
40
1
40
1
40
1
40
1
40
1
40
1
41
1
41
1
41
1
41
1
41
1
41
1
41
1
41
1
41
1
41
1
41
1
41
1
41
1
41
1
41
1
41
1
41
1
41
1
41
1
41
1
41
1
41
1
41
1
41
1
41
1
41
1
41
1
41
1
41
1
41
1
41
1
41
1
41
1
41
1
41
1
41
1
41
1
41
1
41
1
41
1
10
26.766162676260393
20
24.999409423245453
30
0
10
26.743153204457705
20
25.564642848087779
30
0
10
26.667029679754744
20
26.684727903373457
30
0
10
26.462531372042257
20
28.333710154393749
30
0
10
26.008994403796969
20
30.469979216188502
30
0
10
25.142681458460864
20
33.035427150129337
30
0
10
23.985489500810896
20
35.494018511098467
30
0
10
22.556532853239439
20
37.842461656067393
30
0
10
20.889009636789101
20
40.075811352283026
30
0
10
19.035633598711424
20
42.187257483861842
30
0
10
17.060144902289757
20
44.167164212501213
30
0
10
15.026398998189507
20
46.002108271699655
30
0
10
12.987708567991314
20
47.673637524223089
30
0
10
10.977434350472326
20
49.157758853189961
30
0
10
8.9954650440607509
20
50.422537198967973
30
0
10
7.012866505590349
20
51.434094429721718
30
0
10
4.9880470975965565
20
52.168487003729069
30
0
10
2.8786460466531825
20
52.620658894362087
30
0
10
0.65674889727232344
20
52.817468525071369
30
0
10
-1.682236537331911
20
52.820572380780447
30
0
10
-4.1265987471596617
20
52.70247855123722
30
0
10
-6.6525545885839996
20
52.526372692544989
30
0
10
-9.2292435414127532
20
52.326859620463921
30
0
10
-11.823962207051766
20
52.084164136915653
30
0
10
-14.403884899015054
20
51.733394904456709
30
0
10
-16.936040964499274
20
51.189256536415087
30
0
10
-19.387847294388724
20
50.366493397255319
30
0
10
-21.727439003186788
20
49.200300262742722
30
0
10
-23.924038081468719
20
47.671443264166093
30
0
10
-25.948678995523153
20
45.801502487278576
30
0
10
-27.775073687449002
20
43.637655776496288
30
0
10
-29.380519954095668
20
41.240705825637562
30
0
10
-30.746699196223275
20
38.67279652756509
30
0
10
-31.86090059208745
20
35.983074048643772
30
0
10
-32.715773131378512
20
33.203375977113524
30
0
10
-33.307745613097786
20
30.35333094271687
30
0
10
-33.570242509928413
20
28.0248733999397
30
0
10
-33.648554114184691
20
26.252858785035642
30
0
10
-33.648138515444337
20
25.060118260461948
30
0
10
-33.63477485416783
20
24.460898812264258
30
0
0
SPLINE
5
106
100
AcDbEntity
8
0
100
AcDbSpline
70
4
71
5
72
41
73
35
74
0
42
0.000000001
43
0.0000000001
44
0.0000000001
40
0
40
0
40
0
40
0
40
0
40
0
40
0.033333333333333333
40
0.066666666666666666
40
0.10000000000000001
40
0.13333333333333333
40
0.16666666666666666
40
0.19999999999999998
40
0.23333333333333331
40
0.26666666666666666
40
0.29999999999999999
40
0.33333333333333331
40
0.36666666666666664
40
0.39999999999999997
40
0.43333333333333329
40
0.46666666666666662
40
0.49999999999999994
40
0.53333333333333333
40
0.56666666666666665
40
0.59999999999999998
40
0.6333333333333333
40
0.66666666666666663
40
0.69999999999999996
40
0.73333333333333328
40
0.76666666666666661
40
0.79999999999999993
40
0.83333333333333326
40
0.86666666666666659
40
0.89999999999999991
40
0.93333333333333324
40
0.96666666666666656
40
1
40
1
40
1
40
1
40
1
40
1
41
1
41
1
41
1
41
1
41
1
41
1
41
1
41
1
41
1
41
1
41
1
41
1
41
1
41
1
41
1
41
1
41
1
41
1
41
1
41
1
41
1
41
1
41
1
41
1
41
1
41
1
41
1
41
1
41
1
41
1
41
1
41
1
41
1
41
1
41
1
10
-59.134014388088559
20
-30.282129191546634
30
0
10
-59.726970772109155
20
-29.957640255885664
30
0
10
-60.872603083526528
20
-29.275991541567812
30
0
10
-62.47021097433776
20
-28.155508003607252
30
0
10
-64.358229149551661
20
-26.465136089546505
30
0
10
-66.314654033383306
20
-24.02940204789433
30
0
10
-67.871641963568351
20
-21.287864992852974
30
0
10
-69.041164305816736
20
-18.277892959676752
30
0
10
-69.845925775202943
20
-15.063301674871868
30
0
10
-70.324265898208822
20
-11.745627476277527
30
0
10
-70.528976350739242
20
-8.4587617075179296
30
0
10
-70.516807559568889
20
-5.338157402885102
30
0
10
-70.340323036494652
20
-2.4962782137160513
30
0
10
-70.038758642425933
20
0.0049329700058529337
30
0
10
-69.629461391538456
20
2.1799618628435207
30
0
10
-69.098422551090891
20
4.1489307820829353
30
0
10
-68.413745196069613
20
6.0813428711183946
30
0
10
-67.539740643094362
20
8.1374194079705511
30
0
10
-66.450690839218097
20
10.41075030586339
30
0
10
-65.145050173773058
20
12.869002263843548
30
0
10
-63.637850473519741
20
15.395094621213708
30
0
10
-61.953022326127282
20
17.828829171537681
30
0
10
-60.115816795155723
20
20.008236440123216
30
0
10
-58.145376913310741
20
21.810247031624176
30
0
10
-56.046908370832391
20
23.19381960564527
30
0
10
-53.815438800363282
20
24.17871781986317
30
0
10
-51.44017088485397
20
24.8212639306226
30
0
10
-48.908307532865685
20
25.193035631542529
30
0
10
-46.209790186045552
20
25.355147218696359
30
0
10
-43.339180506368542
20
25.347013311289196
30
0
10
-40.293906106225997
20
25.193454722826424
30
0
10
-37.717559652435718
20
24.964396081369419
30
0
10
-35.706683907314854
20
24.735008789938814
30
0
10
-34.331223937800445
20
24.556527936464235
30
0
10
-33.63477485416783
20
24.460898812264258
30
0
0
LWPOLYLINE
5
107
100
AcDbEntity
8
0
100
AcDbPolyline
90
4
70
1
43
0.0
10
-9.9917381628577591
20
-75.001649439383641
10
-9.4395912144656986
20
-72.236342731584557
42
-0.29548865828260451
10
-56.057899612334808
20
-29.800284995065311
0
LINE
5
108
100
AcDbEntity
8
0
100
AcDbLine
10
-70.332931765238712
20
-6.8719936421567906
30
0
11
-18.993550376984704
21
7.2847400627988321
31
0
0
LINE
5
109
100
AcDbEntity
8
0
100
AcDbLine
10
-23.494339059280485
20
12.564780746922198
30
0
11
-69.849172256069181
21
-0.21747357246300569
31
0
0
LINE
5
110
100
AcDbEntity
8
0
100
AcDbLine
10
-29.370065038660712
20
19.457810926704653
30
0
11
-66.814349114228108
21
9.1326230476041488
31
0
0
LINE
5
111
100
AcDbEntity
8
0
100
AcDbLine
10
-32.902055569074385
20
23.601318878962037
30
0
11
-63.475187033642484
21
15.170837853152188
31
0
0
LINE
5
112
100
AcDbEntity
8
0
100
AcDbLine
10
-15.506260795504389
20
-1.4577857313051992
30
0
11
-69.477721015504684
21
-16.340310010745771
31
0
0
LINE
5
113
100
AcDbEntity
8
0
100
AcDbLine
10
-20.050297973093208
20
-10.309222801761013
30
0
11
-66.65779612987707
21
-23.161148988210115
31
0
0
LINE
5
114
100
AcDbEntity
8
0
100
AcDbLine
10
-19.866989082791669
20
-20.453598871774762
30
0
11
-50.744327211060181
21
-28.967964288335452
31
0
0
CIRCLE
5
115
100
AcDbEntity
8
0
100
AcDbCircle
10
-10
20
35
30
0
40
7.0710678118654755
210
0
220
0
230
1
0
CIRCLE
5
116
100
AcDbEntity
8
0
100
AcDbCircle
10
5
20
25
30
0
40
5
210
0
220
0
230
1
0
CIRCLE
5
117
100
AcDbEntity
8
0
100
AcDbCircle
10
-10
20
12.157515846242211
30
0
40
5.4456289468514329
210
0
220
0
230
1
0
CIRCLE
5
118
100
AcDbEntity
8
0
100
AcDbCircle
10
10
20
40
30
0
40
5.3005073607705935
210
0
220
0
230
1
0
ARC
5
119
100
AcDbEntity
8
0
100
AcDbCircle
10
23.129118673660329
20
24.999409423245453
30
0
40
6.3756380363695904
210
0
220
-0
230
1
100
AcDbArc
50
64.81047523877713
51
261.44184783048854
0
ARC
5
120
100
AcDbEntity
8
0
100
AcDbCircle
10
-14.706198390463815
20
51.62909908696011
30
0
40
5.8130857852428939
210
0
220
0
230
1
100
AcDbArc
50
-162.51070582430756
51
7.0362968649447168
0
ARC
5
121
100
AcDbEntity
8
0
100
AcDbCircle
10
-25
20
20
30
0
40
4.9999999999999991
210
0
220
0
230
1
100
AcDbArc
50
-96.904406338828608
51
177.79398439535456
0
ARC
5
122
100
AcDbEntity
8
0
100
AcDbCircle
10
13.881606780690364
20
7.2855578106385472
30
0
40
5.6434214052534459
210
0
220
-0
230
1
100
AcDbArc
50
53.968914586256403
51
233.96891458625637
0
ARC
5
123
100
AcDbEntity
8
0
100
AcDbCircle
10
-27.778131254210265
20
36.702082775751251
30
0
40
4.2621832784381377
210
0
220
0
230
1
100
AcDbArc
50
-165.65440063684048
51
117.26815677830025
0
LINE
5
124
100
AcDbEntity
8
0
100
AcDbLine
10
-13.353903264393148
20
0.66866268158013542
30
0
11
-29.370065038660712
21
19.457810926704653
31
0
0
LINE
5
125
100
AcDbEntity
8
0
100
AcDbLine
10
-32.902055569074385
20
23.601318878962037
30
0
11
-33.63477485416783
21
24.460898812264258
31
0
0
LINE
5
126
100
AcDbEntity
8
0
100
AcDbLine
10
-29.996294402430195
20
20.192463617976742
30
0
11
-32.902055569074385
21
23.601318878962037
31
0
0
LINE
5
127
100
AcDbEntity
8
0
100
AcDbLine
10
-29.370065038660712
20
19.457810926704653
30
0
11
-29.996294402430195
21
20.192463617976742
31
0
0
LINE
5
128
100
AcDbEntity
8
0
100
AcDbLine
10
15.396034389442876
20
9.3676121830908095
30
0
11
55.777244771919939
21
-29.623737162252027
31
0
0
LINE
5
129
100
AcDbEntity
8
0
100
AcDbLine
10
61.054109068059304
20
-23.614125996260466
30
0
11
20.140898954267897
21
15.890912443065242
31
0
0
LINE
5
130
100
AcDbEntity
8
0
100
AcDbLine
10
26.065204496959772
20
24.035723187149149
30
0
11
65.269976217718607
21
-13.819678760680109
31
0
0
LINE
5
131
100
AcDbEntity
8
0
100
AcDbLine
10
38.6808492410863
20
24.946916874752493
30
0
11
65.982982578780579
21
-1.4155177516527684
31
0
0
LINE
5
132
100
AcDbEntity
8
0
100
AcDbLine
10
17.354095294778361
20
-3.8616067765976125
30
0
11
49.366900318580008
21
-34.772578795134422
31
0
0
LINE
5
133
100
AcDbEntity
8
0
100
AcDbLine
10
20.583859866131768
20
-16.474808819063036
30
0
11
33.72996306649592
21
-29.168442753269176
31
0
0
LINE
5
134
100
AcDbEntity
8
0
100
AcDbLine
10
17.354095294778361
20
-3.8616067765976125
30
0
11
44.378120379086226
21
24.125699655030523
31
0
0
LINE
5
135
100
AcDbEntity
8
0
100
AcDbLine
10
55
20
20
30
0
11
20.627131486238049
21
-15.598102097208619
31
0
0
LINE
5
136
100
AcDbEntity
8
0
100
AcDbLine
10
62.5097994667981
20
11.765699561549861
30
0
11
25.747073196103173
21
-26.307447654312291
31
0
0
LINE
5
137
100
AcDbEntity
8
0
100
AcDbLine
10
65.756311803761974
20
0.82041114949111482
30
0
11
36.010453123466725
21
-29.985749641143403
31
0
0
LINE
5
138
100
AcDbEntity
8
0
100
AcDbLine
10
44.478911629960891
20
-33.020768121438131
30
0
11
65.745777177212446
21
-10.99583730323878
31
0
0
LINE
5
139
100
AcDbEntity
8
0
100
AcDbLine
10
32.519898206074011
20
24.999409423245453
30
0
11
10.562010348113496
21
2.7217343388009585
31
0
0
LINE
5
140
100
AcDbEntity
8
0
100
AcDbLine
10
-18.571874078661871
20
-23.92845472562254
30
0
11
-31.613315908008058
21
-25.971272863863
31
0
0
LINE
5
141
100
AcDbEntity
8
0
100
AcDbLine
10
-46.752255284833282
20
-28.342644093929795
30
0
11
-56.057899612334808
21
-29.800284995065311
31
0
0
LWPOLYLINE
5
142
100
AcDbEntity
8
0
100
AcDbPolyline
90
4
70
1
43
0.0
10
-39.121333183231684
20
-27.147332541370179
10
-46.752255284833282
20
-28.342644093929795
42
0.29185378992618366
10
-7.6055900795569471
20
-63.05115089951245
10
-6.1051805293045813
20
-55.536679243295893
42
-0.28763934374759231
0
LINE
5
143
100
AcDbEntity
8
0
100
AcDbLine
10
-31.613315908008058
20
-25.971272863863
30
0
11
-39.121333183231684
21
-27.147332541370179
31
0
0
ARC
5
144
100
AcDbEntity
8
0
100
AcDbCircle
10
0.019699264462580336
20
-15.020402153526632
30
0
40
40.976613594867224
210
0
220
0
230
1
100
AcDbArc
50
195.34799329028857
51
197.21436821835073
0
ARC
5
145
100
AcDbEntity
8
0
100
AcDbCircle
10
0.019699264462580336
20
-15.020402153526632
30
0
40
48.632271823142659
210
0
220
0
230
1
100
AcDbArc
50
195.3587129835484
51
195.89875386010857
0
LINE
5
146
100
AcDbEntity
8
0
100
AcDbLine
10
-2.1095960900417494
20
-35.525672239367651
30
0
11
-3.4760767385159932
21
-42.369390409517329
31
0
0
LINE
5
147
100
AcDbEntity
8
0
100
AcDbLine
10
-4.6343211722455848
20
-48.170203238766398
30
0
11
-6.1051805293045893
21
-55.536679243295879
31
0
0
LINE
5
148
100
AcDbEntity
8
0
100
AcDbLine
10
-3.4760767385159932
20
-42.369390409517329
30
0
11
-4.6343211722455848
21
-48.170203238766398
31
0
0
LINE
5
149
100
AcDbEntity
8
0
100
AcDbLine
10
-7.6055900795569471
20
-63.05115089951245
30
0
11
-9.4395912144657004
21
-72.236342731584557
31
0
0
ARC
5
150
100
AcDbEntity
8
0
100
AcDbCircle
10
0.019699264462580336
20
-15.020402153526632
30
0
40
73.44324474197974
210
0
220
0
230
1
100
AcDbArc
50
209.75644857381297
51
231.31128372410689
0
ARC
5
151
100
AcDbEntity
8
0
100
AcDbCircle
10
0.019699264462580336
20
-15.020402153526632
30
0
40
66.640799100993291
210
0
220
0
230
1
100
AcDbArc
50
198.22767414824335
51
250.33955418518826
0
ARC
5
152
100
AcDbEntity
8
0
100
AcDbCircle
10
0.019699264462580336
20
-15.020402153526632
30
0
40
27.57149993180127
210
0
220
0
230
1
100
AcDbArc
50
201.30899430731574
51
262.71589252864487
0
ARC
5
153
100
AcDbEntity
8
0
100
AcDbCircle
10
0.019699264462580336
20
-15.020402153526632
30
0
40
33.474904304811098
210
0
220
0
230
1
100
AcDbArc
50
199.09507845698457
51
262.00827181151152
0
ARC
5
154
100
AcDbEntity
8
0
100
AcDbCircle
10
0.019699264462580336
20
-15.020402153526632
30
0
40
33.474904304811098
210
0
220
0
230
1
100
AcDbArc
50
-7.1627617447717764
51
13.479130596557653
0
SPLINE
5
155
100
AcDbEntity
8
0
100
AcDbSpline
70
4
71
5
72
56
73
50
74
0
42
0.000000001
43
0.0000000001
44
0.0000000001
40
0
40
0
40
0
40
0
40
0
40
0
40
0.022222222222222223
40
0.044444444444444446
40
0.066666666666666666
40
0.088888888888888892
40
0.11111111111111112
40
0.13333333333333333
40
0.15555555555555556
40
0.17777777777777778
40
0.20000000000000001
40
0.22222222222222224
40
0.24444444444444446
40
0.26666666666666666
40
0.28888888888888886
40
0.31111111111111106
40
0.33333333333333326
40
0.35555555555555546
40
0.37777777777777766
40
0.39999999999999986
40
0.42222222222222205
40
0.44444444444444425
40
0.46666666666666645
40
0.48888888888888865
40
0.51111111111111085
40
0.5333333333333331
40
0.55555555555555536
40
0.57777777777777761
40
0.59999999999999987
40
0.62222222222222212
40
0.64444444444444438
40
0.66666666666666663
40
0.68888888888888888
40
0.71111111111111114
40
0.73333333333333339
40
0.75555555555555565
40
0.7777777777777779
40
0.80000000000000016
40
0.82222222222222241
40
0.84444444444444466
40
0.86666666666666692
40
0.88888888888888917
40
0.91111111111111143
40
0.93333333333333368
40
0.95555555555555594
40
0.97777777777777819
40
1
40
1
40
1
40
1
40
1
40
1
41
1
41
1
41
1
41
1
41
1
41
1
41
1
41
1
41
1
41
1
41
1
41
1
41
1
41
1
41
1
41
1
41
1
41
1
41
1
41
1
41
1
41
1
41
1
41
1
41
1
41
1
41
1
41
1
41
1
41
1
41
1
41
1
41
1
41
1
41
1
41
1
41
1
41
1
41
1
41
1
41
1
41
1
41
1
41
1
41
1
41
1
41
1
41
1
41
1
41
1
10
7.567679407411454
20
-34.204457922879719
30
0
10
7.7777388663748059
20
-34.235434971367546
30
0
10
8.1919390916263009
20
-34.307259282704997
30
0
10
8.795483305687176
20
-34.444606511844583
30
0
10
9.5646685113137089
20
-34.687004277828123
30
0
10
10.467247632499037
20
-35.087826027779535
30
0
10
11.312215331035251
20
-35.583103737714701
30
0
10
12.102361328334581
20
-36.165762888388741
30
0
10
12.842567540702785
20
-36.823593025637763
30
0
10
13.540295159910894
20
-37.538093692394376
30
0
10
14.206367021439515
20
-38.282562661618854
30
0
10
14.853989098676347
20
-39.024730895691945
30
0
10
15.497253215753549
20
-39.730756593259258
30
0
10
16.149836812483514
20
-40.36867745523346
30
0
10
16.823580337570277
20
-40.91226578311268
30
0
10
17.52720591024049
20
-41.344327245733879
30
0
10
18.264722495237862
20
-41.661306923298866
30
0
10
19.035567901183285
20
-41.870544175947479
30
0
10
19.835272855092292
20
-41.985428651303316
30
0
10
20.655931645738995
20
-42.02106896365629
30
0
10
21.486751199122796
20
-41.990243866934435
30
0
10
22.314527007102825
20
-41.898032016489424
30
0
10
23.124279279512905
20
-41.742339491062886
30
0
10
23.900035128518411
20
-41.51843008872877
30
0
10
24.625486472034453
20
-41.222479141371991
30
0
10
25.284872049077485
20
-40.855048946241851
30
0
10
25.863344954780846
20
-40.42578636889732
30
0
10
26.349099733679701
20
-39.953387098469967
30
0
10
26.738133584709367
20
-39.458555928054388
30
0
10
27.038214065356424
20
-38.95882099840258
30
0
10
27.273597430163324
20
-38.462304479733291
30
0
10
27.488352344835029
20
-37.962745905803558
30
0
10
27.731360791627623
20
-37.447551194265841
30
0
10
28.043260258564345
20
-36.904610298598712
30
0
10
28.441144539230685
20
-36.330385091731415
30
0
10
28.908523554595341
20
-35.735105259559894
30
0
10
29.408600144903655
20
-35.135404217774948
30
0
10
29.894729282674788
20
-34.548381879647387
30
0
10
30.321146101137863
20
-33.985695602246182
30
0
10
30.655438896311743
20
-33.446251522286751
30
0
10
30.883788189969685
20
-32.914273648063627
30
0
10
31.003579107054414
20
-32.366814260140941
30
0
10
31.01926933284361
20
-31.778666804837528
30
0
10
30.936336805067111
20
-31.129177771494042
30
0
10
30.758279238858123
20
-30.405266873482471
30
0
10
30.487494252472985
20
-29.599098780614614
30
0
10
30.197737930289566
20
-28.885409952387647
30
0
10
29.939557569459613
20
-28.31096846574949
30
0
10
29.749289577066062
20
-27.910611792389538
30
0
10
29.649618698197667
20
-27.706084455799228
30
0
0
SPLINE
5
156
100
AcDbEntity
8
0
100
AcDbSpline
70
4
71
5
72
51
73
45
74
0
42
0.000000001
43
0.0000000001
44
0.0000000001
40
0
40
0
40
0
40
0
40
0
40
0
40
0.025000000000000001
40
0.050000000000000003
40
0.075000000000000011
40
0.10000000000000001
40
0.125
40
0.14999999999999999
40
0.17499999999999999
40
0.19999999999999998
40
0.22499999999999998
40
0.24999999999999997
40
0.27499999999999997
40
0.29999999999999999
40
0.32500000000000001
40
0.35000000000000003
40
0.37500000000000006
40
0.40000000000000008
40
0.4250000000000001
40
0.45000000000000012
40
0.47500000000000014
40
0.50000000000000011
40
0.52500000000000013
40
0.55000000000000016
40
0.57500000000000018
40
0.6000000000000002
40
0.62500000000000022
40
0.65000000000000024
40
0.67500000000000027
40
0.70000000000000029
40
0.72500000000000031
40
0.75000000000000033
40
0.77500000000000036
40
0.80000000000000038
40
0.8250000000000004
40
0.85000000000000042
40
0.87500000000000044
40
0.90000000000000047
40
0.92500000000000049
40
0.95000000000000051
40
0.97500000000000053
40
1
40
1
40
1
40
1
40
1
40
1
41
1
41
1
41
1
41
1
41
1
41
1
41
1
41
1
41
1
41
1
41
1
41
1
41
1
41
1
41
1
41
1
41
1
41
1
41
1
41
1
41
1
41
1
41
1
41
1
41
1
41
1
41
1
41
1
41
1
41
1
41
1
41
1
41
1
41
1
41
1
41
1
41
1
41
1
41
1
41
1
41
1
41
1
41
1
41
1
41
1
10
40.154837490901649
20
-31.471059291649894
30
0
10
40.240924528547225
20
-31.570449856902407
30
0
10
40.402223244894486
20
-31.770977068617469
30
0
10
40.611544969898389
20
-32.077006196189039
30
0
10
40.825323830147696
20
-32.495531744186913
30
0
10
40.984766252013586
20
-33.03601982147012
30
0
10
41.040386214406475
20
-33.593280018565999
30
0
10
41.000543834496746
20
-34.166129875493198
30
0
10
40.879837991279359
20
-34.752478047369934
30
0
10
40.700056484871041
20
-35.349253480833909
30
0
10
40.488789871639632
20
-35.952864982247654
30
0
10
40.278601737191018
20
-36.559568910320735
30
0
10
40.105829497670541
20
-37.16584487213462
30
0
10
40.009970501269692
20
-37.768831518480724
30
0
10
40.03158897812601
20
-38.366545568670752
30
0
10
40.204900383785429
20
-38.957242192063674
30
0
10
40.550876508415776
20
-39.538890401927404
30
0
10
41.070624457835407
20
-40.108639816984699
30
0
10
41.737302833326808
20
-40.662202951139108
30
0
10
42.492323688059614
20
-41.193526982668558
30
0
10
43.262009551518766
20
-41.695853178644469
30
0
10
43.97155390300852
20
-42.16260474984999
30
0
10
44.559700881650777
20
-42.588303009967845
30
0
10
44.993859401240073
20
-42.969568725164386
30
0
10
45.283502640545514
20
-43.305883234767947
30
0
10
45.49879167660535
20
-43.601023530480091
30
0
10
45.737871733827006
20
-43.858336676600722
30
0
10
46.091113651790039
20
-44.075992679688582
30
0
10
46.600277358455955
20
-44.240804460488327
30
0
10
47.239244705088055
20
-44.327129281493718
30
0
10
47.944986010639653
20
-44.307129490919934
30
0
10
48.638845898302293
20
-44.159092426618507
30
0
10
49.250014942808029
20
-43.875741877326469
30
0
10
49.74183485408625
20
-43.474532790199937
30
0
10
50.124610295189896
20
-43.000888042704489
30
0
10
50.437221455909665
20
-42.515787967268281
30
0
10
50.734847752189587
20
-42.086267515210032
30
0
10
51.075340823606503
20
-41.775602077874595
30
0
10
51.503736886502921
20
-41.631622177554519
30
0
10
52.048585998697099
20
-41.684718569306767
30
0
10
52.727000856535696
20
-41.952821959739978
30
0
10
53.383031143698133
20
-42.345954392893205
30
0
10
53.939884218703476
20
-42.742350899765079
30
0
10
54.339900720987558
20
-43.05169895590047
30
0
10
54.547104428686296
20
-43.217644055319568
30
0
0
SPLINE
5
157
100
AcDbEntity
8
0
100
AcDbSpline
70
4
71
5
72
46
73
40
74
0
42
0.000000001
43
0.0000000001
44
0.0000000001
40
0
40
0
40
0
40
0
40
0
40
0
40
0.028571428571428571
40
0.057142857142857141
40
0.085714285714285715
40
0.11428571428571428
40
0.14285714285714285
40
0.17142857142857143
40
0.20000000000000001
40
0.22857142857142859
40
0.25714285714285717
40
0.28571428571428575
40
0.31428571428571433
40
0.34285714285714292
40
0.3714285714285715
40
0.40000000000000008
40
0.42857142857142866
40
0.45714285714285724
40
0.48571428571428582
40
0.51428571428571435
40
0.54285714285714293
40
0.57142857142857151
40
0.60000000000000009
40
0.62857142857142867
40
0.65714285714285725
40
0.68571428571428583
40
0.71428571428571441
40
0.74285714285714299
40
0.77142857142857157
40
0.80000000000000016
40
0.82857142857142874
40
0.85714285714285732
40
0.8857142857142859
40
0.91428571428571448
40
0.94285714285714306
40
0.97142857142857164
40
1
40
1
40
1
40
1
40
1
40
1
41
1
41
1
41
1
41
1
41
1
41
1
41
1
41
1
41
1
41
1
41
1
41
1
41
1
41
1
41
1
41
1
41
1
41
1
41
1
41
1
41
1
41
1
41
1
41
1
41
1
41
1
41
1
41
1
41
1
41
1
41
1
41
1
41
1
41
1
41
1
41
1
41
1
41
1
41
1
41
1
10
-3.2011167406489758
20
-40.992313657228223
30
0
10
-3.1718279403784018
20
-41.301208058766925
30
0
10
-3.1011469198759505
20
-41.899242118257547
30
0
10
-2.9588147393675039
20
-42.737028562393711
30
0
10
-2.6963239755367652
20
-43.735393800303335
30
0
10
-2.2486994575779367
20
-44.787030928492548
30
0
10
-1.6876514217992724
20
-45.648477004643944
30
0
10
-1.0260123248889177
20
-46.333109529516669
30
0
10
-0.28614304605226742
20
-46.864646951522026
30
0
10
0.49818813682279667
20
-47.279275599316577
30
0
10
1.2775101345154682
20
-47.630377566166587
30
0
10
1.9929437335628684
20
-47.981891915741024
30
0
10
2.5881405739139351
20
-48.395609017875074
30
0
10
3.0196997614477432
20
-48.920132017367585
30
0
10
3.2677930594582207
20
-49.579567247104023
30
0
10
3.348148118120462
20
-50.360910351521923
30
0
10
3.299851054840798
20
-51.225144925221677
30
0
10
3.1713390179246121
20
-52.120114918827916
30
0
10
3.0070774313570143
20
-52.992709007021602
30
0
10
2.8340958722222731
20
-53.801174720019198
30
0
10
2.6481040049389613
20
-54.527777525177484
30
0
10
2.4289411719658438
20
-55.173561369914346
30
0
10
2.1580729813459718
20
-55.752640152107176
30
0
10
1.8327363237909773
20
-56.286874943032046
30
0
10
1.48782193555272
20
-56.800154295018643
30
0
10
1.1886047698293134
20
-57.314010371847168
30
0
10
0.99561020822997015
20
-57.843999819380763
30
0
10
0.94044212752375489
20
-58.39637934154532
30
0
10
0.98939964422378202
20
-58.963334061630832
30
0
10
1.0570462524169737
20
-59.526332483363632
30
0
10
1.0363648470292657
20
-60.062357889945581
30
0
10
0.82431986821179337
20
-60.549362660243489
30
0
10
0.34673425649123846
20
-60.971497623526787
30
0
10
-0.44815781906525787
20
-61.31773562935156
30
0
10
-1.5932206647129279
20
-61.58110401814352
30
0
10
-3.1069240196296755
20
-61.757712984179122
30
0
10
-4.6192205948428908
20
-61.828262388175794
30
0
10
-5.9236935454884083
20
-61.841241565805078
30
0
10
-6.868907934318635
20
-61.832170113101256
30
0
10
-7.3604066042093521
20
-61.823203319625144
30
0
0
SPLINE
5
158
100
AcDbEntity
8
0
100
AcDbSpline
70
4
71
5
72
51
73
45
74
0
42
0.000000001
43
0.0000000001
44
0.0000000001
40
0
40
0
40
0
40
0
40
0
40
0
40
0.025000000000000001
40
0.050000000000000003
40
0.075000000000000011
40
0.10000000000000001
40
0.125
40
0.14999999999999999
40
0.17499999999999999
40
0.19999999999999998
40
0.22499999999999998
40
0.24999999999999997
40
0.27499999999999997
40
0.29999999999999999
40
0.32500000000000001
40
0.35000000000000003
40
0.37500000000000006
40
0.40000000000000008
40
0.4250000000000001
40
0.45000000000000012
40
0.47500000000000014
40
0.50000000000000011
40
0.52500000000000013
40
0.55000000000000016
40
0.57500000000000018
40
0.6000000000000002
40
0.62500000000000022
40
0.65000000000000024
40
0.67500000000000027
40
0.70000000000000029
40
0.72500000000000031
40
0.75000000000000033
40
0.77500000000000036
40
0.80000000000000038
40
0.8250000000000004
40
0.85000000000000042
40
0.87500000000000044
40
0.90000000000000047
40
0.92500000000000049
40
0.95000000000000051
40
0.97500000000000053
40
1
40
1
40
1
40
1
40
1
40
1
41
1
41
1
41
1
41
1
41
1
41
1
41
1
41
1
41
1
41
1
41
1
41
1
41
1
41
1
41
1
41
1
41
1
41
1
41
1
41
1
41
1
41
1
41
1
41
1
41
1
41
1
41
1
41
1
41
1
41
1
41
1
41
1
41
1
41
1
41
1
41
1
41
1
41
1
41
1
41
1
41
1
41
1
41
1
41
1
41
1
10
-0.78087485140287782
20
-77.737687569713188
30
0
10
-0.57843422205126382
20
-77.634834805090392
30
0
10
-0.18783488826473876
20
-77.425549006174535
30
0
10
0.35521877448743849
20
-77.100879328269997
30
0
10
0.99350861255248546
20
-76.6464840766169
30
0
10
1.649856910691774
20
-76.042509672421701
30
0
10
2.1698727261199986
20
-75.402373639068031
30
0
10
2.5647264129560665
20
-74.725831858685353
30
0
10
2.8534173590938829
20
-74.012732391588145
30
0
10
3.0657138723019921
20
-73.262746857004245
30
0
10
3.2416776929350446
20
-72.476477438155086
30
0
10
3.4248942608515294
20
-71.659089062688111
30
0
10
3.6571164294985725
20
-70.823397508289602
30
0
10
3.9723337713596245
20
-69.99321335343447
30
0
10
4.3910739945878827
20
-69.206606189618881
30
0
10
4.9145063457732672
20
-68.519307714221654
30
0
10
5.5290194137160933
20
-67.991111585883971
30
0
10
6.2107808616684288
20
-67.672061818470809
30
0
10
6.9302483397362877
20
-67.588968594389982
30
0
10
7.6566716348414019
20
-67.731033787963071
30
0
10
8.3625560333343802
20
-68.037507880008533
30
0
10
9.0262484574548996
20
-68.422996152232713
30
0
10
9.6349302195562068
20
-68.802116320212548
30
0
10
10.186886922856232
20
-69.112131571875778
30
0
10
10.695570428937291
20
-69.341796656257429
30
0
10
11.188083609198447
20
-69.540033905366428
30
0
10
11.69025538442542
20
-69.778754656651998
30
0
10
12.216122763709279
20
-70.127930206020835
30
0
10
12.752007795690993
20
-70.619943883147116
30
0
10
13.255500809868659
20
-71.23904492365331
30
0
10
13.6744117275903
20
-71.943392149597472
30
0
10
13.961698128460212
20
-72.679889602056306
30
0
10
14.09024478539096
20
-73.400390988935584
30
0
10
14.072166943940234
20
-74.080920600406614
30
0
10
13.957686713671922
20
-74.724370151627085
30
0
10
13.816868619070629
20
-75.349046448392073
30
0
10
13.726756175313419
20
-75.981576687294165
30
0
10
13.755499956158117
20
-76.647618820441053
30
0
10
13.950211111354758
20
-77.364836019798673
30
0
10
14.341874504337824
20
-78.14490956195084
30
0
10
14.948366176547447
20
-78.994593803390472
30
0
10
15.612173066384521
20
-79.732606284961108
30
0
10
16.21154764837685
20
-80.31930074672195
30
0
10
16.656205369969214
20
-80.725164738519226
30
0
10
16.889802850139915
20
-80.931780297868301
30
0
0
SPLINE
5
159
100
AcDbEntity
8
0
100
AcDbSpline
70
4
71
5
72
41
73
35
74
0
42
0.000000001
43
0.0000000001
44
0.0000000001
40
0
40
0
40
0
40
0
40
0
40
0
40
0.033333333333333333
40
0.066666666666666666
40
0.10000000000000001
40
0.13333333333333333
40
0.16666666666666666
40
0.19999999999999998
40
0.23333333333333331
40
0.26666666666666666
40
0.29999999999999999
40
0.33333333333333331
40
0.36666666666666664
40
0.39999999999999997
40
0.43333333333333329
40
0.46666666666666662
40
0.49999999999999994
40
0.53333333333333333
40
0.56666666666666665
40
0.59999999999999998
40
0.6333333333333333
40
0.66666666666666663
40
0.69999999999999996
40
0.73333333333333328
40
0.76666666666666661
40
0.79999999999999993
40
0.83333333333333326
40
0.86666666666666659
40
0.89999999999999991
40
0.93333333333333324
40
0.96666666666666656
40
1
40
1
40
1
40
1
40
1
40
1
41
1
41
1
41
1
41
1
41
1
41
1
41
1
41
1
41
1
41
1
41
1
41
1
41
1
41
1
41
1
41
1
41
1
41
1
41
1
41
1
41
1
41
1
41
1
41
1
41
1
41
1
41
1
41
1
41
1
41
1
41
1
41
1
41
1
41
1
41
1
10
25.809596177647212
20
-80.931780297868301
30
0
10
25.864078018649721
20
-80.802998106743203
30
0
10
25.979967878372644
20
-80.54786006954933
30
0
10
26.174581182067907
20
-80.172432041978837
30
0
10
26.475698055100423
20
-79.686445827477002
30
0
10
26.920271499773065
20
-79.10271573626386
30
0
10
27.428622616237163
20
-78.540803713915992
30
0
10
27.991338003501816
20
-77.99662324440304
30
0
10
28.592141202563997
20
-77.46315321815112
30
0
10
29.205972244567441
20
-76.92962710979549
30
0
10
29.804524545771628
20
-76.384178621607276
30
0
10
30.361568795487059
20
-75.816404290052077
30
0
10
30.85872118425344
20
-75.220106295132354
30
0
10
31.290259471644696
20
-74.595665775942678
30
0
10
31.670510908516217
20
-73.953442481929258
30
0
10
32.029873219629152
20
-73.312669698923841
30
0
10
32.405229832701785
20
-72.698074949814085
30
0
10
32.831829694956468
20
-72.137214733846577
30
0
10
33.335350630266895
20
-71.657628384136288
30
0
10
33.921828046619076
20
-71.283833170169231
30
0
10
34.579306718003679
20
-71.035633565045075
30
0
10
35.284673670663608
20
-70.92702014699293
30
0
10
36.008713374503721
20
-70.964818185179183
30
0
10
36.721846849357888
20
-71.147347274071336
30
0
10
37.399517377799377
20
-71.463014277989416
30
0
10
38.021786852812689
20
-71.893644208166705
30
0
10
38.572952831959078
20
-72.417723903206777
30
0
10
39.041200982263852
20
-73.01359818110636
30
0
10
39.418294541481004
20
-73.662710493689701
30
0
10
39.699274420126535
20
-74.352669721361679
30
0
10
39.881634265756972
20
-75.075915110227413
30
0
10
39.947962585271462
20
-75.678036355541039
30
0
10
39.952996155891512
20
-76.142231448126665
30
0
10
39.936515546917605
20
-76.457286737003486
30
0
10
39.923316158593181
20
-76.616212345485636
30
0
0
SPLINE
5
160
100
AcDbEntity
8
0
100
AcDbSpline
70
4
71
5
72
51
73
45
74
0
42
0.000000001
43
0.0000000001
44
0.0000000001
40
0
40
0
40
0
40
0
40
0
40
0
40
0.025000000000000001
40
0.050000000000000003
40
0.075000000000000011
40
0.10000000000000001
40
0.125
40
0.14999999999999999
40
0.17499999999999999
40
0.19999999999999998
40
0.22499999999999998
40
0.24999999999999997
40
0.27499999999999997
40
0.29999999999999999
40
0.32500000000000001
40
0.35000000000000003
40
0.37500000000000006
40
0.40000000000000008
40
0.4250000000000001
40
0.45000000000000012
40
0.47500000000000014
40
0.50000000000000011
40
0.52500000000000013
40
0.55000000000000016
40
0.57500000000000018
40
0.6000000000000002
40
0.62500000000000022
40
0.65000000000000024
40
0.67500000000000027
40
0.70000000000000029
40
0.72500000000000031
40
0.75000000000000033
40
0.77500000000000036
40
0.80000000000000038
40
0.8250000000000004
40
0.85000000000000042
40
0.87500000000000044
40
0.90000000000000047
40
0.92500000000000049
40
0.95000000000000051
40
0.97500000000000053
40
1
40
1
40
1
40
1
40
1
40
1
41
1
41
1
41
1
41
1
41
1
41
1
41
1
41
1
41
1
41
1
41
1
41
1
41
1
41
1
41
1
41
1
41
1
41
1
41
1
41
1
41
1
41
1
41
1
41
1
41
1
41
1
41
1
41
1
41
1
41
1
41
1
41
1
41
1
41
1
41
1
41
1
41
1
41
1
41
1
41
1
41
1
41
1
41
1
41
1
41
1
10
46.234161320620267
20
-72.157508016547311
30
0
10
46.048668942186744
20
-72.093258168487381
30
0
10
45.691441511297711
20
-71.950702904223746
30
0
10
45.196872290830711
20
-71.694703411280159
30
0
10
44.620075004065136
20
-71.268950759362241
30
0
10
44.036104296030196
20
-70.597462537820391
30
0
10
43.586253075473209
20
-69.791738628314917
30
0
10
43.264041740774388
20
-68.862605606027898
30
0
10
43.058094766560878
20
-67.828676685150128
30
0
10
42.950667112333974
20
-66.718688910562605
30
0
10
42.919020542355668
20
-65.567222096287935
30
0
10
42.936908560484575
20
-64.410052480985101
30
0
10
42.976029427567283
20
-63.27975581240878
30
0
10
43.00741179476492
20
-62.200965870411352
30
0
10
43.002977171091736
20
-61.186294907526786
30
0
10
42.936629666929285
20
-60.230506698266197
30
0
10
42.788371463224678
20
-59.315898251282427
30
0
10
42.548905183481281
20
-58.420201702923663
30
0
10
42.224624646142964
20
-57.524014435854021
30
0
10
41.841366493339159
20
-56.617496081831106
30
0
10
41.451560832300544
20
-55.70967968222832
30
0
10
41.130060031205588
20
-54.828585085101587
30
0
10
40.954948122154619
20
-54.008907827444908
30
0
10
40.991047415462859
20
-53.282147585960999
30
0
10
41.274469090954113
20
-52.667137341222563
30
0
10
41.791176065485381
20
-52.156886116954595
30
0
10
42.483504053759717
20
-51.723289149257504
30
0
10
43.274325170697153
20
-51.333273071332599
30
0
10
44.085340698755971
20
-50.961015906689859
30
0
10
44.858663931822463
20
-50.602720937426476
30
0
10
45.574489996050872
20
-50.287767693997232
30
0
10
46.23904929842297
20
-50.060364607819253
30
0
10
46.874569258117198
20
-49.962818869892132
30
0
10
47.5090605019316
20
-50.019484220388073
30
0
10
48.164944585823662
20
-50.217070275931519
30
0
10
48.858258119175765
20
-50.512760141760573
30
0
10
49.600404607496259
20
-50.849325700317408
30
0
10
50.3989676715955
20
-51.166784685534822
30
0
10
51.258987430312132
20
-51.417796937820974
30
0
10
52.18366425614883
20
-51.572260053417622
30
0
10
53.174733059800133
20
-51.612081705065293
30
0
10
54.02127237617033
20
-51.545355815863431
30
0
10
54.686418430699852
20
-51.438661886580888
30
0
10
55.143276240885221
20
-51.342383739772764
30
0
10
55.375061918165152
20
-51.287957273058176
30
0
0
SPLINE
5
161
100
AcDbEntity
8
0
100
AcDbSpline
70
6
71
5
72
111
73
105
74
0
42
0.000000001
43
0.0000000001
44
0.0000000001
40
0
40
0
40
0
40
0
40
0
40
0
40
0.01
40
0.02
40
0.029999999999999999
40
0.040000000000000001
40
0.050000000000000003
40
0.060000000000000005
40
0.070000000000000007
40
0.080000000000000002
40
0.089999999999999997
40
0.099999999999999992
40
0.10999999999999999
40
0.11999999999999998
40
0.12999999999999998
40
0.13999999999999999
40
0.14999999999999999
40
0.16
40
0.17000000000000001
40
0.18000000000000002
40
0.19000000000000003
40
0.20000000000000004
40
0.21000000000000005
40
0.22000000000000006
40
0.23000000000000007
40
0.24000000000000007
40
0.25000000000000006
40
0.26000000000000006
40
0.27000000000000007
40
0.28000000000000008
40
0.29000000000000009
40
0.3000000000000001
40
0.31000000000000011
40
0.32000000000000012
40
0.33000000000000013
40
0.34000000000000014
40
0.35000000000000014
40
0.36000000000000015
40
0.37000000000000016
40
0.38000000000000017
40
0.39000000000000018
40
0.40000000000000019
40
0.4100000000000002
40
0.42000000000000021
40
0.43000000000000022
40
0.44000000000000022
40
0.45000000000000023
40
0.46000000000000024
40
0.47000000000000025
40
0.48000000000000026
40
0.49000000000000027
40
0.50000000000000022
40
0.51000000000000023
40
0.52000000000000024
40
0.53000000000000025
40
0.54000000000000026
40
0.55000000000000027
40
0.56000000000000028
40
0.57000000000000028
40
0.58000000000000029
40
0.5900000000000003
40
0.60000000000000031
40
0.61000000000000032
40
0.62000000000000033
40
0.63000000000000034
40
0.64000000000000035
40
0.65000000000000036
40
0.66000000000000036
40
0.67000000000000037
40
0.68000000000000038
40
0.69000000000000039
40
0.7000000000000004
40
0.71000000000000041
40
0.72000000000000042
40
0.73000000000000043
40
0.74000000000000044
40
0.75000000000000044
40
0.76000000000000045
40
0.77000000000000046
40
0.78000000000000047
40
0.79000000000000048
40
0.80000000000000049
40
0.8100000000000005
40
0.82000000000000051
40
0.83000000000000052
40
0.84000000000000052
40
0.85000000000000053
40
0.86000000000000054
40
0.87000000000000055
40
0.88000000000000056
40
0.89000000000000057
40
0.90000000000000058
40
0.91000000000000059
40
0.9200000000000006
40
0.9300000000000006
40
0.94000000000000061
40
0.95000000000000062
40
0.96000000000000063
40
0.97000000000000064
40
0.98000000000000065
40
0.99000000000000066
40
1
40
1
40
1
40
1
40
1
40
1
41
1
41
1
41
1
41
1
41
1
41
1
41
1
41
1
41
1
41
1
41
1
41
1
41
1
41
1
41
1
41
1
41
1
41
1
41
1
41
1
41
1
41
1
41
1
41
1
41
1
41
1
41
1
41
1
41
1
41
1
41
1
41
1
41
1
41
1
41
1
41
1
41
1
41
1
41
1
41
1
41
1
41
1
41
1
41
1
41
1
41
1
41
1
41
1
41
1
41
1
41
1
41
1
41
1
41
1
41
1
41
1
41
1
41
1
41
1
41
1
41
1
41
1
41
1
41
1
41
1
41
1
41
1
41
1
41
1
41
1
41
1
41
1
41
1
41
1
41
1
41
1
41
1
41
1
41
1
41
1
41
1
41
1
41
1
41
1
41
1
41
1
41
1
41
1
41
1
41
1
41
1
41
1
41
1
41
1
41
1
41
1
41
1
41
1
41
1
41
1
41
1
41
1
41
1
41
1
41
1
10
19.000000283122063
20
-64.000000953674316
30
0
10
18.957219135264221
20
-63.838454214748083
30
0
10
18.848937916106582
20
-63.510662513683123
30
0
10
18.62007249661713
20
-63.006553430386418
30
0
10
18.199707998627076
20
-62.315094617419746
30
0
10
17.563978466069251
20
-61.4280316217326
30
0
10
16.92053789452093
20
-60.524845006364814
30
0
10
16.376323887091537
20
-59.610789594199865
30
0
10
16.025624396957156
20
-58.691312467649219
30
0
10
15.934375007560572
20
-57.773449162515519
30
0
10
16.121279607112871
20
-56.867582137083026
30
0
10
16.548376190623266
20
-55.988126054480588
30
0
10
17.142244332906596
20
-55.150741628124379
30
0
10
17.810087067151752
20
-54.370125163446474
30
0
10
18.457710170766045
20
-53.657589644538319
30
0
10
19.006922283463815
20
-53.0186908172617
30
0
10
19.41263744348689
20
-52.450929239134823
30
0
10
19.681632527132219
20
-51.941145581976549
30
0
10
19.855643490143365
20
-51.469238665417038
30
0
10
19.992270857451789
20
-51.01225614803721
30
0
10
20.146850380411291
20
-50.548345481695726
30
0
10
20.353509180117307
20
-50.060768627895186
30
0
10
20.630421008198105
20
-49.541355146992217
30
0
10
20.985484022171139
20
-48.993928578073181
30
0
10
21.421875522888094
20
-48.437809012017716
30
0
10
21.943555301895987
20
-47.911133113949433
30
0
10
22.5522857818838
20
-47.460563182411946
30
0
10
23.24475829863669
20
-47.131144064170982
30
0
10
24.009706486112236
20
-46.956172102769891
30
0
10
24.82494952539648
20
-46.94689897531552
30
0
10
25.654664816761855
20
-47.082730612266921
30
0
10
26.458148852794288
20
-47.323067876446174
30
0
10
27.197998571150887
20
-47.618350448157543
30
0
10
27.849089285020405
20
-47.92189046958309
30
0
10
28.405897322905354
20
-48.200227577441851
30
0
10
28.893936953696819
20
-48.44704830675029
30
0
10
29.359552066703326
20
-48.678609652776998
30
0
10
29.850138023268833
20
-48.921364012764379
30
0
10
30.399049285276504
20
-49.202833604182956
30
0
10
31.004656053706174
20
-49.539371968053239
30
0
10
31.636532639478578
20
-49.936430230844941
30
0
10
32.249991054745976
20
-50.392561861619512
30
0
10
32.798176868789994
20
-50.902275898125765
30
0
10
33.244463090561773
20
-51.459199851838321
30
0
10
33.576598969330995
20
-52.059547033354903
30
0
10
33.802266176041918
20
-52.701271757549009
30
0
10
33.94115179443871
20
-53.382375598633196
30
0
10
34.018354587311769
20
-54.099559850532373
30
0
10
34.057001481773675
20
-54.846624423030129
30
0
10
34.071876839877639
20
-55.613283611354078
30
0
10
34.070456639930939
20
-56.387498274165679
30
0
10
34.053382888903982
20
-57.157494367075927
30
0
10
34.015107322171005
20
-57.913965126984117
30
0
10
33.944545444767769
20
-58.652047472539046
30
0
10
33.825493632749485
20
-59.373792936530918
30
0
10
33.639786466898627
20
-60.085762499279483
30
0
10
33.370725824132499
20
-60.796081248757055
30
0
10
33.006576633557358
20
-61.511543129706126
30
0
10
32.543667807479352
20
-62.235017780696047
30
0
10
31.99060769908786
20
-62.961902422501844
30
0
10
31.366779646457172
20
-63.681591918007207
30
0
10
30.698386379583141
20
-64.381145409951884
30
0
10
30.015317375419141
20
-65.048153891794698
30
0
10
29.347610680807271
20
-65.674140676997723
30
0
10
28.722243123971175
20
-66.257270568398695
30
0
10
28.159401017679293
20
-66.806497795260981
30
0
10
27.670367212089531
20
-67.340967884210428
30
0
10
27.257645749670608
20
-67.883385596240302
30
0
10
26.914343700423672
20
-68.454587157309902
30
0
10
26.624242063468742
20
-69.068268086351168
30
0
10
26.360606534734721
20
-69.724075087980964
30
0
10
26.089145727224896
20
-70.407325541657301
30
0
10
25.775365121310859
20
-71.096238300962085
30
0
10
25.391125392837992
20
-71.767457662881895
30
0
10
24.920766055748317
20
-72.401685845283794
30
0
10
24.369257083872469
20
-72.990679134234298
30
0
10
23.763146131056352
20
-73.538792060533154
30
0
10
23.139054974122686
20
-74.054925281714986
30
0
10
22.535023004066538
20
-74.546671767978211
30
0
10
21.980709455988755
20
-75.01358202340603
30
0
10
21.488075806168965
20
-75.440793127737408
30
0
10
21.04188228476815
20
-75.792529856397778
30
0
10
20.612867820827919
20
-76.023225413296771
30
0
10
20.170049886360509
20
-76.088044414091883
30
0
10
19.694718136361978
20
-75.954519683212908
30
0
10
19.189594232866732
20
-75.611022475464708
30
0
10
18.67126673863147
20
-75.063949493985305
30
0
10
18.16516588552517
20
-74.336921373114961
30
0
10
17.699868456271417
20
-73.468806183850688
30
0
10
17.300899227409591
20
-72.513243851488212
30
0
10
16.988601035945386
20
-71.532684790123724
30
0
10
16.778535262157092
20
-70.589264292497475
30
0
10
16.681055257615132
20
-69.73692074404137
30
0
10
16.701299910801097
20
-69.012383025404432
30
0
10
16.838815452076453
20
-68.428054325165959
30
0
10
17.087809559269253
20
-67.960500327783762
30
0
10
17.434817920430007
20
-67.556914006232191
30
0
10
17.853810465339492
20
-67.155130998465978
30
0
10
18.303241288743322
20
-66.69821485547007
30
0
10
18.719414005694027
20
-66.154711212768945
30
0
10
19.026777962716821
20
-65.518143763018116
30
0
10
19.130019911743144
20
-64.94176802154999
30
0
10
19.105624803253619
20
-64.479942947240517
30
0
10
19.042781430979897
20
-64.161547692600536
30
0
10
19.000000283122063
20
-64.000000953674316
30
0
0
SPLINE
5
162
100
AcDbEntity
8
0
100
AcDbSpline
70
6
71
5
72
66
73
60
74
0
42
0.000000001
43
0.0000000001
44
0.0000000001
40
0
40
0
40
0
40
0
40
0
40
0
40
0.018181818181818181
40
0.036363636363636362
40
0.054545454545454543
40
0.072727272727272724
40
0.090909090909090912
40
0.1090909090909091
40
0.12727272727272729
40
0.14545454545454548
40
0.16363636363636366
40
0.18181818181818185
40
0.20000000000000004
40
0.21818181818181823
40
0.23636363636363641
40
0.25454545454545457
40
0.27272727272727276
40
0.29090909090909095
40
0.30909090909090914
40
0.32727272727272733
40
0.34545454545454551
40
0.3636363636363637
40
0.38181818181818189
40
0.40000000000000008
40
0.41818181818181827
40
0.43636363636363645
40
0.45454545454545464
40
0.47272727272727283
40
0.49090909090909102
40
0.50909090909090915
40
0.52727272727272734
40
0.54545454545454553
40
0.56363636363636371
40
0.5818181818181819
40
0.60000000000000009
40
0.61818181818181828
40
0.63636363636363646
40
0.65454545454545465
40
0.67272727272727284
40
0.69090909090909103
40
0.70909090909090922
40
0.7272727272727274
40
0.74545454545454559
40
0.76363636363636378
40
0.78181818181818197
40
0.80000000000000016
40
0.81818181818181834
40
0.83636363636363653
40
0.85454545454545472
40
0.87272727272727291
40
0.89090909090909109
40
0.90909090909090928
40
0.92727272727272747
40
0.94545454545454566
40
0.96363636363636385
40
0.98181818181818203
40
1
40
1
40
1
40
1
40
1
40
1
41
1
41
1
41
1
41
1
41
1
41
1
41
1
41
1
41
1
41
1
41
1
41
1
41
1
41
1
41
1
41
1
41
1
41
1
41
1
41
1
41
1
41
1
41
1
41
1
41
1
41
1
41
1
41
1
41
1
41
1
41
1
41
1
41
1
41
1
41
1
41
1
41
1
41
1
41
1
41
1
41
1
41
1
41
1
41
1
41
1
41
1
41
1
41
1
41
1
41
1
41
1
41
1
41
1
41
1
41
1
41
1
41
1
41
1
41
1
41
1
10
36.000000536441803
20
-47.000000700354576
30
0
10
35.904293178582776
20
-47.014543456110033
30
0
10
35.71553038377553
20
-47.029162100329167
30
0
10
35.442434852613104
20
-47.007782158660739
30
0
10
35.102141533585403
20
-46.897995020982464
30
0
10
34.711054218770286
20
-46.654544207285483
30
0
10
34.342362297377122
20
-46.341151452062583
30
0
10
33.986019151111961
20
-45.992301679128609
30
0
10
33.642276221836987
20
-45.631708086099721
30
0
10
33.32964533684568
20
-45.263774840650015
30
0
10
33.07480912019011
20
-44.881189680745514
30
0
10
32.903010893247867
20
-44.472077566124568
30
0
10
32.8282943391076
20
-44.027286278184064
30
0
10
32.84372277395417
20
-43.5476596102583
30
0
10
32.91174093925855
20
-43.051217870504161
30
0
10
32.977993203149843
20
-42.56478245520924
30
0
10
32.984874906938813
20
-42.115779538550868
30
0
10
32.885211688125601
20
-41.72394440796517
30
0
10
32.65579892266134
20
-41.393144004597431
30
0
10
32.311322182016063
20
-41.102881399924883
30
0
10
31.893160771811289
20
-40.819148488964814
30
0
10
31.458102877093019
20
-40.505188140107919
30
0
10
31.066807222000538
20
-40.132862294385269
30
0
10
30.773138488480999
20
-39.692440621947036
30
0
10
30.611202751022027
20
-39.206519955977257
30
0
10
30.594772819031746
20
-38.721832285479117
30
0
10
30.721303293658337
20
-38.292833227011918
30
0
10
30.974415636064734
20
-37.968011701929441
30
0
10
31.326964146077991
20
-37.77503761450162
30
0
10
31.74387146415566
20
-37.706409347875393
30
0
10
32.187818430474024
20
-37.732608607637161
30
0
10
32.625244816602958
20
-37.816014922032927
30
0
10
33.031537853939042
20
-37.923246825163794
30
0
10
33.398261012472531
20
-38.041170951796673
30
0
10
33.733393629077483
20
-38.180396909082624
30
0
10
34.052170832652983
20
-38.36205137835703
30
0
10
34.370440941049679
20
-38.60893325529225
30
0
10
34.696658640217073
20
-38.934474380020006
30
0
10
35.025453994383511
20
-39.333845488073344
30
0
10
35.343774254289393
20
-39.789958735471409
30
0
10
35.635940243898986
20
-40.278337309402431
30
0
10
35.889454885626563
20
-40.772558987287567
30
0
10
36.099693916077442
20
-41.249059414712789
30
0
10
36.277055744203835
20
-41.693163911023944
30
0
10
36.445812179266689
20
-42.101053514765013
30
0
10
36.633262977285824
20
-42.476770305687438
30
0
10
36.860789681825999
20
-42.830546869978214
30
0
10
37.135398388504399
20
-43.176522668555094
30
0
10
37.437923902886318
20
-43.530955240482328
30
0
10
37.724958770966538
20
-43.909374861014712
30
0
10
37.943777202729507
20
-44.323055077578076
30
0
10
38.044266270663741
20
-44.775364698056208
30
0
10
37.990752952734944
20
-45.258790810705058
30
0
10
37.777173291601677
20
-45.750079172041367
30
0
10
37.42720717330419
20
-46.212713246701213
30
0
10
36.981407052103947
20
-46.605595007821421
30
0
10
36.586737350281837
20
-46.833083701828741
30
0
10
36.289774530929684
20
-46.941905565796361
30
0
10
36.095707894300837
20
-46.985457944599119
30
0
10
36.000000536441803
20
-47.000000700354576
30
0
0
SPLINE
5
163
100
AcDbEntity
8
0
100
AcDbSpline
70
6
71
5
72
56
73
50
74
0
42
0.000000001
43
0.0000000001
44
0.0000000001
40
0
40
0
40
0
40
0
40
0
40
0
40
0.022222222222222223
40
0.044444444444444446
40
0.066666666666666666
40
0.088888888888888892
40
0.11111111111111112
40
0.13333333333333333
40
0.15555555555555556
40
0.17777777777777778
40
0.20000000000000001
40
0.22222222222222224
40
0.24444444444444446
40
0.26666666666666666
40
0.28888888888888886
40
0.31111111111111106
40
0.33333333333333326
40
0.35555555555555546
40
0.37777777777777766
40
0.39999999999999986
40
0.42222222222222205
40
0.44444444444444425
40
0.46666666666666645
40
0.48888888888888865
40
0.51111111111111085
40
0.5333333333333331
40
0.55555555555555536
40
0.57777777777777761
40
0.59999999999999987
40
0.62222222222222212
40
0.64444444444444438
40
0.66666666666666663
40
0.68888888888888888
40
0.71111111111111114
40
0.73333333333333339
40
0.75555555555555565
40
0.7777777777777779
40
0.80000000000000016
40
0.82222222222222241
40
0.84444444444444466
40
0.86666666666666692
40
0.88888888888888917
40
0.91111111111111143
40
0.93333333333333368
40
0.95555555555555594
40
0.97777777777777819
40
1
40
1
40
1
40
1
40
1
40
1
41
1
41
1
41
1
41
1
41
1
41
1
41
1
41
1
41
1
41
1
41
1
41
1
41
1
41
1
41
1
41
1
41
1
41
1
41
1
41
1
41
1
41
1
41
1
41
1
41
1
41
1
41
1
41
1
41
1
41
1
41
1
41
1
41
1
41
1
41
1
41
1
41
1
41
1
41
1
41
1
41
1
41
1
41
1
41
1
41
1
41
1
41
1
41
1
41
1
41
1
10
7.0000001043081292
20
-43.000000640749938
30
0
10
6.9405141474397141
20
-43.077669106766237
30
0
10
6.8371425560216128
20
-43.241217448086928
30
0
10
6.7293536394384637
20
-43.511106946259446
30
0
10
6.6749640937205745
20
-43.918507982793855
30
0
10
6.7196563637599995
20
-44.497780428582423
30
0
10
6.82945181497261
20
-45.133852398784256
30
0
10
6.9578523878272547
20
-45.810810524614247
30
0
10
7.0703642073676018
20
-46.511249417184573
30
0
10
7.1592147734383023
20
-47.217695805531548
30
0
10
7.2421202198845247
20
-47.913058725325747
30
0
10
7.3507228299898806
20
-48.580438777791912
30
0
10
7.5223714118608411
20
-49.203159639122688
30
0
10
7.7901339254185844
20
-49.764646294075952
30
0
10
8.1745199330703961
20
-50.248517628927843
30
0
10
8.6720638803757701
20
-50.638228568934494
30
0
10
9.2544342921725935
20
-50.918320378298944
30
0
10
9.8782945803334972
20
-51.077320832531882
30
0
10
10.492252429436299
20
-51.110233921566731
30
0
10
11.04491400313089
20
-51.021184054087271
30
0
10
11.492565061608399
20
-50.826117146059232
30
0
10
11.806763837260943
20
-50.555254547090243
30
0
10
11.979023106597539
20
-50.243950362262531
30
0
10
12.024567889724411
20
-49.924438104046956
30
0
10
11.988786403226149
20
-49.616238804669393
30
0
10
11.94573282565994
20
-49.320143387333871
30
0
10
11.967637137347234
20
-49.02452458528272
30
0
10
12.099940826164616
20
-48.709605593238578
30
0
10
12.332062978041582
20
-48.352545569112955
30
0
10
12.615148945244155
20
-47.931751107061274
30
0
10
12.882857115612925
20
-47.431514000695252
30
0
10
13.069882234980209
20
-46.846144192109513
30
0
10
13.134005420023938
20
-46.185272436330948
30
0
10
13.068408560771855
20
-45.475747662171663
30
0
10
12.888514259854729
20
-44.754425426346167
30
0
10
12.623704012092293
20
-44.06272581970056
30
0
10
12.307031855345553
20
-43.440437667321163
30
0
10
11.966125196145478
20
-42.920014562316275
30
0
10
11.612845967539766
20
-42.520233503816897
30
0
10
11.235512364946258
20
-42.241244855570741
30
0
10
10.81168616839367
20
-42.071406208574459
30
0
10
10.319842859422167
20
-41.993329858929215
30
0
10
9.7501543765730663
20
-41.989700129780289
30
0
10
9.1188205949896499
20
-42.050381501054133
30
0
10
8.4692292863787237
20
-42.174494202546214
30
0
10
7.8568915046068639
20
-42.366259356897132
30
0
10
7.4422501146815989
20
-42.579219837395179
30
0
10
7.194058297232111
20
-42.775206651989109
30
0
10
7.0594860611765426
20
-42.922332174733633
30
0
10
7.0000001043081292
20
-43.000000640749938
30
0
0
SPLINE
5
164
100
AcDbEntity
8
0
100
AcDbSpline
70
6
71
5
72
46
73
40
74
0
42
0.000000001
43
0.0000000001
44
0.0000000001
40
0
40
0
40
0
40
0
40
0
40
0
40
0.028571428571428571
40
0.057142857142857141
40
0.085714285714285715
40
0.11428571428571428
40
0.14285714285714285
40
0.17142857142857143
40
0.20000000000000001
40
0.22857142857142859
40
0.25714285714285717
40
0.28571428571428575
40
0.31428571428571433
40
0.34285714285714292
40
0.3714285714285715
40
0.40000000000000008
40
0.42857142857142866
40
0.45714285714285724
40
0.48571428571428582
40
0.51428571428571435
40
0.54285714285714293
40
0.57142857142857151
40
0.60000000000000009
40
0.62857142857142867
40
0.65714285714285725
40
0.68571428571428583
40
0.71428571428571441
40
0.74285714285714299
40
0.77142857142857157
40
0.80000000000000016
40
0.82857142857142874
40
0.85714285714285732
40
0.8857142857142859
40
0.91428571428571448
40
0.94285714285714306
40
0.97142857142857164
40
1
40
1
40
1
40
1
40
1
40
1
41
1
41
1
41
1
41
1
41
1
41
1
41
1
41
1
41
1
41
1
41
1
41
1
41
1
41
1
41
1
41
1
41
1
41
1
41
1
41
1
41
1
41
1
41
1
41
1
41
1
41
1
41
1
41
1
41
1
41
1
41
1
41
1
41
1
41
1
41
1
41
1
41
1
41
1
41
1
41
1
10
7.0000001043081284
20
-59.00000087916851
30
0
10
6.8730515315442329
20
-58.965960728908499
30
0
10
6.6123412817538174
20
-58.927150580279559
30
0
10
6.2032950458534266
20
-58.96028699033689
30
0
10
5.6393835229002809
20
-59.187530117716292
30
0
10
4.9712812706889551
20
-59.726629018281052
30
0
10
4.4176775789097933
20
-60.437668781983866
30
0
10
4.052514823560303
20
-61.222155556876558
30
0
10
3.9318753873902228
20
-61.983998115303692
30
0
10
4.0803532935850999
20
-62.64681251534271
30
0
10
4.4758309444593554
20
-63.17260509580872
30
0
10
5.0632028669647289
20
-63.554030115704776
30
0
10
5.7693103038245477
20
-63.805389935920054
30
0
10
6.5177792487637607
20
-63.954078923616002
30
0
10
7.2427389865005267
20
-64.032305942178183
30
0
10
7.9057052983660689
20
-64.067878286334093
30
0
10
8.5024447226552535
20
-64.078293898470847
30
0
10
9.0481943744335087
20
-64.072185961652437
30
0
10
9.5672736453184708
20
-64.049070135585012
30
0
10
10.081410024525297
20
-64.000011088460852
30
0
10
10.597697559962217
20
-63.907170248092591
30
0
10
11.099400687418154
20
-63.745726639114714
30
0
10
11.555149087744272
20
-63.496052816255116
30
0
10
11.925854940654455
20
-63.156446663959393
30
0
10
12.172406095513846
20
-62.75215739060436
30
0
10
12.263183640764641
20
-62.354914877260477
30
0
10
12.180503692472378
20
-62.057779905654478
30
0
10
11.924900394292541
20
-61.930133740556414
30
0
10
11.522584477835593
20
-61.968292602175332
30
0
10
11.023876438281553
20
-62.081591200650109
30
0
10
10.486196682118432
20
-62.146698963356485
30
0
10
9.960810106924912
20
-62.045436618400387
30
0
10
9.4776109739588499
20
-61.710374633106831
30
0
10
9.0318941684106591
20
-61.164078151470285
30
0
10
8.5972804614760499
20
-60.490471382083399
30
0
10
8.137380785285675
20
-59.809313500726304
30
0
10
7.7217610158730698
20
-59.361686438794393
30
0
10
7.3740327183371939
20
-59.131391481839685
30
0
10
7.1269486770720238
20
-59.034041029428522
30
0
10
7.0000001043081284
20
-59.00000087916851
30
0
0
SPLINE
5
165
100
AcDbEntity
8
0
100
AcDbSpline
70
6
71
5
72
51
73
45
74
0
42
0.000000001
43
0.0000000001
44
0.0000000001
40
0
40
0
40
0
40
0
40
0
40
0
40
0.025000000000000001
40
0.050000000000000003
40
0.075000000000000011
40
0.10000000000000001
40
0.125
40
0.14999999999999999
40
0.17499999999999999
40
0.19999999999999998
40
0.22499999999999998
40
0.24999999999999997
40
0.27499999999999997
40
0.29999999999999999
40
0.32500000000000001
40
0.35000000000000003
40
0.37500000000000006
40
0.40000000000000008
40
0.4250000000000001
40
0.45000000000000012
40
0.47500000000000014
40
0.50000000000000011
40
0.52500000000000013
40
0.55000000000000016
40
0.57500000000000018
40
0.6000000000000002
40
0.62500000000000022
40
0.65000000000000024
40
0.67500000000000027
40
0.70000000000000029
40
0.72500000000000031
40
0.75000000000000033
40
0.77500000000000036
40
0.80000000000000038
40
0.8250000000000004
40
0.85000000000000042
40
0.87500000000000044
40
0.90000000000000047
40
0.92500000000000049
40
0.95000000000000051
40
0.97500000000000053
40
1
40
1
40
1
40
1
40
1
40
1
41
1
41
1
41
1
41
1
41
1
41
1
41
1
41
1
41
1
41
1
41
1
41
1
41
1
41
1
41
1
41
1
41
1
41
1
41
1
41
1
41
1
41
1
41
1
41
1
41
1
41
1
41
1
41
1
41
1
41
1
41
1
41
1
41
1
41
1
41
1
41
1
41
1
41
1
41
1
41
1
41
1
41
1
41
1
41
1
41
1
10
38.000000566244125
20
-68.000001013278961
30
0
10
37.967760209419069
20
-68.049925308215379
30
0
10
37.889674303750418
20
-68.14210514301179
30
0
10
37.730553701461119
20
-68.256045544121861
30
0
10
37.438049067247434
20
-68.353199794856366
30
0
10
36.976641782572479
20
-68.367694980080458
30
0
10
36.474039459273769
20
-68.262842091446203
30
0
10
35.988721228268624
20
-68.033210922956343
30
0
10
35.570589406519417
20
-67.684037505491673
30
0
10
35.248293494334611
20
-67.23504351621132
30
0
10
35.033160509816639
20
-66.715674069234581
30
0
10
34.923264970686745
20
-66.160238133691621
30
0
10
34.907348963485859
20
-65.603190181351692
30
0
10
34.968824200682597
20
-65.074193991875077
30
0
10
35.08953623018882
20
-64.593660413937272
30
0
10
35.254053216544165
20
-64.167012239696831
30
0
10
35.449843437141503
20
-63.788485501945338
30
0
10
35.666680778718394
20
-63.446617371834463
30
0
10
35.896285256885932
20
-63.129379065334092
30
0
10
36.131962764966502
20
-62.828856047932035
30
0
10
36.368024505140667
20
-62.547599063072553
30
0
10
36.600327379342929
20
-62.297922555302499
30
0
10
36.827896015142557
20
-62.095515235843301
30
0
10
37.053950046134027
20
-61.955027843284576
30
0
10
37.28785640491752
20
-61.884138033500875
30
0
10
37.5445713834674
20
-61.880460855178292
30
0
10
37.834335109956342
20
-61.937331379744336
30
0
10
38.155463460862585
20
-62.047616108750475
30
0
10
38.482593926062407
20
-62.209386238804441
30
0
10
38.769489208169119
20
-62.42656602536114
30
0
10
38.967060521781818
20
-62.704627733555924
30
0
10
39.03662696308735
20
-63.047731882898361
30
0
10
38.966656411218295
20
-63.454989304159184
30
0
10
38.783657762071989
20
-63.917916987522375
30
0
10
38.536593205107096
20
-64.422829442757688
30
0
10
38.284678307340322
20
-64.95260660272784
30
0
10
38.083918539949046
20
-65.488684186088619
30
0
10
37.974230537660098
20
-66.012933474032181
30
0
10
37.96615740388868
20
-66.509599076581523
30
0
10
38.027918086624872
20
-66.967187050629178
30
0
10
38.102458999137454
20
-67.376765326834644
30
0
10
38.119790318808391
20
-67.659600176569739
30
0
10
38.083116444700693
20
-67.842559373393314
30
0
10
38.032240923069182
20
-67.950076718342558
30
0
10
38.000000566244125
20
-68.000001013278961
30
0
0
ENDSEC
0
SECTION
2
OBJECTS
0
DICTIONARY
5
C
100
AcDbDictionary
3
ACAD_GROUP
350
D
3
ACAD_MLINESTYLE
350
17
0
DICTIONARY
5
D
100
AcDbDictionary
0
DICTIONARY
5
1A
330
C
100
AcDbDictionary
0
DICTIONARY
5
17
100
AcDbDictionary
0
ENDSEC
0
EOF
